G75*
%MOIN*%
%OFA0B0*%
%FSLAX24Y24*%
%IPPOS*%
%LPD*%
%AMOC8*
5,1,8,0,0,1.08239X$1,22.5*
%
%ADD10R,0.0671X0.0592*%
%ADD11R,0.0592X0.0671*%
%ADD12R,0.0635X0.0635*%
%ADD13C,0.0635*%
%ADD14C,0.0820*%
%ADD15C,0.0750*%
%ADD16C,0.0640*%
%ADD17OC8,0.0640*%
%ADD18C,0.0720*%
%ADD19C,0.0000*%
%ADD20C,0.1340*%
%ADD21OC8,0.0720*%
%ADD22C,0.0010*%
D10*
X013566Y014329D03*
X013566Y014998D03*
X015716Y015188D03*
X015716Y014440D03*
X009816Y014940D03*
X009816Y015688D03*
X024066Y006888D03*
X024066Y006140D03*
X034116Y011590D03*
X034116Y012338D03*
X042066Y018940D03*
X042066Y019688D03*
X042566Y021690D03*
X042566Y022438D03*
X041066Y030390D03*
X041066Y031138D03*
D11*
X025240Y026914D03*
X024492Y026914D03*
X016650Y017914D03*
X015981Y017914D03*
X013900Y013164D03*
X013231Y013164D03*
X034492Y004664D03*
X035240Y004664D03*
D12*
X041066Y029414D03*
D13*
X042066Y029414D03*
X042066Y028414D03*
X041066Y028414D03*
X041066Y027414D03*
X042066Y027414D03*
X042066Y026414D03*
X041066Y026414D03*
X041066Y025414D03*
X042066Y025414D03*
X042066Y024414D03*
X041066Y024414D03*
X041066Y023414D03*
X042066Y023414D03*
D14*
X040316Y032414D03*
X040316Y033414D03*
X038566Y033414D03*
X038566Y032414D03*
X029316Y032914D03*
X029316Y031914D03*
X029316Y030914D03*
X029316Y028914D03*
X029316Y027914D03*
X029316Y026914D03*
D15*
X043066Y019914D03*
X043066Y018914D03*
X043066Y017914D03*
X043066Y016914D03*
X043066Y015914D03*
X043066Y014914D03*
X043066Y013914D03*
X043066Y012914D03*
X043066Y011914D03*
X043066Y010914D03*
X043066Y009914D03*
X043066Y008914D03*
D16*
X036066Y015914D03*
X037566Y023664D03*
X034566Y023664D03*
X034566Y026664D03*
X037566Y026664D03*
X021566Y024414D03*
X020566Y024414D03*
X019566Y024414D03*
X018566Y024414D03*
X017566Y024414D03*
X016566Y024414D03*
X015566Y024414D03*
X014566Y024414D03*
X013566Y024414D03*
X012566Y024414D03*
X011566Y024414D03*
X010566Y024414D03*
X009566Y024414D03*
X008566Y024414D03*
X008566Y021414D03*
X009566Y021414D03*
X010566Y021414D03*
X011566Y021414D03*
X012566Y021414D03*
X013566Y021414D03*
X014566Y021414D03*
X015566Y021414D03*
X016566Y021414D03*
X017566Y021414D03*
X018566Y021414D03*
X019566Y021414D03*
X020566Y021414D03*
X021566Y021414D03*
X014566Y015914D03*
D17*
X015566Y015914D03*
X016566Y015914D03*
X016566Y016914D03*
X015566Y016914D03*
X014566Y016914D03*
X013566Y016914D03*
X012566Y016914D03*
X011566Y016914D03*
X011566Y015914D03*
X012566Y015914D03*
X013566Y015914D03*
X011566Y014914D03*
X010566Y014914D03*
X010566Y013914D03*
X011566Y013914D03*
X011566Y012914D03*
X010566Y012914D03*
X010566Y011914D03*
X011566Y011914D03*
X011566Y010914D03*
X012566Y010914D03*
X013566Y010914D03*
X014566Y010914D03*
X015566Y010914D03*
X016566Y010914D03*
X016566Y011914D03*
X016566Y012914D03*
X016566Y013914D03*
X016566Y014914D03*
X017566Y014914D03*
X017566Y013914D03*
X017566Y012914D03*
X017566Y011914D03*
X017566Y010914D03*
X016566Y009914D03*
X015566Y009914D03*
X014566Y009914D03*
X013566Y009914D03*
X012566Y009914D03*
X011566Y009914D03*
X010566Y010914D03*
X010566Y015914D03*
X017566Y015914D03*
X032066Y015914D03*
X033066Y015914D03*
X034066Y015914D03*
X035066Y015914D03*
X035066Y016914D03*
X036066Y016914D03*
X037066Y016914D03*
X038066Y016914D03*
X038066Y015914D03*
X039066Y015914D03*
X039066Y014914D03*
X038066Y014914D03*
X038066Y013914D03*
X039066Y013914D03*
X039066Y012914D03*
X038066Y012914D03*
X038066Y011914D03*
X039066Y011914D03*
X039066Y010914D03*
X038066Y010914D03*
X037066Y010914D03*
X036066Y010914D03*
X035066Y010914D03*
X034066Y010914D03*
X033066Y010914D03*
X033066Y011914D03*
X032066Y011914D03*
X032066Y010914D03*
X033066Y009914D03*
X034066Y009914D03*
X035066Y009914D03*
X036066Y009914D03*
X037066Y009914D03*
X038066Y009914D03*
X033066Y012914D03*
X032066Y012914D03*
X032066Y013914D03*
X032066Y014914D03*
X033066Y014914D03*
X033066Y013914D03*
X033066Y016914D03*
X034066Y016914D03*
X037066Y015914D03*
D18*
X023566Y026914D03*
X022566Y026914D03*
X021566Y026914D03*
X020566Y026914D03*
X019566Y026914D03*
X018566Y026914D03*
X017566Y026914D03*
X016566Y026914D03*
X015566Y026914D03*
X014566Y026914D03*
X013566Y026914D03*
X012566Y026914D03*
X011566Y026914D03*
X010566Y026914D03*
X010566Y032914D03*
X011566Y032914D03*
X012566Y032914D03*
X013566Y032914D03*
X014566Y032914D03*
X015566Y032914D03*
X016566Y032914D03*
X017566Y032914D03*
X018566Y032914D03*
X019566Y032914D03*
X020566Y032914D03*
X021566Y032914D03*
X022566Y032914D03*
X023566Y032914D03*
D19*
X006206Y003416D02*
X042426Y003416D01*
X041796Y004990D02*
X041798Y005040D01*
X041804Y005090D01*
X041814Y005139D01*
X041828Y005187D01*
X041845Y005234D01*
X041866Y005279D01*
X041891Y005323D01*
X041919Y005364D01*
X041951Y005403D01*
X041985Y005440D01*
X042022Y005474D01*
X042062Y005504D01*
X042104Y005531D01*
X042148Y005555D01*
X042194Y005576D01*
X042241Y005592D01*
X042289Y005605D01*
X042339Y005614D01*
X042388Y005619D01*
X042439Y005620D01*
X042489Y005617D01*
X042538Y005610D01*
X042587Y005599D01*
X042635Y005584D01*
X042681Y005566D01*
X042726Y005544D01*
X042769Y005518D01*
X042810Y005489D01*
X042849Y005457D01*
X042885Y005422D01*
X042917Y005384D01*
X042947Y005344D01*
X042974Y005301D01*
X042997Y005257D01*
X043016Y005211D01*
X043032Y005163D01*
X043044Y005114D01*
X043052Y005065D01*
X043056Y005015D01*
X043056Y004965D01*
X043052Y004915D01*
X043044Y004866D01*
X043032Y004817D01*
X043016Y004769D01*
X042997Y004723D01*
X042974Y004679D01*
X042947Y004636D01*
X042917Y004596D01*
X042885Y004558D01*
X042849Y004523D01*
X042810Y004491D01*
X042769Y004462D01*
X042726Y004436D01*
X042681Y004414D01*
X042635Y004396D01*
X042587Y004381D01*
X042538Y004370D01*
X042489Y004363D01*
X042439Y004360D01*
X042388Y004361D01*
X042339Y004366D01*
X042289Y004375D01*
X042241Y004388D01*
X042194Y004404D01*
X042148Y004425D01*
X042104Y004449D01*
X042062Y004476D01*
X042022Y004506D01*
X041985Y004540D01*
X041951Y004577D01*
X041919Y004616D01*
X041891Y004657D01*
X041866Y004701D01*
X041845Y004746D01*
X041828Y004793D01*
X041814Y004841D01*
X041804Y004890D01*
X041798Y004940D01*
X041796Y004990D01*
X042426Y003415D02*
X042503Y003417D01*
X042580Y003423D01*
X042657Y003432D01*
X042733Y003445D01*
X042809Y003462D01*
X042883Y003483D01*
X042957Y003507D01*
X043029Y003535D01*
X043099Y003566D01*
X043168Y003601D01*
X043236Y003639D01*
X043301Y003680D01*
X043364Y003725D01*
X043425Y003773D01*
X043484Y003823D01*
X043540Y003876D01*
X043593Y003932D01*
X043643Y003991D01*
X043691Y004052D01*
X043736Y004115D01*
X043777Y004180D01*
X043815Y004248D01*
X043850Y004317D01*
X043881Y004387D01*
X043909Y004459D01*
X043933Y004533D01*
X043954Y004607D01*
X043971Y004683D01*
X043984Y004759D01*
X043993Y004836D01*
X043999Y004913D01*
X044001Y004990D01*
X044001Y033337D01*
X041796Y033337D02*
X041798Y033387D01*
X041804Y033437D01*
X041814Y033486D01*
X041828Y033534D01*
X041845Y033581D01*
X041866Y033626D01*
X041891Y033670D01*
X041919Y033711D01*
X041951Y033750D01*
X041985Y033787D01*
X042022Y033821D01*
X042062Y033851D01*
X042104Y033878D01*
X042148Y033902D01*
X042194Y033923D01*
X042241Y033939D01*
X042289Y033952D01*
X042339Y033961D01*
X042388Y033966D01*
X042439Y033967D01*
X042489Y033964D01*
X042538Y033957D01*
X042587Y033946D01*
X042635Y033931D01*
X042681Y033913D01*
X042726Y033891D01*
X042769Y033865D01*
X042810Y033836D01*
X042849Y033804D01*
X042885Y033769D01*
X042917Y033731D01*
X042947Y033691D01*
X042974Y033648D01*
X042997Y033604D01*
X043016Y033558D01*
X043032Y033510D01*
X043044Y033461D01*
X043052Y033412D01*
X043056Y033362D01*
X043056Y033312D01*
X043052Y033262D01*
X043044Y033213D01*
X043032Y033164D01*
X043016Y033116D01*
X042997Y033070D01*
X042974Y033026D01*
X042947Y032983D01*
X042917Y032943D01*
X042885Y032905D01*
X042849Y032870D01*
X042810Y032838D01*
X042769Y032809D01*
X042726Y032783D01*
X042681Y032761D01*
X042635Y032743D01*
X042587Y032728D01*
X042538Y032717D01*
X042489Y032710D01*
X042439Y032707D01*
X042388Y032708D01*
X042339Y032713D01*
X042289Y032722D01*
X042241Y032735D01*
X042194Y032751D01*
X042148Y032772D01*
X042104Y032796D01*
X042062Y032823D01*
X042022Y032853D01*
X041985Y032887D01*
X041951Y032924D01*
X041919Y032963D01*
X041891Y033004D01*
X041866Y033048D01*
X041845Y033093D01*
X041828Y033140D01*
X041814Y033188D01*
X041804Y033237D01*
X041798Y033287D01*
X041796Y033337D01*
X042426Y034912D02*
X042503Y034910D01*
X042580Y034904D01*
X042657Y034895D01*
X042733Y034882D01*
X042809Y034865D01*
X042883Y034844D01*
X042957Y034820D01*
X043029Y034792D01*
X043099Y034761D01*
X043168Y034726D01*
X043236Y034688D01*
X043301Y034647D01*
X043364Y034602D01*
X043425Y034554D01*
X043484Y034504D01*
X043540Y034451D01*
X043593Y034395D01*
X043643Y034336D01*
X043691Y034275D01*
X043736Y034212D01*
X043777Y034147D01*
X043815Y034079D01*
X043850Y034010D01*
X043881Y033940D01*
X043909Y033868D01*
X043933Y033794D01*
X043954Y033720D01*
X043971Y033644D01*
X043984Y033568D01*
X043993Y033491D01*
X043999Y033414D01*
X044001Y033337D01*
X042426Y034912D02*
X006206Y034912D01*
X005576Y033337D02*
X005578Y033387D01*
X005584Y033437D01*
X005594Y033486D01*
X005608Y033534D01*
X005625Y033581D01*
X005646Y033626D01*
X005671Y033670D01*
X005699Y033711D01*
X005731Y033750D01*
X005765Y033787D01*
X005802Y033821D01*
X005842Y033851D01*
X005884Y033878D01*
X005928Y033902D01*
X005974Y033923D01*
X006021Y033939D01*
X006069Y033952D01*
X006119Y033961D01*
X006168Y033966D01*
X006219Y033967D01*
X006269Y033964D01*
X006318Y033957D01*
X006367Y033946D01*
X006415Y033931D01*
X006461Y033913D01*
X006506Y033891D01*
X006549Y033865D01*
X006590Y033836D01*
X006629Y033804D01*
X006665Y033769D01*
X006697Y033731D01*
X006727Y033691D01*
X006754Y033648D01*
X006777Y033604D01*
X006796Y033558D01*
X006812Y033510D01*
X006824Y033461D01*
X006832Y033412D01*
X006836Y033362D01*
X006836Y033312D01*
X006832Y033262D01*
X006824Y033213D01*
X006812Y033164D01*
X006796Y033116D01*
X006777Y033070D01*
X006754Y033026D01*
X006727Y032983D01*
X006697Y032943D01*
X006665Y032905D01*
X006629Y032870D01*
X006590Y032838D01*
X006549Y032809D01*
X006506Y032783D01*
X006461Y032761D01*
X006415Y032743D01*
X006367Y032728D01*
X006318Y032717D01*
X006269Y032710D01*
X006219Y032707D01*
X006168Y032708D01*
X006119Y032713D01*
X006069Y032722D01*
X006021Y032735D01*
X005974Y032751D01*
X005928Y032772D01*
X005884Y032796D01*
X005842Y032823D01*
X005802Y032853D01*
X005765Y032887D01*
X005731Y032924D01*
X005699Y032963D01*
X005671Y033004D01*
X005646Y033048D01*
X005625Y033093D01*
X005608Y033140D01*
X005594Y033188D01*
X005584Y033237D01*
X005578Y033287D01*
X005576Y033337D01*
X004631Y033337D02*
X004633Y033414D01*
X004639Y033491D01*
X004648Y033568D01*
X004661Y033644D01*
X004678Y033720D01*
X004699Y033794D01*
X004723Y033868D01*
X004751Y033940D01*
X004782Y034010D01*
X004817Y034079D01*
X004855Y034147D01*
X004896Y034212D01*
X004941Y034275D01*
X004989Y034336D01*
X005039Y034395D01*
X005092Y034451D01*
X005148Y034504D01*
X005207Y034554D01*
X005268Y034602D01*
X005331Y034647D01*
X005396Y034688D01*
X005464Y034726D01*
X005533Y034761D01*
X005603Y034792D01*
X005675Y034820D01*
X005749Y034844D01*
X005823Y034865D01*
X005899Y034882D01*
X005975Y034895D01*
X006052Y034904D01*
X006129Y034910D01*
X006206Y034912D01*
X004631Y033337D02*
X004631Y004990D01*
X005576Y004990D02*
X005578Y005040D01*
X005584Y005090D01*
X005594Y005139D01*
X005608Y005187D01*
X005625Y005234D01*
X005646Y005279D01*
X005671Y005323D01*
X005699Y005364D01*
X005731Y005403D01*
X005765Y005440D01*
X005802Y005474D01*
X005842Y005504D01*
X005884Y005531D01*
X005928Y005555D01*
X005974Y005576D01*
X006021Y005592D01*
X006069Y005605D01*
X006119Y005614D01*
X006168Y005619D01*
X006219Y005620D01*
X006269Y005617D01*
X006318Y005610D01*
X006367Y005599D01*
X006415Y005584D01*
X006461Y005566D01*
X006506Y005544D01*
X006549Y005518D01*
X006590Y005489D01*
X006629Y005457D01*
X006665Y005422D01*
X006697Y005384D01*
X006727Y005344D01*
X006754Y005301D01*
X006777Y005257D01*
X006796Y005211D01*
X006812Y005163D01*
X006824Y005114D01*
X006832Y005065D01*
X006836Y005015D01*
X006836Y004965D01*
X006832Y004915D01*
X006824Y004866D01*
X006812Y004817D01*
X006796Y004769D01*
X006777Y004723D01*
X006754Y004679D01*
X006727Y004636D01*
X006697Y004596D01*
X006665Y004558D01*
X006629Y004523D01*
X006590Y004491D01*
X006549Y004462D01*
X006506Y004436D01*
X006461Y004414D01*
X006415Y004396D01*
X006367Y004381D01*
X006318Y004370D01*
X006269Y004363D01*
X006219Y004360D01*
X006168Y004361D01*
X006119Y004366D01*
X006069Y004375D01*
X006021Y004388D01*
X005974Y004404D01*
X005928Y004425D01*
X005884Y004449D01*
X005842Y004476D01*
X005802Y004506D01*
X005765Y004540D01*
X005731Y004577D01*
X005699Y004616D01*
X005671Y004657D01*
X005646Y004701D01*
X005625Y004746D01*
X005608Y004793D01*
X005594Y004841D01*
X005584Y004890D01*
X005578Y004940D01*
X005576Y004990D01*
X004631Y004990D02*
X004633Y004913D01*
X004639Y004836D01*
X004648Y004759D01*
X004661Y004683D01*
X004678Y004607D01*
X004699Y004533D01*
X004723Y004459D01*
X004751Y004387D01*
X004782Y004317D01*
X004817Y004248D01*
X004855Y004180D01*
X004896Y004115D01*
X004941Y004052D01*
X004989Y003991D01*
X005039Y003932D01*
X005092Y003876D01*
X005148Y003823D01*
X005207Y003773D01*
X005268Y003725D01*
X005331Y003680D01*
X005396Y003639D01*
X005464Y003601D01*
X005533Y003566D01*
X005603Y003535D01*
X005675Y003507D01*
X005749Y003483D01*
X005823Y003462D01*
X005899Y003445D01*
X005975Y003432D01*
X006052Y003423D01*
X006129Y003417D01*
X006206Y003415D01*
D20*
X006206Y004990D03*
X042426Y004990D03*
X042426Y033337D03*
X006206Y033337D03*
D21*
X014566Y005414D03*
X015566Y005414D03*
X016566Y005414D03*
X017566Y005414D03*
X018566Y005414D03*
X019566Y005414D03*
X020566Y005414D03*
X021566Y005414D03*
X022566Y005414D03*
X023566Y005414D03*
X024566Y005414D03*
X025566Y005414D03*
X026566Y005414D03*
X027566Y005414D03*
X028566Y005414D03*
X029566Y005414D03*
X030566Y005414D03*
X031566Y005414D03*
X032566Y005414D03*
X033566Y005414D03*
X033566Y004414D03*
X032566Y004414D03*
X031566Y004414D03*
X030566Y004414D03*
X029566Y004414D03*
X028566Y004414D03*
X027566Y004414D03*
X026566Y004414D03*
X025566Y004414D03*
X024566Y004414D03*
X023566Y004414D03*
X022566Y004414D03*
X021566Y004414D03*
X020566Y004414D03*
X019566Y004414D03*
X018566Y004414D03*
X017566Y004414D03*
X016566Y004414D03*
X015566Y004414D03*
X014566Y004414D03*
D22*
X039859Y029620D02*
X040066Y029620D01*
X039859Y029620D01*
X040066Y029620D01*
X039859Y029620D01*
X039851Y029628D02*
X040066Y029628D01*
X039851Y029628D01*
X040066Y029628D01*
X039851Y029628D01*
X039842Y029637D02*
X040066Y029637D01*
X039842Y029637D01*
X040066Y029637D01*
X039842Y029637D01*
X039834Y029645D02*
X040066Y029645D01*
X039834Y029645D01*
X040066Y029645D01*
X039834Y029645D01*
X039825Y029654D02*
X040066Y029654D01*
X039825Y029654D01*
X040066Y029654D01*
X039825Y029654D01*
X039817Y029662D02*
X040066Y029662D01*
X039817Y029662D01*
X040066Y029662D01*
X039817Y029662D01*
X039808Y029671D02*
X040066Y029671D01*
X039808Y029671D01*
X040066Y029671D01*
X039808Y029671D01*
X039800Y029679D02*
X040066Y029679D01*
X039800Y029679D01*
X040066Y029679D01*
X039800Y029679D01*
X039791Y029688D02*
X040066Y029688D01*
X039791Y029688D01*
X040066Y029688D01*
X039791Y029688D01*
X039783Y029696D02*
X040066Y029696D01*
X039783Y029696D01*
X040066Y029696D01*
X039783Y029696D01*
X039774Y029705D02*
X040066Y029705D01*
X039774Y029705D01*
X040066Y029705D01*
X039774Y029705D01*
X039766Y029713D02*
X040066Y029713D01*
X039766Y029713D01*
X040066Y029713D01*
X039766Y029713D01*
X039757Y029722D02*
X040066Y029722D01*
X039757Y029722D01*
X040066Y029722D01*
X039757Y029722D01*
X039749Y029730D02*
X040066Y029730D01*
X039749Y029730D01*
X040066Y029730D01*
X039749Y029730D01*
X039740Y029739D02*
X040066Y029739D01*
X039740Y029739D01*
X040066Y029739D01*
X039740Y029739D01*
X039732Y029747D02*
X040066Y029747D01*
X039732Y029747D01*
X040066Y029747D01*
X039732Y029747D01*
X039723Y029756D02*
X040066Y029756D01*
X039723Y029756D01*
X040066Y029756D01*
X039723Y029756D01*
X039715Y029764D02*
X040066Y029764D01*
X039715Y029764D01*
X040066Y029764D01*
X039715Y029764D01*
X039706Y029773D02*
X040066Y029773D01*
X039706Y029773D01*
X040066Y029773D01*
X039706Y029773D01*
X039706Y029774D02*
X040066Y029414D01*
X040066Y031134D01*
X038786Y031134D01*
X038786Y030214D01*
X039146Y029854D01*
X039696Y029854D01*
X039696Y030214D01*
X039266Y030214D01*
X039146Y030334D01*
X038786Y030334D01*
X039146Y030334D01*
X038786Y030334D01*
X039146Y030334D01*
X039146Y030774D01*
X039706Y030774D01*
X039706Y029774D01*
X040066Y029414D01*
X040066Y031134D01*
X038786Y031134D01*
X038786Y030214D01*
X039146Y029854D01*
X039696Y029854D01*
X039696Y030214D01*
X039266Y030214D01*
X039146Y030334D01*
X039146Y030774D01*
X039706Y030774D01*
X039706Y029774D01*
X040066Y029414D01*
X040066Y031134D01*
X038786Y031134D01*
X038786Y030214D01*
X039146Y029854D01*
X039696Y029854D01*
X039696Y030214D01*
X039266Y030214D01*
X039146Y030334D01*
X039146Y030774D01*
X039706Y030774D01*
X039706Y029774D01*
X040066Y029414D01*
X040066Y031134D01*
X038786Y031134D01*
X038786Y030214D01*
X039146Y029854D01*
X039696Y029854D01*
X039696Y030214D01*
X039266Y030214D01*
X039146Y030334D01*
X039146Y030774D01*
X039706Y030774D01*
X039706Y029774D01*
X039706Y029781D02*
X040066Y029781D01*
X039706Y029781D01*
X040066Y029781D01*
X039706Y029781D01*
X039706Y029790D02*
X040066Y029790D01*
X039706Y029790D01*
X040066Y029790D01*
X039706Y029790D01*
X039706Y029798D02*
X040066Y029798D01*
X039706Y029798D01*
X040066Y029798D01*
X039706Y029798D01*
X039706Y029807D02*
X040066Y029807D01*
X039706Y029807D01*
X040066Y029807D01*
X039706Y029807D01*
X039706Y029815D02*
X040066Y029815D01*
X039706Y029815D01*
X040066Y029815D01*
X039706Y029815D01*
X039706Y029824D02*
X040066Y029824D01*
X039706Y029824D01*
X040066Y029824D01*
X039706Y029824D01*
X039706Y029832D02*
X040066Y029832D01*
X039706Y029832D01*
X040066Y029832D01*
X039706Y029832D01*
X039706Y029841D02*
X040066Y029841D01*
X039706Y029841D01*
X040066Y029841D01*
X039706Y029841D01*
X039706Y029849D02*
X040066Y029849D01*
X039706Y029849D01*
X040066Y029849D01*
X039706Y029849D01*
X039706Y029858D02*
X040066Y029858D01*
X039706Y029858D01*
X040066Y029858D01*
X039706Y029858D01*
X039706Y029866D02*
X040066Y029866D01*
X039706Y029866D01*
X040066Y029866D01*
X039706Y029866D01*
X039706Y029875D02*
X040066Y029875D01*
X039706Y029875D01*
X040066Y029875D01*
X039706Y029875D01*
X039706Y029883D02*
X040066Y029883D01*
X039706Y029883D01*
X040066Y029883D01*
X039706Y029883D01*
X039706Y029892D02*
X040066Y029892D01*
X039706Y029892D01*
X040066Y029892D01*
X039706Y029892D01*
X039706Y029900D02*
X040066Y029900D01*
X039706Y029900D01*
X040066Y029900D01*
X039706Y029900D01*
X039706Y029909D02*
X040066Y029909D01*
X039706Y029909D01*
X040066Y029909D01*
X039706Y029909D01*
X039706Y029917D02*
X040066Y029917D01*
X039706Y029917D01*
X040066Y029917D01*
X039706Y029917D01*
X039706Y029926D02*
X040066Y029926D01*
X039706Y029926D01*
X040066Y029926D01*
X039706Y029926D01*
X039706Y029934D02*
X040066Y029934D01*
X039706Y029934D01*
X040066Y029934D01*
X039706Y029934D01*
X039706Y029943D02*
X040066Y029943D01*
X039706Y029943D01*
X040066Y029943D01*
X039706Y029943D01*
X039706Y029951D02*
X040066Y029951D01*
X039706Y029951D01*
X040066Y029951D01*
X039706Y029951D01*
X039706Y029960D02*
X040066Y029960D01*
X039706Y029960D01*
X040066Y029960D01*
X039706Y029960D01*
X039706Y029968D02*
X040066Y029968D01*
X039706Y029968D01*
X040066Y029968D01*
X039706Y029968D01*
X039706Y029977D02*
X040066Y029977D01*
X039706Y029977D01*
X040066Y029977D01*
X039706Y029977D01*
X039706Y029985D02*
X040066Y029985D01*
X039706Y029985D01*
X040066Y029985D01*
X039706Y029985D01*
X039706Y029994D02*
X040066Y029994D01*
X039706Y029994D01*
X040066Y029994D01*
X039706Y029994D01*
X039706Y030002D02*
X040066Y030002D01*
X039706Y030002D01*
X040066Y030002D01*
X039706Y030002D01*
X039706Y030011D02*
X040066Y030011D01*
X039706Y030011D01*
X040066Y030011D01*
X039706Y030011D01*
X039706Y030019D02*
X040066Y030019D01*
X039706Y030019D01*
X040066Y030019D01*
X039706Y030019D01*
X039706Y030028D02*
X040066Y030028D01*
X039706Y030028D01*
X040066Y030028D01*
X039706Y030028D01*
X039706Y030036D02*
X040066Y030036D01*
X039706Y030036D01*
X040066Y030036D01*
X039706Y030036D01*
X039706Y030045D02*
X040066Y030045D01*
X039706Y030045D01*
X040066Y030045D01*
X039706Y030045D01*
X039706Y030053D02*
X040066Y030053D01*
X039706Y030053D01*
X040066Y030053D01*
X039706Y030053D01*
X039706Y030062D02*
X040066Y030062D01*
X039706Y030062D01*
X040066Y030062D01*
X039706Y030062D01*
X039706Y030070D02*
X040066Y030070D01*
X039706Y030070D01*
X040066Y030070D01*
X039706Y030070D01*
X039706Y030079D02*
X040066Y030079D01*
X039706Y030079D01*
X040066Y030079D01*
X039706Y030079D01*
X039706Y030087D02*
X040066Y030087D01*
X039706Y030087D01*
X040066Y030087D01*
X039706Y030087D01*
X039706Y030096D02*
X040066Y030096D01*
X039706Y030096D01*
X040066Y030096D01*
X039706Y030096D01*
X039706Y030104D02*
X040066Y030104D01*
X039706Y030104D01*
X040066Y030104D01*
X039706Y030104D01*
X039706Y030113D02*
X040066Y030113D01*
X039706Y030113D01*
X040066Y030113D01*
X039706Y030113D01*
X039706Y030121D02*
X040066Y030121D01*
X039706Y030121D01*
X040066Y030121D01*
X039706Y030121D01*
X039706Y030130D02*
X040066Y030130D01*
X039706Y030130D01*
X040066Y030130D01*
X039706Y030130D01*
X039706Y030138D02*
X040066Y030138D01*
X039706Y030138D01*
X040066Y030138D01*
X039706Y030138D01*
X039706Y030147D02*
X040066Y030147D01*
X039706Y030147D01*
X040066Y030147D01*
X039706Y030147D01*
X039706Y030155D02*
X040066Y030155D01*
X039706Y030155D01*
X040066Y030155D01*
X039706Y030155D01*
X039706Y030164D02*
X040066Y030164D01*
X039706Y030164D01*
X040066Y030164D01*
X039706Y030164D01*
X039706Y030172D02*
X040066Y030172D01*
X039706Y030172D01*
X040066Y030172D01*
X039706Y030172D01*
X039706Y030181D02*
X040066Y030181D01*
X039706Y030181D01*
X040066Y030181D01*
X039706Y030181D01*
X039706Y030189D02*
X040066Y030189D01*
X039706Y030189D01*
X040066Y030189D01*
X039706Y030189D01*
X039706Y030198D02*
X040066Y030198D01*
X039706Y030198D01*
X040066Y030198D01*
X039706Y030198D01*
X039706Y030206D02*
X040066Y030206D01*
X039706Y030206D01*
X040066Y030206D01*
X039706Y030206D01*
X039706Y030215D02*
X040066Y030215D01*
X039706Y030215D01*
X040066Y030215D01*
X039706Y030215D01*
X039706Y030223D02*
X040066Y030223D01*
X039706Y030223D01*
X040066Y030223D01*
X039706Y030223D01*
X039706Y030232D02*
X040066Y030232D01*
X039706Y030232D01*
X040066Y030232D01*
X039706Y030232D01*
X039706Y030240D02*
X040066Y030240D01*
X039706Y030240D01*
X040066Y030240D01*
X039706Y030240D01*
X039706Y030249D02*
X040066Y030249D01*
X039706Y030249D01*
X040066Y030249D01*
X039706Y030249D01*
X039706Y030257D02*
X040066Y030257D01*
X039706Y030257D01*
X040066Y030257D01*
X039706Y030257D01*
X039706Y030266D02*
X040066Y030266D01*
X039706Y030266D01*
X040066Y030266D01*
X039706Y030266D01*
X039706Y030274D02*
X040066Y030274D01*
X039706Y030274D01*
X040066Y030274D01*
X039706Y030274D01*
X039706Y030283D02*
X040066Y030283D01*
X039706Y030283D01*
X040066Y030283D01*
X039706Y030283D01*
X039706Y030291D02*
X040066Y030291D01*
X039706Y030291D01*
X040066Y030291D01*
X039706Y030291D01*
X039706Y030300D02*
X040066Y030300D01*
X039706Y030300D01*
X040066Y030300D01*
X039706Y030300D01*
X039706Y030308D02*
X040066Y030308D01*
X039706Y030308D01*
X040066Y030308D01*
X039706Y030308D01*
X039706Y030317D02*
X040066Y030317D01*
X039706Y030317D01*
X040066Y030317D01*
X039706Y030317D01*
X039706Y030325D02*
X040066Y030325D01*
X039706Y030325D01*
X040066Y030325D01*
X039706Y030325D01*
X039706Y030334D02*
X040066Y030334D01*
X039706Y030334D01*
X040066Y030334D01*
X039706Y030334D01*
X039706Y030342D02*
X040066Y030342D01*
X039706Y030342D01*
X040066Y030342D01*
X039706Y030342D01*
X039706Y030351D02*
X040066Y030351D01*
X039706Y030351D01*
X040066Y030351D01*
X039706Y030351D01*
X039706Y030359D02*
X040066Y030359D01*
X039706Y030359D01*
X040066Y030359D01*
X039706Y030359D01*
X039706Y030368D02*
X040066Y030368D01*
X039706Y030368D01*
X040066Y030368D01*
X039706Y030368D01*
X039706Y030376D02*
X040066Y030376D01*
X039706Y030376D01*
X040066Y030376D01*
X039706Y030376D01*
X039706Y030385D02*
X040066Y030385D01*
X039706Y030385D01*
X040066Y030385D01*
X039706Y030385D01*
X039706Y030393D02*
X040066Y030393D01*
X039706Y030393D01*
X040066Y030393D01*
X039706Y030393D01*
X039706Y030402D02*
X040066Y030402D01*
X039706Y030402D01*
X040066Y030402D01*
X039706Y030402D01*
X039706Y030410D02*
X040066Y030410D01*
X039706Y030410D01*
X040066Y030410D01*
X039706Y030410D01*
X039706Y030419D02*
X040066Y030419D01*
X039706Y030419D01*
X040066Y030419D01*
X039706Y030419D01*
X039706Y030427D02*
X040066Y030427D01*
X039706Y030427D01*
X040066Y030427D01*
X039706Y030427D01*
X039706Y030436D02*
X040066Y030436D01*
X039706Y030436D01*
X040066Y030436D01*
X039706Y030436D01*
X039706Y030444D02*
X040066Y030444D01*
X039706Y030444D01*
X040066Y030444D01*
X039706Y030444D01*
X039706Y030453D02*
X040066Y030453D01*
X039706Y030453D01*
X040066Y030453D01*
X039706Y030453D01*
X039706Y030461D02*
X040066Y030461D01*
X039706Y030461D01*
X040066Y030461D01*
X039706Y030461D01*
X039706Y030470D02*
X040066Y030470D01*
X039706Y030470D01*
X040066Y030470D01*
X039706Y030470D01*
X039706Y030478D02*
X040066Y030478D01*
X039706Y030478D01*
X040066Y030478D01*
X039706Y030478D01*
X039706Y030487D02*
X040066Y030487D01*
X039706Y030487D01*
X040066Y030487D01*
X039706Y030487D01*
X039706Y030495D02*
X040066Y030495D01*
X039706Y030495D01*
X040066Y030495D01*
X039706Y030495D01*
X039706Y030504D02*
X040066Y030504D01*
X039706Y030504D01*
X040066Y030504D01*
X039706Y030504D01*
X039706Y030512D02*
X040066Y030512D01*
X039706Y030512D01*
X040066Y030512D01*
X039706Y030512D01*
X039706Y030521D02*
X040066Y030521D01*
X039706Y030521D01*
X040066Y030521D01*
X039706Y030521D01*
X039706Y030529D02*
X040066Y030529D01*
X039706Y030529D01*
X040066Y030529D01*
X039706Y030529D01*
X039706Y030538D02*
X040066Y030538D01*
X039706Y030538D01*
X040066Y030538D01*
X039706Y030538D01*
X039706Y030546D02*
X040066Y030546D01*
X039706Y030546D01*
X040066Y030546D01*
X039706Y030546D01*
X039706Y030555D02*
X040066Y030555D01*
X039706Y030555D01*
X040066Y030555D01*
X039706Y030555D01*
X039706Y030563D02*
X040066Y030563D01*
X039706Y030563D01*
X040066Y030563D01*
X039706Y030563D01*
X039706Y030572D02*
X040066Y030572D01*
X039706Y030572D01*
X040066Y030572D01*
X039706Y030572D01*
X039706Y030580D02*
X040066Y030580D01*
X039706Y030580D01*
X040066Y030580D01*
X039706Y030580D01*
X039706Y030589D02*
X040066Y030589D01*
X039706Y030589D01*
X040066Y030589D01*
X039706Y030589D01*
X039706Y030597D02*
X040066Y030597D01*
X039706Y030597D01*
X040066Y030597D01*
X039706Y030597D01*
X039706Y030606D02*
X040066Y030606D01*
X039706Y030606D01*
X040066Y030606D01*
X039706Y030606D01*
X039706Y030614D02*
X040066Y030614D01*
X039706Y030614D01*
X040066Y030614D01*
X039706Y030614D01*
X039706Y030623D02*
X040066Y030623D01*
X039706Y030623D01*
X040066Y030623D01*
X039706Y030623D01*
X039706Y030631D02*
X040066Y030631D01*
X039706Y030631D01*
X040066Y030631D01*
X039706Y030631D01*
X039706Y030640D02*
X040066Y030640D01*
X039706Y030640D01*
X040066Y030640D01*
X039706Y030640D01*
X039706Y030648D02*
X040066Y030648D01*
X039706Y030648D01*
X040066Y030648D01*
X039706Y030648D01*
X039706Y030657D02*
X040066Y030657D01*
X039706Y030657D01*
X040066Y030657D01*
X039706Y030657D01*
X039706Y030665D02*
X040066Y030665D01*
X039706Y030665D01*
X040066Y030665D01*
X039706Y030665D01*
X039706Y030674D02*
X040066Y030674D01*
X039706Y030674D01*
X040066Y030674D01*
X039706Y030674D01*
X039706Y030682D02*
X040066Y030682D01*
X039706Y030682D01*
X040066Y030682D01*
X039706Y030682D01*
X039706Y030691D02*
X040066Y030691D01*
X039706Y030691D01*
X040066Y030691D01*
X039706Y030691D01*
X039706Y030699D02*
X040066Y030699D01*
X039706Y030699D01*
X040066Y030699D01*
X039706Y030699D01*
X039706Y030708D02*
X040066Y030708D01*
X039706Y030708D01*
X040066Y030708D01*
X039706Y030708D01*
X039706Y030716D02*
X040066Y030716D01*
X039706Y030716D01*
X040066Y030716D01*
X039706Y030716D01*
X039706Y030725D02*
X040066Y030725D01*
X039706Y030725D01*
X040066Y030725D01*
X039706Y030725D01*
X039706Y030733D02*
X040066Y030733D01*
X039706Y030733D01*
X040066Y030733D01*
X039706Y030733D01*
X039706Y030742D02*
X040066Y030742D01*
X039706Y030742D01*
X040066Y030742D01*
X039706Y030742D01*
X039706Y030750D02*
X040066Y030750D01*
X039706Y030750D01*
X040066Y030750D01*
X039706Y030750D01*
X039706Y030759D02*
X040066Y030759D01*
X039706Y030759D01*
X040066Y030759D01*
X039706Y030759D01*
X039706Y030767D02*
X040066Y030767D01*
X039706Y030767D01*
X040066Y030767D01*
X039706Y030767D01*
X040066Y030776D02*
X038786Y030776D01*
X040066Y030776D01*
X038786Y030776D01*
X040066Y030776D01*
X040066Y030784D02*
X038786Y030784D01*
X040066Y030784D01*
X038786Y030784D01*
X040066Y030784D01*
X040066Y030793D02*
X038786Y030793D01*
X040066Y030793D01*
X038786Y030793D01*
X040066Y030793D01*
X040066Y030801D02*
X038786Y030801D01*
X040066Y030801D01*
X038786Y030801D01*
X040066Y030801D01*
X040066Y030810D02*
X038786Y030810D01*
X040066Y030810D01*
X038786Y030810D01*
X040066Y030810D01*
X040066Y030818D02*
X038786Y030818D01*
X040066Y030818D01*
X038786Y030818D01*
X040066Y030818D01*
X040066Y030827D02*
X038786Y030827D01*
X040066Y030827D01*
X038786Y030827D01*
X040066Y030827D01*
X040066Y030835D02*
X038786Y030835D01*
X040066Y030835D01*
X038786Y030835D01*
X040066Y030835D01*
X040066Y030844D02*
X038786Y030844D01*
X040066Y030844D01*
X038786Y030844D01*
X040066Y030844D01*
X040066Y030852D02*
X038786Y030852D01*
X040066Y030852D01*
X038786Y030852D01*
X040066Y030852D01*
X040066Y030861D02*
X038786Y030861D01*
X040066Y030861D01*
X038786Y030861D01*
X040066Y030861D01*
X040066Y030869D02*
X038786Y030869D01*
X040066Y030869D01*
X038786Y030869D01*
X040066Y030869D01*
X040066Y030878D02*
X038786Y030878D01*
X040066Y030878D01*
X038786Y030878D01*
X040066Y030878D01*
X040066Y030886D02*
X038786Y030886D01*
X040066Y030886D01*
X038786Y030886D01*
X040066Y030886D01*
X040066Y030895D02*
X038786Y030895D01*
X040066Y030895D01*
X038786Y030895D01*
X040066Y030895D01*
X040066Y030903D02*
X038786Y030903D01*
X040066Y030903D01*
X038786Y030903D01*
X040066Y030903D01*
X040066Y030912D02*
X038786Y030912D01*
X040066Y030912D01*
X038786Y030912D01*
X040066Y030912D01*
X040066Y030920D02*
X038786Y030920D01*
X040066Y030920D01*
X038786Y030920D01*
X040066Y030920D01*
X040066Y030929D02*
X038786Y030929D01*
X040066Y030929D01*
X038786Y030929D01*
X040066Y030929D01*
X040066Y030937D02*
X038786Y030937D01*
X040066Y030937D01*
X038786Y030937D01*
X040066Y030937D01*
X040066Y030946D02*
X038786Y030946D01*
X040066Y030946D01*
X038786Y030946D01*
X040066Y030946D01*
X040066Y030954D02*
X038786Y030954D01*
X040066Y030954D01*
X038786Y030954D01*
X040066Y030954D01*
X040066Y030963D02*
X038786Y030963D01*
X040066Y030963D01*
X038786Y030963D01*
X040066Y030963D01*
X040066Y030971D02*
X038786Y030971D01*
X040066Y030971D01*
X038786Y030971D01*
X040066Y030971D01*
X040066Y030980D02*
X038786Y030980D01*
X040066Y030980D01*
X038786Y030980D01*
X040066Y030980D01*
X040066Y030988D02*
X038786Y030988D01*
X040066Y030988D01*
X038786Y030988D01*
X040066Y030988D01*
X040066Y030997D02*
X038786Y030997D01*
X040066Y030997D01*
X038786Y030997D01*
X040066Y030997D01*
X040066Y031005D02*
X038786Y031005D01*
X040066Y031005D01*
X038786Y031005D01*
X040066Y031005D01*
X040066Y031014D02*
X038786Y031014D01*
X040066Y031014D01*
X038786Y031014D01*
X040066Y031014D01*
X040066Y031022D02*
X038786Y031022D01*
X040066Y031022D01*
X038786Y031022D01*
X040066Y031022D01*
X040066Y031031D02*
X038786Y031031D01*
X040066Y031031D01*
X038786Y031031D01*
X040066Y031031D01*
X040066Y031039D02*
X038786Y031039D01*
X040066Y031039D01*
X038786Y031039D01*
X040066Y031039D01*
X040066Y031048D02*
X038786Y031048D01*
X040066Y031048D01*
X038786Y031048D01*
X040066Y031048D01*
X040066Y031056D02*
X038786Y031056D01*
X040066Y031056D01*
X038786Y031056D01*
X040066Y031056D01*
X040066Y031065D02*
X038786Y031065D01*
X040066Y031065D01*
X038786Y031065D01*
X040066Y031065D01*
X040066Y031073D02*
X038786Y031073D01*
X040066Y031073D01*
X038786Y031073D01*
X040066Y031073D01*
X040066Y031082D02*
X038786Y031082D01*
X040066Y031082D01*
X038786Y031082D01*
X040066Y031082D01*
X040066Y031090D02*
X038786Y031090D01*
X040066Y031090D01*
X038786Y031090D01*
X040066Y031090D01*
X040066Y031099D02*
X038786Y031099D01*
X040066Y031099D01*
X038786Y031099D01*
X040066Y031099D01*
X040066Y031107D02*
X038786Y031107D01*
X040066Y031107D01*
X038786Y031107D01*
X040066Y031107D01*
X040066Y031116D02*
X038786Y031116D01*
X040066Y031116D01*
X038786Y031116D01*
X040066Y031116D01*
X040066Y031124D02*
X038786Y031124D01*
X040066Y031124D01*
X038786Y031124D01*
X040066Y031124D01*
X040066Y031133D02*
X038786Y031133D01*
X040066Y031133D01*
X038786Y031133D01*
X040066Y031133D01*
X039146Y030767D02*
X038786Y030767D01*
X039146Y030767D01*
X038786Y030767D01*
X039146Y030767D01*
X039146Y030759D02*
X038786Y030759D01*
X039146Y030759D01*
X038786Y030759D01*
X039146Y030759D01*
X039146Y030750D02*
X038786Y030750D01*
X039146Y030750D01*
X038786Y030750D01*
X039146Y030750D01*
X039146Y030742D02*
X038786Y030742D01*
X039146Y030742D01*
X038786Y030742D01*
X039146Y030742D01*
X039146Y030733D02*
X038786Y030733D01*
X039146Y030733D01*
X038786Y030733D01*
X039146Y030733D01*
X039146Y030725D02*
X038786Y030725D01*
X039146Y030725D01*
X038786Y030725D01*
X039146Y030725D01*
X039146Y030716D02*
X038786Y030716D01*
X039146Y030716D01*
X038786Y030716D01*
X039146Y030716D01*
X039146Y030708D02*
X038786Y030708D01*
X039146Y030708D01*
X038786Y030708D01*
X039146Y030708D01*
X039146Y030699D02*
X038786Y030699D01*
X039146Y030699D01*
X038786Y030699D01*
X039146Y030699D01*
X039146Y030691D02*
X038786Y030691D01*
X039146Y030691D01*
X038786Y030691D01*
X039146Y030691D01*
X039146Y030682D02*
X038786Y030682D01*
X039146Y030682D01*
X038786Y030682D01*
X039146Y030682D01*
X039146Y030674D02*
X038786Y030674D01*
X039146Y030674D01*
X038786Y030674D01*
X039146Y030674D01*
X039146Y030665D02*
X038786Y030665D01*
X039146Y030665D01*
X038786Y030665D01*
X039146Y030665D01*
X039146Y030657D02*
X038786Y030657D01*
X039146Y030657D01*
X038786Y030657D01*
X039146Y030657D01*
X039146Y030648D02*
X038786Y030648D01*
X039146Y030648D01*
X038786Y030648D01*
X039146Y030648D01*
X039146Y030640D02*
X038786Y030640D01*
X039146Y030640D01*
X038786Y030640D01*
X039146Y030640D01*
X039146Y030631D02*
X038786Y030631D01*
X039146Y030631D01*
X038786Y030631D01*
X039146Y030631D01*
X039146Y030623D02*
X038786Y030623D01*
X039146Y030623D01*
X038786Y030623D01*
X039146Y030623D01*
X039146Y030614D02*
X038786Y030614D01*
X039146Y030614D01*
X038786Y030614D01*
X039146Y030614D01*
X039146Y030606D02*
X038786Y030606D01*
X039146Y030606D01*
X038786Y030606D01*
X039146Y030606D01*
X039146Y030597D02*
X038786Y030597D01*
X039146Y030597D01*
X038786Y030597D01*
X039146Y030597D01*
X039146Y030589D02*
X038786Y030589D01*
X039146Y030589D01*
X038786Y030589D01*
X039146Y030589D01*
X039146Y030580D02*
X038786Y030580D01*
X039146Y030580D01*
X038786Y030580D01*
X039146Y030580D01*
X039146Y030572D02*
X038786Y030572D01*
X039146Y030572D01*
X038786Y030572D01*
X039146Y030572D01*
X039146Y030563D02*
X038786Y030563D01*
X039146Y030563D01*
X038786Y030563D01*
X039146Y030563D01*
X039146Y030555D02*
X038786Y030555D01*
X039146Y030555D01*
X038786Y030555D01*
X039146Y030555D01*
X039146Y030546D02*
X038786Y030546D01*
X039146Y030546D01*
X038786Y030546D01*
X039146Y030546D01*
X039146Y030538D02*
X038786Y030538D01*
X039146Y030538D01*
X038786Y030538D01*
X039146Y030538D01*
X039146Y030529D02*
X038786Y030529D01*
X039146Y030529D01*
X038786Y030529D01*
X039146Y030529D01*
X039146Y030521D02*
X038786Y030521D01*
X039146Y030521D01*
X038786Y030521D01*
X039146Y030521D01*
X039146Y030512D02*
X038786Y030512D01*
X039146Y030512D01*
X038786Y030512D01*
X039146Y030512D01*
X039146Y030504D02*
X038786Y030504D01*
X039146Y030504D01*
X038786Y030504D01*
X039146Y030504D01*
X039146Y030495D02*
X038786Y030495D01*
X039146Y030495D01*
X038786Y030495D01*
X039146Y030495D01*
X039146Y030487D02*
X038786Y030487D01*
X039146Y030487D01*
X038786Y030487D01*
X039146Y030487D01*
X039146Y030478D02*
X038786Y030478D01*
X039146Y030478D01*
X038786Y030478D01*
X039146Y030478D01*
X039146Y030470D02*
X038786Y030470D01*
X039146Y030470D01*
X038786Y030470D01*
X039146Y030470D01*
X039146Y030461D02*
X038786Y030461D01*
X039146Y030461D01*
X038786Y030461D01*
X039146Y030461D01*
X039146Y030453D02*
X038786Y030453D01*
X039146Y030453D01*
X038786Y030453D01*
X039146Y030453D01*
X039146Y030444D02*
X038786Y030444D01*
X039146Y030444D01*
X038786Y030444D01*
X039146Y030444D01*
X039146Y030436D02*
X038786Y030436D01*
X039146Y030436D01*
X038786Y030436D01*
X039146Y030436D01*
X039146Y030427D02*
X038786Y030427D01*
X039146Y030427D01*
X038786Y030427D01*
X039146Y030427D01*
X039146Y030419D02*
X038786Y030419D01*
X039146Y030419D01*
X038786Y030419D01*
X039146Y030419D01*
X039146Y030410D02*
X038786Y030410D01*
X039146Y030410D01*
X038786Y030410D01*
X039146Y030410D01*
X039146Y030402D02*
X038786Y030402D01*
X039146Y030402D01*
X038786Y030402D01*
X039146Y030402D01*
X039146Y030393D02*
X038786Y030393D01*
X039146Y030393D01*
X038786Y030393D01*
X039146Y030393D01*
X039146Y030385D02*
X038786Y030385D01*
X039146Y030385D01*
X038786Y030385D01*
X039146Y030385D01*
X039146Y030376D02*
X038786Y030376D01*
X039146Y030376D01*
X038786Y030376D01*
X039146Y030376D01*
X039146Y030368D02*
X038786Y030368D01*
X039146Y030368D01*
X038786Y030368D01*
X039146Y030368D01*
X039146Y030359D02*
X038786Y030359D01*
X039146Y030359D01*
X038786Y030359D01*
X039146Y030359D01*
X039146Y030351D02*
X038786Y030351D01*
X039146Y030351D01*
X038786Y030351D01*
X039146Y030351D01*
X039146Y030342D02*
X038786Y030342D01*
X039146Y030342D01*
X038786Y030342D01*
X039146Y030342D01*
X039154Y030325D02*
X038786Y030325D01*
X039154Y030325D01*
X038786Y030325D01*
X039154Y030325D01*
X039162Y030317D02*
X038786Y030317D01*
X039162Y030317D01*
X038786Y030317D01*
X039162Y030317D01*
X039171Y030308D02*
X038786Y030308D01*
X039171Y030308D01*
X038786Y030308D01*
X039171Y030308D01*
X039179Y030300D02*
X038786Y030300D01*
X039179Y030300D01*
X038786Y030300D01*
X039179Y030300D01*
X039188Y030291D02*
X038786Y030291D01*
X039188Y030291D01*
X038786Y030291D01*
X039188Y030291D01*
X039196Y030283D02*
X038786Y030283D01*
X039196Y030283D01*
X038786Y030283D01*
X039196Y030283D01*
X039205Y030274D02*
X038786Y030274D01*
X039205Y030274D01*
X038786Y030274D01*
X039205Y030274D01*
X039213Y030266D02*
X038786Y030266D01*
X039213Y030266D01*
X038786Y030266D01*
X039213Y030266D01*
X039222Y030257D02*
X038786Y030257D01*
X039222Y030257D01*
X038786Y030257D01*
X039222Y030257D01*
X039230Y030249D02*
X038786Y030249D01*
X039230Y030249D01*
X038786Y030249D01*
X039230Y030249D01*
X039239Y030240D02*
X038786Y030240D01*
X039239Y030240D01*
X038786Y030240D01*
X039239Y030240D01*
X039247Y030232D02*
X038786Y030232D01*
X039247Y030232D01*
X038786Y030232D01*
X039247Y030232D01*
X039256Y030223D02*
X038786Y030223D01*
X039256Y030223D01*
X038786Y030223D01*
X039256Y030223D01*
X039264Y030215D02*
X038786Y030215D01*
X039264Y030215D01*
X038786Y030215D01*
X039264Y030215D01*
X039022Y029977D02*
X039696Y029977D01*
X039022Y029977D01*
X039696Y029977D01*
X039022Y029977D01*
X039014Y029985D02*
X039696Y029985D01*
X039014Y029985D01*
X039696Y029985D01*
X039014Y029985D01*
X039005Y029994D02*
X039696Y029994D01*
X039005Y029994D01*
X039696Y029994D01*
X039005Y029994D01*
X038997Y030002D02*
X039696Y030002D01*
X038997Y030002D01*
X039696Y030002D01*
X038997Y030002D01*
X038988Y030011D02*
X039696Y030011D01*
X038988Y030011D01*
X039696Y030011D01*
X038988Y030011D01*
X038980Y030019D02*
X039696Y030019D01*
X038980Y030019D01*
X039696Y030019D01*
X038980Y030019D01*
X038971Y030028D02*
X039696Y030028D01*
X038971Y030028D01*
X039696Y030028D01*
X038971Y030028D01*
X038963Y030036D02*
X039696Y030036D01*
X038963Y030036D01*
X039696Y030036D01*
X038963Y030036D01*
X038954Y030045D02*
X039696Y030045D01*
X038954Y030045D01*
X039696Y030045D01*
X038954Y030045D01*
X038946Y030053D02*
X039696Y030053D01*
X038946Y030053D01*
X039696Y030053D01*
X038946Y030053D01*
X038937Y030062D02*
X039696Y030062D01*
X038937Y030062D01*
X039696Y030062D01*
X038937Y030062D01*
X038929Y030070D02*
X039696Y030070D01*
X038929Y030070D01*
X039696Y030070D01*
X038929Y030070D01*
X038920Y030079D02*
X039696Y030079D01*
X038920Y030079D01*
X039696Y030079D01*
X038920Y030079D01*
X038912Y030087D02*
X039696Y030087D01*
X038912Y030087D01*
X039696Y030087D01*
X038912Y030087D01*
X038903Y030096D02*
X039696Y030096D01*
X038903Y030096D01*
X039696Y030096D01*
X038903Y030096D01*
X038895Y030104D02*
X039696Y030104D01*
X038895Y030104D01*
X039696Y030104D01*
X038895Y030104D01*
X038886Y030113D02*
X039696Y030113D01*
X038886Y030113D01*
X039696Y030113D01*
X038886Y030113D01*
X038878Y030121D02*
X039696Y030121D01*
X038878Y030121D01*
X039696Y030121D01*
X038878Y030121D01*
X038869Y030130D02*
X039696Y030130D01*
X038869Y030130D01*
X039696Y030130D01*
X038869Y030130D01*
X038861Y030138D02*
X039696Y030138D01*
X038861Y030138D01*
X039696Y030138D01*
X038861Y030138D01*
X038852Y030147D02*
X039696Y030147D01*
X038852Y030147D01*
X039696Y030147D01*
X038852Y030147D01*
X038844Y030155D02*
X039696Y030155D01*
X038844Y030155D01*
X039696Y030155D01*
X038844Y030155D01*
X038835Y030164D02*
X039696Y030164D01*
X038835Y030164D01*
X039696Y030164D01*
X038835Y030164D01*
X038827Y030172D02*
X039696Y030172D01*
X038827Y030172D01*
X039696Y030172D01*
X038827Y030172D01*
X038818Y030181D02*
X039696Y030181D01*
X038818Y030181D01*
X039696Y030181D01*
X038818Y030181D01*
X038810Y030189D02*
X039696Y030189D01*
X038810Y030189D01*
X039696Y030189D01*
X038810Y030189D01*
X038801Y030198D02*
X039696Y030198D01*
X038801Y030198D01*
X039696Y030198D01*
X038801Y030198D01*
X038793Y030206D02*
X039696Y030206D01*
X038793Y030206D01*
X039696Y030206D01*
X038793Y030206D01*
X038666Y030206D02*
X037386Y030206D01*
X038666Y030206D01*
X037386Y030206D01*
X038666Y030206D01*
X038666Y030198D02*
X037386Y030198D01*
X038666Y030198D01*
X037386Y030198D01*
X038666Y030198D01*
X038666Y030189D02*
X037386Y030189D01*
X038666Y030189D01*
X037386Y030189D01*
X038666Y030189D01*
X038666Y030181D02*
X037386Y030181D01*
X038666Y030181D01*
X037386Y030181D01*
X038666Y030181D01*
X038666Y030172D02*
X037386Y030172D01*
X038666Y030172D01*
X037386Y030172D01*
X038666Y030172D01*
X038666Y030164D02*
X037386Y030164D01*
X038666Y030164D01*
X037386Y030164D01*
X038666Y030164D01*
X038666Y030155D02*
X037386Y030155D01*
X038666Y030155D01*
X037386Y030155D01*
X038666Y030155D01*
X038666Y030147D02*
X037386Y030147D01*
X038666Y030147D01*
X037386Y030147D01*
X038666Y030147D01*
X038666Y030138D02*
X037386Y030138D01*
X038666Y030138D01*
X037386Y030138D01*
X038666Y030138D01*
X038666Y030130D02*
X037386Y030130D01*
X038666Y030130D01*
X037386Y030130D01*
X038666Y030130D01*
X038666Y030121D02*
X037386Y030121D01*
X038666Y030121D01*
X037386Y030121D01*
X038666Y030121D01*
X038666Y030113D02*
X037386Y030113D01*
X038666Y030113D01*
X037386Y030113D01*
X038666Y030113D01*
X038666Y030104D02*
X037386Y030104D01*
X038666Y030104D01*
X037386Y030104D01*
X038666Y030104D01*
X038666Y030096D02*
X037386Y030096D01*
X038666Y030096D01*
X037386Y030096D01*
X038666Y030096D01*
X038666Y030087D02*
X037386Y030087D01*
X038666Y030087D01*
X037386Y030087D01*
X038666Y030087D01*
X038666Y030079D02*
X037386Y030079D01*
X038666Y030079D01*
X037386Y030079D01*
X038666Y030079D01*
X038666Y030070D02*
X037386Y030070D01*
X038666Y030070D01*
X037386Y030070D01*
X038666Y030070D01*
X038666Y030062D02*
X037386Y030062D01*
X038666Y030062D01*
X037386Y030062D01*
X038666Y030062D01*
X038666Y030053D02*
X037386Y030053D01*
X038666Y030053D01*
X037386Y030053D01*
X038666Y030053D01*
X038666Y030045D02*
X037386Y030045D01*
X038666Y030045D01*
X037386Y030045D01*
X038666Y030045D01*
X038666Y030036D02*
X037386Y030036D01*
X038666Y030036D01*
X037386Y030036D01*
X038666Y030036D01*
X038666Y030028D02*
X037386Y030028D01*
X038666Y030028D01*
X037386Y030028D01*
X038666Y030028D01*
X038666Y030019D02*
X037386Y030019D01*
X038666Y030019D01*
X037386Y030019D01*
X038666Y030019D01*
X038666Y030011D02*
X037386Y030011D01*
X038666Y030011D01*
X037386Y030011D01*
X038666Y030011D01*
X038666Y030002D02*
X037386Y030002D01*
X038666Y030002D01*
X037386Y030002D01*
X038666Y030002D01*
X038666Y029994D02*
X037386Y029994D01*
X038666Y029994D01*
X037386Y029994D01*
X038666Y029994D01*
X038666Y029985D02*
X037386Y029985D01*
X038666Y029985D01*
X037386Y029985D01*
X038666Y029985D01*
X038666Y029977D02*
X037386Y029977D01*
X038666Y029977D01*
X037386Y029977D01*
X038666Y029977D01*
X038666Y029968D02*
X037386Y029968D01*
X038666Y029968D01*
X037386Y029968D01*
X038666Y029968D01*
X038666Y029960D02*
X037386Y029960D01*
X038666Y029960D01*
X037386Y029960D01*
X038666Y029960D01*
X038666Y029951D02*
X037386Y029951D01*
X038666Y029951D01*
X037386Y029951D01*
X038666Y029951D01*
X038666Y029943D02*
X037386Y029943D01*
X038666Y029943D01*
X037386Y029943D01*
X038666Y029943D01*
X038666Y029934D02*
X037386Y029934D01*
X038666Y029934D01*
X037386Y029934D01*
X038666Y029934D01*
X038666Y029926D02*
X037386Y029926D01*
X038666Y029926D01*
X037386Y029926D01*
X038666Y029926D01*
X038666Y029917D02*
X037386Y029917D01*
X038666Y029917D01*
X037386Y029917D01*
X038666Y029917D01*
X038666Y029909D02*
X037386Y029909D01*
X038666Y029909D01*
X037386Y029909D01*
X038666Y029909D01*
X038666Y029900D02*
X037386Y029900D01*
X038666Y029900D01*
X037386Y029900D01*
X038666Y029900D01*
X038666Y029892D02*
X037386Y029892D01*
X038666Y029892D01*
X037386Y029892D01*
X038666Y029892D01*
X038666Y029883D02*
X037386Y029883D01*
X038666Y029883D01*
X037386Y029883D01*
X038666Y029883D01*
X038666Y029875D02*
X037386Y029875D01*
X038666Y029875D01*
X037386Y029875D01*
X038666Y029875D01*
X038666Y029866D02*
X037386Y029866D01*
X038666Y029866D01*
X037386Y029866D01*
X038666Y029866D01*
X038666Y029858D02*
X037386Y029858D01*
X038666Y029858D01*
X037386Y029858D01*
X038666Y029858D01*
X038666Y029854D02*
X037386Y029854D01*
X037386Y031614D01*
X037746Y031254D01*
X037746Y030214D01*
X038306Y030214D01*
X038306Y030654D01*
X038186Y030774D01*
X037756Y030774D01*
X037756Y031134D01*
X038346Y031134D01*
X038666Y030814D01*
X038666Y029854D01*
X037386Y029854D01*
X037386Y031614D01*
X037746Y031254D01*
X037746Y030214D01*
X038306Y030214D01*
X038306Y030654D01*
X038186Y030774D01*
X037756Y030774D01*
X037756Y031134D01*
X038346Y031134D01*
X038666Y030814D01*
X038666Y029854D01*
X037386Y029854D01*
X037386Y031614D01*
X037746Y031254D01*
X037746Y030214D01*
X038306Y030214D01*
X038306Y030654D01*
X038186Y030774D01*
X037756Y030774D01*
X037756Y031134D01*
X038346Y031134D01*
X038666Y030814D01*
X038666Y029854D01*
X037386Y029854D01*
X037386Y031614D01*
X037746Y031254D01*
X037746Y030214D01*
X038306Y030214D01*
X038306Y030654D01*
X038186Y030774D01*
X037756Y030774D01*
X037756Y031134D01*
X038346Y031134D01*
X038666Y030814D01*
X038666Y029854D01*
X038666Y030215D02*
X038306Y030215D01*
X038666Y030215D01*
X038306Y030215D01*
X038666Y030215D01*
X038666Y030223D02*
X038306Y030223D01*
X038666Y030223D01*
X038306Y030223D01*
X038666Y030223D01*
X038666Y030232D02*
X038306Y030232D01*
X038666Y030232D01*
X038306Y030232D01*
X038666Y030232D01*
X038666Y030240D02*
X038306Y030240D01*
X038666Y030240D01*
X038306Y030240D01*
X038666Y030240D01*
X038666Y030249D02*
X038306Y030249D01*
X038666Y030249D01*
X038306Y030249D01*
X038666Y030249D01*
X038666Y030257D02*
X038306Y030257D01*
X038666Y030257D01*
X038306Y030257D01*
X038666Y030257D01*
X038666Y030266D02*
X038306Y030266D01*
X038666Y030266D01*
X038306Y030266D01*
X038666Y030266D01*
X038666Y030274D02*
X038306Y030274D01*
X038666Y030274D01*
X038306Y030274D01*
X038666Y030274D01*
X038666Y030283D02*
X038306Y030283D01*
X038666Y030283D01*
X038306Y030283D01*
X038666Y030283D01*
X038666Y030291D02*
X038306Y030291D01*
X038666Y030291D01*
X038306Y030291D01*
X038666Y030291D01*
X038666Y030300D02*
X038306Y030300D01*
X038666Y030300D01*
X038306Y030300D01*
X038666Y030300D01*
X038666Y030308D02*
X038306Y030308D01*
X038666Y030308D01*
X038306Y030308D01*
X038666Y030308D01*
X038666Y030317D02*
X038306Y030317D01*
X038666Y030317D01*
X038306Y030317D01*
X038666Y030317D01*
X038666Y030325D02*
X038306Y030325D01*
X038666Y030325D01*
X038306Y030325D01*
X038666Y030325D01*
X038666Y030334D02*
X038306Y030334D01*
X038666Y030334D01*
X038306Y030334D01*
X038666Y030334D01*
X038666Y030342D02*
X038306Y030342D01*
X038666Y030342D01*
X038306Y030342D01*
X038666Y030342D01*
X038666Y030351D02*
X038306Y030351D01*
X038666Y030351D01*
X038306Y030351D01*
X038666Y030351D01*
X038666Y030359D02*
X038306Y030359D01*
X038666Y030359D01*
X038306Y030359D01*
X038666Y030359D01*
X038666Y030368D02*
X038306Y030368D01*
X038666Y030368D01*
X038306Y030368D01*
X038666Y030368D01*
X038666Y030376D02*
X038306Y030376D01*
X038666Y030376D01*
X038306Y030376D01*
X038666Y030376D01*
X038666Y030385D02*
X038306Y030385D01*
X038666Y030385D01*
X038306Y030385D01*
X038666Y030385D01*
X038666Y030393D02*
X038306Y030393D01*
X038666Y030393D01*
X038306Y030393D01*
X038666Y030393D01*
X038666Y030402D02*
X038306Y030402D01*
X038666Y030402D01*
X038306Y030402D01*
X038666Y030402D01*
X038666Y030410D02*
X038306Y030410D01*
X038666Y030410D01*
X038306Y030410D01*
X038666Y030410D01*
X038666Y030419D02*
X038306Y030419D01*
X038666Y030419D01*
X038306Y030419D01*
X038666Y030419D01*
X038666Y030427D02*
X038306Y030427D01*
X038666Y030427D01*
X038306Y030427D01*
X038666Y030427D01*
X038666Y030436D02*
X038306Y030436D01*
X038666Y030436D01*
X038306Y030436D01*
X038666Y030436D01*
X038666Y030444D02*
X038306Y030444D01*
X038666Y030444D01*
X038306Y030444D01*
X038666Y030444D01*
X038666Y030453D02*
X038306Y030453D01*
X038666Y030453D01*
X038306Y030453D01*
X038666Y030453D01*
X038666Y030461D02*
X038306Y030461D01*
X038666Y030461D01*
X038306Y030461D01*
X038666Y030461D01*
X038666Y030470D02*
X038306Y030470D01*
X038666Y030470D01*
X038306Y030470D01*
X038666Y030470D01*
X038666Y030478D02*
X038306Y030478D01*
X038666Y030478D01*
X038306Y030478D01*
X038666Y030478D01*
X038666Y030487D02*
X038306Y030487D01*
X038666Y030487D01*
X038306Y030487D01*
X038666Y030487D01*
X038666Y030495D02*
X038306Y030495D01*
X038666Y030495D01*
X038306Y030495D01*
X038666Y030495D01*
X038666Y030504D02*
X038306Y030504D01*
X038666Y030504D01*
X038306Y030504D01*
X038666Y030504D01*
X038666Y030512D02*
X038306Y030512D01*
X038666Y030512D01*
X038306Y030512D01*
X038666Y030512D01*
X038666Y030521D02*
X038306Y030521D01*
X038666Y030521D01*
X038306Y030521D01*
X038666Y030521D01*
X038666Y030529D02*
X038306Y030529D01*
X038666Y030529D01*
X038306Y030529D01*
X038666Y030529D01*
X038666Y030538D02*
X038306Y030538D01*
X038666Y030538D01*
X038306Y030538D01*
X038666Y030538D01*
X038666Y030546D02*
X038306Y030546D01*
X038666Y030546D01*
X038306Y030546D01*
X038666Y030546D01*
X038666Y030555D02*
X038306Y030555D01*
X038666Y030555D01*
X038306Y030555D01*
X038666Y030555D01*
X038666Y030563D02*
X038306Y030563D01*
X038666Y030563D01*
X038306Y030563D01*
X038666Y030563D01*
X038666Y030572D02*
X038306Y030572D01*
X038666Y030572D01*
X038306Y030572D01*
X038666Y030572D01*
X038666Y030580D02*
X038306Y030580D01*
X038666Y030580D01*
X038306Y030580D01*
X038666Y030580D01*
X038666Y030589D02*
X038306Y030589D01*
X038666Y030589D01*
X038306Y030589D01*
X038666Y030589D01*
X038666Y030597D02*
X038306Y030597D01*
X038666Y030597D01*
X038306Y030597D01*
X038666Y030597D01*
X038666Y030606D02*
X038306Y030606D01*
X038666Y030606D01*
X038306Y030606D01*
X038666Y030606D01*
X038666Y030614D02*
X038306Y030614D01*
X038666Y030614D01*
X038306Y030614D01*
X038666Y030614D01*
X038666Y030623D02*
X038306Y030623D01*
X038666Y030623D01*
X038306Y030623D01*
X038666Y030623D01*
X038666Y030631D02*
X038306Y030631D01*
X038666Y030631D01*
X038306Y030631D01*
X038666Y030631D01*
X038666Y030640D02*
X038306Y030640D01*
X038666Y030640D01*
X038306Y030640D01*
X038666Y030640D01*
X038666Y030648D02*
X038306Y030648D01*
X038666Y030648D01*
X038306Y030648D01*
X038666Y030648D01*
X038666Y030657D02*
X038302Y030657D01*
X038666Y030657D01*
X038302Y030657D01*
X038666Y030657D01*
X038666Y030665D02*
X038294Y030665D01*
X038666Y030665D01*
X038294Y030665D01*
X038666Y030665D01*
X038666Y030674D02*
X038285Y030674D01*
X038666Y030674D01*
X038285Y030674D01*
X038666Y030674D01*
X038666Y030682D02*
X038277Y030682D01*
X038666Y030682D01*
X038277Y030682D01*
X038666Y030682D01*
X038666Y030691D02*
X038268Y030691D01*
X038666Y030691D01*
X038268Y030691D01*
X038666Y030691D01*
X038666Y030699D02*
X038260Y030699D01*
X038666Y030699D01*
X038260Y030699D01*
X038666Y030699D01*
X038666Y030708D02*
X038251Y030708D01*
X038666Y030708D01*
X038251Y030708D01*
X038666Y030708D01*
X038666Y030716D02*
X038243Y030716D01*
X038666Y030716D01*
X038243Y030716D01*
X038666Y030716D01*
X038666Y030725D02*
X038234Y030725D01*
X038666Y030725D01*
X038234Y030725D01*
X038666Y030725D01*
X038666Y030733D02*
X038226Y030733D01*
X038666Y030733D01*
X038226Y030733D01*
X038666Y030733D01*
X038666Y030742D02*
X038217Y030742D01*
X038666Y030742D01*
X038217Y030742D01*
X038666Y030742D01*
X038666Y030750D02*
X038209Y030750D01*
X038666Y030750D01*
X038209Y030750D01*
X038666Y030750D01*
X038666Y030759D02*
X038200Y030759D01*
X038666Y030759D01*
X038200Y030759D01*
X038666Y030759D01*
X038666Y030767D02*
X038192Y030767D01*
X038666Y030767D01*
X038192Y030767D01*
X038666Y030767D01*
X038666Y030776D02*
X037756Y030776D01*
X038666Y030776D01*
X037756Y030776D01*
X038666Y030776D01*
X038666Y030784D02*
X037756Y030784D01*
X038666Y030784D01*
X037756Y030784D01*
X038666Y030784D01*
X038666Y030793D02*
X037756Y030793D01*
X038666Y030793D01*
X037756Y030793D01*
X038666Y030793D01*
X038666Y030801D02*
X037756Y030801D01*
X038666Y030801D01*
X037756Y030801D01*
X038666Y030801D01*
X038666Y030810D02*
X037756Y030810D01*
X038666Y030810D01*
X037756Y030810D01*
X038666Y030810D01*
X038661Y030818D02*
X037756Y030818D01*
X038661Y030818D01*
X037756Y030818D01*
X038661Y030818D01*
X038652Y030827D02*
X037756Y030827D01*
X038652Y030827D01*
X037756Y030827D01*
X038652Y030827D01*
X038644Y030835D02*
X037756Y030835D01*
X038644Y030835D01*
X037756Y030835D01*
X038644Y030835D01*
X038635Y030844D02*
X037756Y030844D01*
X038635Y030844D01*
X037756Y030844D01*
X038635Y030844D01*
X038627Y030852D02*
X037756Y030852D01*
X038627Y030852D01*
X037756Y030852D01*
X038627Y030852D01*
X038618Y030861D02*
X037756Y030861D01*
X038618Y030861D01*
X037756Y030861D01*
X038618Y030861D01*
X038610Y030869D02*
X037756Y030869D01*
X038610Y030869D01*
X037756Y030869D01*
X038610Y030869D01*
X038601Y030878D02*
X037756Y030878D01*
X038601Y030878D01*
X037756Y030878D01*
X038601Y030878D01*
X038593Y030886D02*
X037756Y030886D01*
X038593Y030886D01*
X037756Y030886D01*
X038593Y030886D01*
X038584Y030895D02*
X037756Y030895D01*
X038584Y030895D01*
X037756Y030895D01*
X038584Y030895D01*
X038576Y030903D02*
X037756Y030903D01*
X038576Y030903D01*
X037756Y030903D01*
X038576Y030903D01*
X038567Y030912D02*
X037756Y030912D01*
X038567Y030912D01*
X037756Y030912D01*
X038567Y030912D01*
X038559Y030920D02*
X037756Y030920D01*
X038559Y030920D01*
X037756Y030920D01*
X038559Y030920D01*
X038550Y030929D02*
X037756Y030929D01*
X038550Y030929D01*
X037756Y030929D01*
X038550Y030929D01*
X038542Y030937D02*
X037756Y030937D01*
X038542Y030937D01*
X037756Y030937D01*
X038542Y030937D01*
X038533Y030946D02*
X037756Y030946D01*
X038533Y030946D01*
X037756Y030946D01*
X038533Y030946D01*
X038525Y030954D02*
X037756Y030954D01*
X038525Y030954D01*
X037756Y030954D01*
X038525Y030954D01*
X038516Y030963D02*
X037756Y030963D01*
X038516Y030963D01*
X037756Y030963D01*
X038516Y030963D01*
X038508Y030971D02*
X037756Y030971D01*
X038508Y030971D01*
X037756Y030971D01*
X038508Y030971D01*
X038499Y030980D02*
X037756Y030980D01*
X038499Y030980D01*
X037756Y030980D01*
X038499Y030980D01*
X038491Y030988D02*
X037756Y030988D01*
X038491Y030988D01*
X037756Y030988D01*
X038491Y030988D01*
X038482Y030997D02*
X037756Y030997D01*
X038482Y030997D01*
X037756Y030997D01*
X038482Y030997D01*
X038474Y031005D02*
X037756Y031005D01*
X038474Y031005D01*
X037756Y031005D01*
X038474Y031005D01*
X038465Y031014D02*
X037756Y031014D01*
X038465Y031014D01*
X037756Y031014D01*
X038465Y031014D01*
X038457Y031022D02*
X037756Y031022D01*
X038457Y031022D01*
X037756Y031022D01*
X038457Y031022D01*
X038448Y031031D02*
X037756Y031031D01*
X038448Y031031D01*
X037756Y031031D01*
X038448Y031031D01*
X038440Y031039D02*
X037756Y031039D01*
X038440Y031039D01*
X037756Y031039D01*
X038440Y031039D01*
X038431Y031048D02*
X037756Y031048D01*
X038431Y031048D01*
X037756Y031048D01*
X038431Y031048D01*
X038423Y031056D02*
X037756Y031056D01*
X038423Y031056D01*
X037756Y031056D01*
X038423Y031056D01*
X038414Y031065D02*
X037756Y031065D01*
X038414Y031065D01*
X037756Y031065D01*
X038414Y031065D01*
X038406Y031073D02*
X037756Y031073D01*
X038406Y031073D01*
X037756Y031073D01*
X038406Y031073D01*
X038397Y031082D02*
X037756Y031082D01*
X038397Y031082D01*
X037756Y031082D01*
X038397Y031082D01*
X038389Y031090D02*
X037756Y031090D01*
X038389Y031090D01*
X037756Y031090D01*
X038389Y031090D01*
X038380Y031099D02*
X037756Y031099D01*
X038380Y031099D01*
X037756Y031099D01*
X038380Y031099D01*
X038372Y031107D02*
X037756Y031107D01*
X038372Y031107D01*
X037756Y031107D01*
X038372Y031107D01*
X038363Y031116D02*
X037756Y031116D01*
X038363Y031116D01*
X037756Y031116D01*
X038363Y031116D01*
X038355Y031124D02*
X037756Y031124D01*
X038355Y031124D01*
X037756Y031124D01*
X038355Y031124D01*
X038346Y031133D02*
X037756Y031133D01*
X038346Y031133D01*
X037756Y031133D01*
X038346Y031133D01*
X037746Y031133D02*
X037386Y031133D01*
X037746Y031133D01*
X037386Y031133D01*
X037746Y031133D01*
X037746Y031141D02*
X037386Y031141D01*
X037746Y031141D01*
X037386Y031141D01*
X037746Y031141D01*
X037746Y031150D02*
X037386Y031150D01*
X037746Y031150D01*
X037386Y031150D01*
X037746Y031150D01*
X037746Y031158D02*
X037386Y031158D01*
X037746Y031158D01*
X037386Y031158D01*
X037746Y031158D01*
X037746Y031167D02*
X037386Y031167D01*
X037746Y031167D01*
X037386Y031167D01*
X037746Y031167D01*
X037746Y031175D02*
X037386Y031175D01*
X037746Y031175D01*
X037386Y031175D01*
X037746Y031175D01*
X037746Y031184D02*
X037386Y031184D01*
X037746Y031184D01*
X037386Y031184D01*
X037746Y031184D01*
X037746Y031192D02*
X037386Y031192D01*
X037746Y031192D01*
X037386Y031192D01*
X037746Y031192D01*
X037746Y031201D02*
X037386Y031201D01*
X037746Y031201D01*
X037386Y031201D01*
X037746Y031201D01*
X037746Y031209D02*
X037386Y031209D01*
X037746Y031209D01*
X037386Y031209D01*
X037746Y031209D01*
X037746Y031218D02*
X037386Y031218D01*
X037746Y031218D01*
X037386Y031218D01*
X037746Y031218D01*
X037746Y031226D02*
X037386Y031226D01*
X037746Y031226D01*
X037386Y031226D01*
X037746Y031226D01*
X037746Y031235D02*
X037386Y031235D01*
X037746Y031235D01*
X037386Y031235D01*
X037746Y031235D01*
X037746Y031243D02*
X037386Y031243D01*
X037746Y031243D01*
X037386Y031243D01*
X037746Y031243D01*
X037746Y031252D02*
X037386Y031252D01*
X037746Y031252D01*
X037386Y031252D01*
X037746Y031252D01*
X037739Y031260D02*
X037386Y031260D01*
X037739Y031260D01*
X037386Y031260D01*
X037739Y031260D01*
X037730Y031269D02*
X037386Y031269D01*
X037730Y031269D01*
X037386Y031269D01*
X037730Y031269D01*
X037722Y031277D02*
X037386Y031277D01*
X037722Y031277D01*
X037386Y031277D01*
X037722Y031277D01*
X037713Y031286D02*
X037386Y031286D01*
X037713Y031286D01*
X037386Y031286D01*
X037713Y031286D01*
X037705Y031294D02*
X037386Y031294D01*
X037705Y031294D01*
X037386Y031294D01*
X037705Y031294D01*
X037696Y031303D02*
X037386Y031303D01*
X037696Y031303D01*
X037386Y031303D01*
X037696Y031303D01*
X037688Y031311D02*
X037386Y031311D01*
X037688Y031311D01*
X037386Y031311D01*
X037688Y031311D01*
X037679Y031320D02*
X037386Y031320D01*
X037679Y031320D01*
X037386Y031320D01*
X037679Y031320D01*
X037671Y031328D02*
X037386Y031328D01*
X037671Y031328D01*
X037386Y031328D01*
X037671Y031328D01*
X037662Y031337D02*
X037386Y031337D01*
X037662Y031337D01*
X037386Y031337D01*
X037662Y031337D01*
X037654Y031345D02*
X037386Y031345D01*
X037654Y031345D01*
X037386Y031345D01*
X037654Y031345D01*
X037645Y031354D02*
X037386Y031354D01*
X037645Y031354D01*
X037386Y031354D01*
X037645Y031354D01*
X037637Y031362D02*
X037386Y031362D01*
X037637Y031362D01*
X037386Y031362D01*
X037637Y031362D01*
X037628Y031371D02*
X037386Y031371D01*
X037628Y031371D01*
X037386Y031371D01*
X037628Y031371D01*
X037620Y031379D02*
X037386Y031379D01*
X037620Y031379D01*
X037386Y031379D01*
X037620Y031379D01*
X037611Y031388D02*
X037386Y031388D01*
X037611Y031388D01*
X037386Y031388D01*
X037611Y031388D01*
X037603Y031396D02*
X037386Y031396D01*
X037603Y031396D01*
X037386Y031396D01*
X037603Y031396D01*
X037594Y031405D02*
X037386Y031405D01*
X037594Y031405D01*
X037386Y031405D01*
X037594Y031405D01*
X037586Y031413D02*
X037386Y031413D01*
X037586Y031413D01*
X037386Y031413D01*
X037586Y031413D01*
X037577Y031422D02*
X037386Y031422D01*
X037577Y031422D01*
X037386Y031422D01*
X037577Y031422D01*
X037569Y031430D02*
X037386Y031430D01*
X037569Y031430D01*
X037386Y031430D01*
X037569Y031430D01*
X037560Y031439D02*
X037386Y031439D01*
X037560Y031439D01*
X037386Y031439D01*
X037560Y031439D01*
X037552Y031447D02*
X037386Y031447D01*
X037552Y031447D01*
X037386Y031447D01*
X037552Y031447D01*
X037543Y031456D02*
X037386Y031456D01*
X037543Y031456D01*
X037386Y031456D01*
X037543Y031456D01*
X037535Y031464D02*
X037386Y031464D01*
X037535Y031464D01*
X037386Y031464D01*
X037535Y031464D01*
X037526Y031473D02*
X037386Y031473D01*
X037526Y031473D01*
X037386Y031473D01*
X037526Y031473D01*
X037518Y031481D02*
X037386Y031481D01*
X037518Y031481D01*
X037386Y031481D01*
X037518Y031481D01*
X037509Y031490D02*
X037386Y031490D01*
X037509Y031490D01*
X037386Y031490D01*
X037509Y031490D01*
X037501Y031498D02*
X037386Y031498D01*
X037501Y031498D01*
X037386Y031498D01*
X037501Y031498D01*
X037492Y031507D02*
X037386Y031507D01*
X037492Y031507D01*
X037386Y031507D01*
X037492Y031507D01*
X037484Y031515D02*
X037386Y031515D01*
X037484Y031515D01*
X037386Y031515D01*
X037484Y031515D01*
X037475Y031524D02*
X037386Y031524D01*
X037475Y031524D01*
X037386Y031524D01*
X037475Y031524D01*
X037467Y031532D02*
X037386Y031532D01*
X037467Y031532D01*
X037386Y031532D01*
X037467Y031532D01*
X037458Y031541D02*
X037386Y031541D01*
X037458Y031541D01*
X037386Y031541D01*
X037458Y031541D01*
X037450Y031549D02*
X037386Y031549D01*
X037450Y031549D01*
X037386Y031549D01*
X037450Y031549D01*
X037441Y031558D02*
X037386Y031558D01*
X037441Y031558D01*
X037386Y031558D01*
X037441Y031558D01*
X037433Y031566D02*
X037386Y031566D01*
X037433Y031566D01*
X037386Y031566D01*
X037433Y031566D01*
X037424Y031575D02*
X037386Y031575D01*
X037424Y031575D01*
X037386Y031575D01*
X037424Y031575D01*
X037416Y031583D02*
X037386Y031583D01*
X037416Y031583D01*
X037386Y031583D01*
X037416Y031583D01*
X037407Y031592D02*
X037386Y031592D01*
X037407Y031592D01*
X037386Y031592D01*
X037407Y031592D01*
X037399Y031600D02*
X037386Y031600D01*
X037399Y031600D01*
X037386Y031600D01*
X037399Y031600D01*
X037390Y031609D02*
X037386Y031609D01*
X037390Y031609D01*
X037386Y031609D01*
X037390Y031609D01*
X036906Y031133D02*
X035986Y031133D01*
X036906Y031133D01*
X035986Y031133D01*
X036906Y031133D01*
X036906Y031134D02*
X035986Y031134D01*
X035986Y029854D01*
X036346Y029854D01*
X036346Y030774D01*
X036786Y030774D01*
X036906Y030654D01*
X036906Y030214D01*
X036466Y030214D01*
X036466Y029854D01*
X037266Y029854D01*
X037266Y030774D01*
X036906Y031134D01*
X035986Y031134D01*
X035986Y029854D01*
X036346Y029854D01*
X036346Y030774D01*
X036786Y030774D01*
X036906Y030654D01*
X036906Y030214D01*
X036466Y030214D01*
X036466Y029854D01*
X037266Y029854D01*
X037266Y030774D01*
X036906Y031134D01*
X035986Y031134D01*
X035986Y029854D01*
X036346Y029854D01*
X036346Y030774D01*
X036786Y030774D01*
X036906Y030654D01*
X036906Y030214D01*
X036466Y030214D01*
X036466Y029854D01*
X037266Y029854D01*
X037266Y030774D01*
X036906Y031134D01*
X035986Y031134D01*
X035986Y029854D01*
X036346Y029854D01*
X036346Y030774D01*
X036786Y030774D01*
X036906Y030654D01*
X036906Y030214D01*
X036466Y030214D01*
X036466Y029854D01*
X037266Y029854D01*
X037266Y030774D01*
X036906Y031134D01*
X036915Y031124D02*
X035986Y031124D01*
X036915Y031124D01*
X035986Y031124D01*
X036915Y031124D01*
X036923Y031116D02*
X035986Y031116D01*
X036923Y031116D01*
X035986Y031116D01*
X036923Y031116D01*
X036932Y031107D02*
X035986Y031107D01*
X036932Y031107D01*
X035986Y031107D01*
X036932Y031107D01*
X036940Y031099D02*
X035986Y031099D01*
X036940Y031099D01*
X035986Y031099D01*
X036940Y031099D01*
X036949Y031090D02*
X035986Y031090D01*
X036949Y031090D01*
X035986Y031090D01*
X036949Y031090D01*
X036957Y031082D02*
X035986Y031082D01*
X036957Y031082D01*
X035986Y031082D01*
X036957Y031082D01*
X036966Y031073D02*
X035986Y031073D01*
X036966Y031073D01*
X035986Y031073D01*
X036966Y031073D01*
X036974Y031065D02*
X035986Y031065D01*
X036974Y031065D01*
X035986Y031065D01*
X036974Y031065D01*
X036983Y031056D02*
X035986Y031056D01*
X036983Y031056D01*
X035986Y031056D01*
X036983Y031056D01*
X036991Y031048D02*
X035986Y031048D01*
X036991Y031048D01*
X035986Y031048D01*
X036991Y031048D01*
X037000Y031039D02*
X035986Y031039D01*
X037000Y031039D01*
X035986Y031039D01*
X037000Y031039D01*
X037008Y031031D02*
X035986Y031031D01*
X037008Y031031D01*
X035986Y031031D01*
X037008Y031031D01*
X037017Y031022D02*
X035986Y031022D01*
X037017Y031022D01*
X035986Y031022D01*
X037017Y031022D01*
X037025Y031014D02*
X035986Y031014D01*
X037025Y031014D01*
X035986Y031014D01*
X037025Y031014D01*
X037034Y031005D02*
X035986Y031005D01*
X037034Y031005D01*
X035986Y031005D01*
X037034Y031005D01*
X037042Y030997D02*
X035986Y030997D01*
X037042Y030997D01*
X035986Y030997D01*
X037042Y030997D01*
X037051Y030988D02*
X035986Y030988D01*
X037051Y030988D01*
X035986Y030988D01*
X037051Y030988D01*
X037059Y030980D02*
X035986Y030980D01*
X037059Y030980D01*
X035986Y030980D01*
X037059Y030980D01*
X037068Y030971D02*
X035986Y030971D01*
X037068Y030971D01*
X035986Y030971D01*
X037068Y030971D01*
X037076Y030963D02*
X035986Y030963D01*
X037076Y030963D01*
X035986Y030963D01*
X037076Y030963D01*
X037085Y030954D02*
X035986Y030954D01*
X037085Y030954D01*
X035986Y030954D01*
X037085Y030954D01*
X037093Y030946D02*
X035986Y030946D01*
X037093Y030946D01*
X035986Y030946D01*
X037093Y030946D01*
X037102Y030937D02*
X035986Y030937D01*
X037102Y030937D01*
X035986Y030937D01*
X037102Y030937D01*
X037110Y030929D02*
X035986Y030929D01*
X037110Y030929D01*
X035986Y030929D01*
X037110Y030929D01*
X037119Y030920D02*
X035986Y030920D01*
X037119Y030920D01*
X035986Y030920D01*
X037119Y030920D01*
X037127Y030912D02*
X035986Y030912D01*
X037127Y030912D01*
X035986Y030912D01*
X037127Y030912D01*
X037136Y030903D02*
X035986Y030903D01*
X037136Y030903D01*
X035986Y030903D01*
X037136Y030903D01*
X037144Y030895D02*
X035986Y030895D01*
X037144Y030895D01*
X035986Y030895D01*
X037144Y030895D01*
X037153Y030886D02*
X035986Y030886D01*
X037153Y030886D01*
X035986Y030886D01*
X037153Y030886D01*
X037161Y030878D02*
X035986Y030878D01*
X037161Y030878D01*
X035986Y030878D01*
X037161Y030878D01*
X037170Y030869D02*
X035986Y030869D01*
X037170Y030869D01*
X035986Y030869D01*
X037170Y030869D01*
X037178Y030861D02*
X035986Y030861D01*
X037178Y030861D01*
X035986Y030861D01*
X037178Y030861D01*
X037187Y030852D02*
X035986Y030852D01*
X037187Y030852D01*
X035986Y030852D01*
X037187Y030852D01*
X037195Y030844D02*
X035986Y030844D01*
X037195Y030844D01*
X035986Y030844D01*
X037195Y030844D01*
X037204Y030835D02*
X035986Y030835D01*
X037204Y030835D01*
X035986Y030835D01*
X037204Y030835D01*
X037212Y030827D02*
X035986Y030827D01*
X037212Y030827D01*
X035986Y030827D01*
X037212Y030827D01*
X037221Y030818D02*
X035986Y030818D01*
X037221Y030818D01*
X035986Y030818D01*
X037221Y030818D01*
X037229Y030810D02*
X035986Y030810D01*
X037229Y030810D01*
X035986Y030810D01*
X037229Y030810D01*
X037238Y030801D02*
X035986Y030801D01*
X037238Y030801D01*
X035986Y030801D01*
X037238Y030801D01*
X037246Y030793D02*
X035986Y030793D01*
X037246Y030793D01*
X035986Y030793D01*
X037246Y030793D01*
X037255Y030784D02*
X035986Y030784D01*
X037255Y030784D01*
X035986Y030784D01*
X037255Y030784D01*
X037263Y030776D02*
X035986Y030776D01*
X037263Y030776D01*
X035986Y030776D01*
X037263Y030776D01*
X037266Y030767D02*
X036792Y030767D01*
X037266Y030767D01*
X036792Y030767D01*
X037266Y030767D01*
X037266Y030759D02*
X036800Y030759D01*
X037266Y030759D01*
X036800Y030759D01*
X037266Y030759D01*
X037266Y030750D02*
X036809Y030750D01*
X037266Y030750D01*
X036809Y030750D01*
X037266Y030750D01*
X037266Y030742D02*
X036817Y030742D01*
X037266Y030742D01*
X036817Y030742D01*
X037266Y030742D01*
X037266Y030733D02*
X036826Y030733D01*
X037266Y030733D01*
X036826Y030733D01*
X037266Y030733D01*
X037266Y030725D02*
X036834Y030725D01*
X037266Y030725D01*
X036834Y030725D01*
X037266Y030725D01*
X037266Y030716D02*
X036843Y030716D01*
X037266Y030716D01*
X036843Y030716D01*
X037266Y030716D01*
X037266Y030708D02*
X036851Y030708D01*
X037266Y030708D01*
X036851Y030708D01*
X037266Y030708D01*
X037266Y030699D02*
X036860Y030699D01*
X037266Y030699D01*
X036860Y030699D01*
X037266Y030699D01*
X037266Y030691D02*
X036868Y030691D01*
X037266Y030691D01*
X036868Y030691D01*
X037266Y030691D01*
X037266Y030682D02*
X036877Y030682D01*
X037266Y030682D01*
X036877Y030682D01*
X037266Y030682D01*
X037266Y030674D02*
X036885Y030674D01*
X037266Y030674D01*
X036885Y030674D01*
X037266Y030674D01*
X037266Y030665D02*
X036894Y030665D01*
X037266Y030665D01*
X036894Y030665D01*
X037266Y030665D01*
X037266Y030657D02*
X036902Y030657D01*
X037266Y030657D01*
X036902Y030657D01*
X037266Y030657D01*
X037266Y030648D02*
X036906Y030648D01*
X037266Y030648D01*
X036906Y030648D01*
X037266Y030648D01*
X037266Y030640D02*
X036906Y030640D01*
X037266Y030640D01*
X036906Y030640D01*
X037266Y030640D01*
X037266Y030631D02*
X036906Y030631D01*
X037266Y030631D01*
X036906Y030631D01*
X037266Y030631D01*
X037266Y030623D02*
X036906Y030623D01*
X037266Y030623D01*
X036906Y030623D01*
X037266Y030623D01*
X037266Y030614D02*
X036906Y030614D01*
X037266Y030614D01*
X036906Y030614D01*
X037266Y030614D01*
X037266Y030606D02*
X036906Y030606D01*
X037266Y030606D01*
X036906Y030606D01*
X037266Y030606D01*
X037266Y030597D02*
X036906Y030597D01*
X037266Y030597D01*
X036906Y030597D01*
X037266Y030597D01*
X037266Y030589D02*
X036906Y030589D01*
X037266Y030589D01*
X036906Y030589D01*
X037266Y030589D01*
X037266Y030580D02*
X036906Y030580D01*
X037266Y030580D01*
X036906Y030580D01*
X037266Y030580D01*
X037266Y030572D02*
X036906Y030572D01*
X037266Y030572D01*
X036906Y030572D01*
X037266Y030572D01*
X037266Y030563D02*
X036906Y030563D01*
X037266Y030563D01*
X036906Y030563D01*
X037266Y030563D01*
X037266Y030555D02*
X036906Y030555D01*
X037266Y030555D01*
X036906Y030555D01*
X037266Y030555D01*
X037266Y030546D02*
X036906Y030546D01*
X037266Y030546D01*
X036906Y030546D01*
X037266Y030546D01*
X037266Y030538D02*
X036906Y030538D01*
X037266Y030538D01*
X036906Y030538D01*
X037266Y030538D01*
X037266Y030529D02*
X036906Y030529D01*
X037266Y030529D01*
X036906Y030529D01*
X037266Y030529D01*
X037266Y030521D02*
X036906Y030521D01*
X037266Y030521D01*
X036906Y030521D01*
X037266Y030521D01*
X037266Y030512D02*
X036906Y030512D01*
X037266Y030512D01*
X036906Y030512D01*
X037266Y030512D01*
X037266Y030504D02*
X036906Y030504D01*
X037266Y030504D01*
X036906Y030504D01*
X037266Y030504D01*
X037266Y030495D02*
X036906Y030495D01*
X037266Y030495D01*
X036906Y030495D01*
X037266Y030495D01*
X037266Y030487D02*
X036906Y030487D01*
X037266Y030487D01*
X036906Y030487D01*
X037266Y030487D01*
X037266Y030478D02*
X036906Y030478D01*
X037266Y030478D01*
X036906Y030478D01*
X037266Y030478D01*
X037266Y030470D02*
X036906Y030470D01*
X037266Y030470D01*
X036906Y030470D01*
X037266Y030470D01*
X037266Y030461D02*
X036906Y030461D01*
X037266Y030461D01*
X036906Y030461D01*
X037266Y030461D01*
X037266Y030453D02*
X036906Y030453D01*
X037266Y030453D01*
X036906Y030453D01*
X037266Y030453D01*
X037266Y030444D02*
X036906Y030444D01*
X037266Y030444D01*
X036906Y030444D01*
X037266Y030444D01*
X037266Y030436D02*
X036906Y030436D01*
X037266Y030436D01*
X036906Y030436D01*
X037266Y030436D01*
X037266Y030427D02*
X036906Y030427D01*
X037266Y030427D01*
X036906Y030427D01*
X037266Y030427D01*
X037266Y030419D02*
X036906Y030419D01*
X037266Y030419D01*
X036906Y030419D01*
X037266Y030419D01*
X037266Y030410D02*
X036906Y030410D01*
X037266Y030410D01*
X036906Y030410D01*
X037266Y030410D01*
X037266Y030402D02*
X036906Y030402D01*
X037266Y030402D01*
X036906Y030402D01*
X037266Y030402D01*
X037266Y030393D02*
X036906Y030393D01*
X037266Y030393D01*
X036906Y030393D01*
X037266Y030393D01*
X037266Y030385D02*
X036906Y030385D01*
X037266Y030385D01*
X036906Y030385D01*
X037266Y030385D01*
X037266Y030376D02*
X036906Y030376D01*
X037266Y030376D01*
X036906Y030376D01*
X037266Y030376D01*
X037266Y030368D02*
X036906Y030368D01*
X037266Y030368D01*
X036906Y030368D01*
X037266Y030368D01*
X037266Y030359D02*
X036906Y030359D01*
X037266Y030359D01*
X036906Y030359D01*
X037266Y030359D01*
X037266Y030351D02*
X036906Y030351D01*
X037266Y030351D01*
X036906Y030351D01*
X037266Y030351D01*
X037266Y030342D02*
X036906Y030342D01*
X037266Y030342D01*
X036906Y030342D01*
X037266Y030342D01*
X037266Y030334D02*
X036906Y030334D01*
X037266Y030334D01*
X036906Y030334D01*
X037266Y030334D01*
X037266Y030325D02*
X036906Y030325D01*
X037266Y030325D01*
X036906Y030325D01*
X037266Y030325D01*
X037266Y030317D02*
X036906Y030317D01*
X037266Y030317D01*
X036906Y030317D01*
X037266Y030317D01*
X037266Y030308D02*
X036906Y030308D01*
X037266Y030308D01*
X036906Y030308D01*
X037266Y030308D01*
X037266Y030300D02*
X036906Y030300D01*
X037266Y030300D01*
X036906Y030300D01*
X037266Y030300D01*
X037266Y030291D02*
X036906Y030291D01*
X037266Y030291D01*
X036906Y030291D01*
X037266Y030291D01*
X037266Y030283D02*
X036906Y030283D01*
X037266Y030283D01*
X036906Y030283D01*
X037266Y030283D01*
X037266Y030274D02*
X036906Y030274D01*
X037266Y030274D01*
X036906Y030274D01*
X037266Y030274D01*
X037266Y030266D02*
X036906Y030266D01*
X037266Y030266D01*
X036906Y030266D01*
X037266Y030266D01*
X037266Y030257D02*
X036906Y030257D01*
X037266Y030257D01*
X036906Y030257D01*
X037266Y030257D01*
X037266Y030249D02*
X036906Y030249D01*
X037266Y030249D01*
X036906Y030249D01*
X037266Y030249D01*
X037266Y030240D02*
X036906Y030240D01*
X037266Y030240D01*
X036906Y030240D01*
X037266Y030240D01*
X037266Y030232D02*
X036906Y030232D01*
X037266Y030232D01*
X036906Y030232D01*
X037266Y030232D01*
X037266Y030223D02*
X036906Y030223D01*
X037266Y030223D01*
X036906Y030223D01*
X037266Y030223D01*
X037266Y030215D02*
X036906Y030215D01*
X037266Y030215D01*
X036906Y030215D01*
X037266Y030215D01*
X037266Y030206D02*
X036466Y030206D01*
X037266Y030206D01*
X036466Y030206D01*
X037266Y030206D01*
X037266Y030198D02*
X036466Y030198D01*
X037266Y030198D01*
X036466Y030198D01*
X037266Y030198D01*
X037266Y030189D02*
X036466Y030189D01*
X037266Y030189D01*
X036466Y030189D01*
X037266Y030189D01*
X037266Y030181D02*
X036466Y030181D01*
X037266Y030181D01*
X036466Y030181D01*
X037266Y030181D01*
X037266Y030172D02*
X036466Y030172D01*
X037266Y030172D01*
X036466Y030172D01*
X037266Y030172D01*
X037266Y030164D02*
X036466Y030164D01*
X037266Y030164D01*
X036466Y030164D01*
X037266Y030164D01*
X037266Y030155D02*
X036466Y030155D01*
X037266Y030155D01*
X036466Y030155D01*
X037266Y030155D01*
X037266Y030147D02*
X036466Y030147D01*
X037266Y030147D01*
X036466Y030147D01*
X037266Y030147D01*
X037266Y030138D02*
X036466Y030138D01*
X037266Y030138D01*
X036466Y030138D01*
X037266Y030138D01*
X037266Y030130D02*
X036466Y030130D01*
X037266Y030130D01*
X036466Y030130D01*
X037266Y030130D01*
X037266Y030121D02*
X036466Y030121D01*
X037266Y030121D01*
X036466Y030121D01*
X037266Y030121D01*
X037266Y030113D02*
X036466Y030113D01*
X037266Y030113D01*
X036466Y030113D01*
X037266Y030113D01*
X037266Y030104D02*
X036466Y030104D01*
X037266Y030104D01*
X036466Y030104D01*
X037266Y030104D01*
X037266Y030096D02*
X036466Y030096D01*
X037266Y030096D01*
X036466Y030096D01*
X037266Y030096D01*
X037266Y030087D02*
X036466Y030087D01*
X037266Y030087D01*
X036466Y030087D01*
X037266Y030087D01*
X037266Y030079D02*
X036466Y030079D01*
X037266Y030079D01*
X036466Y030079D01*
X037266Y030079D01*
X037266Y030070D02*
X036466Y030070D01*
X037266Y030070D01*
X036466Y030070D01*
X037266Y030070D01*
X037266Y030062D02*
X036466Y030062D01*
X037266Y030062D01*
X036466Y030062D01*
X037266Y030062D01*
X037266Y030053D02*
X036466Y030053D01*
X037266Y030053D01*
X036466Y030053D01*
X037266Y030053D01*
X037266Y030045D02*
X036466Y030045D01*
X037266Y030045D01*
X036466Y030045D01*
X037266Y030045D01*
X037266Y030036D02*
X036466Y030036D01*
X037266Y030036D01*
X036466Y030036D01*
X037266Y030036D01*
X037266Y030028D02*
X036466Y030028D01*
X037266Y030028D01*
X036466Y030028D01*
X037266Y030028D01*
X037266Y030019D02*
X036466Y030019D01*
X037266Y030019D01*
X036466Y030019D01*
X037266Y030019D01*
X037266Y030011D02*
X036466Y030011D01*
X037266Y030011D01*
X036466Y030011D01*
X037266Y030011D01*
X037266Y030002D02*
X036466Y030002D01*
X037266Y030002D01*
X036466Y030002D01*
X037266Y030002D01*
X037266Y029994D02*
X036466Y029994D01*
X037266Y029994D01*
X036466Y029994D01*
X037266Y029994D01*
X037266Y029985D02*
X036466Y029985D01*
X037266Y029985D01*
X036466Y029985D01*
X037266Y029985D01*
X037266Y029977D02*
X036466Y029977D01*
X037266Y029977D01*
X036466Y029977D01*
X037266Y029977D01*
X037266Y029968D02*
X036466Y029968D01*
X037266Y029968D01*
X036466Y029968D01*
X037266Y029968D01*
X037266Y029960D02*
X036466Y029960D01*
X037266Y029960D01*
X036466Y029960D01*
X037266Y029960D01*
X037266Y029951D02*
X036466Y029951D01*
X037266Y029951D01*
X036466Y029951D01*
X037266Y029951D01*
X037266Y029943D02*
X036466Y029943D01*
X037266Y029943D01*
X036466Y029943D01*
X037266Y029943D01*
X037266Y029934D02*
X036466Y029934D01*
X037266Y029934D01*
X036466Y029934D01*
X037266Y029934D01*
X037266Y029926D02*
X036466Y029926D01*
X037266Y029926D01*
X036466Y029926D01*
X037266Y029926D01*
X037266Y029917D02*
X036466Y029917D01*
X037266Y029917D01*
X036466Y029917D01*
X037266Y029917D01*
X037266Y029909D02*
X036466Y029909D01*
X037266Y029909D01*
X036466Y029909D01*
X037266Y029909D01*
X037266Y029900D02*
X036466Y029900D01*
X037266Y029900D01*
X036466Y029900D01*
X037266Y029900D01*
X037266Y029892D02*
X036466Y029892D01*
X037266Y029892D01*
X036466Y029892D01*
X037266Y029892D01*
X037266Y029883D02*
X036466Y029883D01*
X037266Y029883D01*
X036466Y029883D01*
X037266Y029883D01*
X037266Y029875D02*
X036466Y029875D01*
X037266Y029875D01*
X036466Y029875D01*
X037266Y029875D01*
X037266Y029866D02*
X036466Y029866D01*
X037266Y029866D01*
X036466Y029866D01*
X037266Y029866D01*
X037266Y029858D02*
X036466Y029858D01*
X037266Y029858D01*
X036466Y029858D01*
X037266Y029858D01*
X037386Y030215D02*
X037746Y030215D01*
X037386Y030215D01*
X037746Y030215D01*
X037386Y030215D01*
X037386Y030223D02*
X037746Y030223D01*
X037386Y030223D01*
X037746Y030223D01*
X037386Y030223D01*
X037386Y030232D02*
X037746Y030232D01*
X037386Y030232D01*
X037746Y030232D01*
X037386Y030232D01*
X037386Y030240D02*
X037746Y030240D01*
X037386Y030240D01*
X037746Y030240D01*
X037386Y030240D01*
X037386Y030249D02*
X037746Y030249D01*
X037386Y030249D01*
X037746Y030249D01*
X037386Y030249D01*
X037386Y030257D02*
X037746Y030257D01*
X037386Y030257D01*
X037746Y030257D01*
X037386Y030257D01*
X037386Y030266D02*
X037746Y030266D01*
X037386Y030266D01*
X037746Y030266D01*
X037386Y030266D01*
X037386Y030274D02*
X037746Y030274D01*
X037386Y030274D01*
X037746Y030274D01*
X037386Y030274D01*
X037386Y030283D02*
X037746Y030283D01*
X037386Y030283D01*
X037746Y030283D01*
X037386Y030283D01*
X037386Y030291D02*
X037746Y030291D01*
X037386Y030291D01*
X037746Y030291D01*
X037386Y030291D01*
X037386Y030300D02*
X037746Y030300D01*
X037386Y030300D01*
X037746Y030300D01*
X037386Y030300D01*
X037386Y030308D02*
X037746Y030308D01*
X037386Y030308D01*
X037746Y030308D01*
X037386Y030308D01*
X037386Y030317D02*
X037746Y030317D01*
X037386Y030317D01*
X037746Y030317D01*
X037386Y030317D01*
X037386Y030325D02*
X037746Y030325D01*
X037386Y030325D01*
X037746Y030325D01*
X037386Y030325D01*
X037386Y030334D02*
X037746Y030334D01*
X037386Y030334D01*
X037746Y030334D01*
X037386Y030334D01*
X037386Y030342D02*
X037746Y030342D01*
X037386Y030342D01*
X037746Y030342D01*
X037386Y030342D01*
X037386Y030351D02*
X037746Y030351D01*
X037386Y030351D01*
X037746Y030351D01*
X037386Y030351D01*
X037386Y030359D02*
X037746Y030359D01*
X037386Y030359D01*
X037746Y030359D01*
X037386Y030359D01*
X037386Y030368D02*
X037746Y030368D01*
X037386Y030368D01*
X037746Y030368D01*
X037386Y030368D01*
X037386Y030376D02*
X037746Y030376D01*
X037386Y030376D01*
X037746Y030376D01*
X037386Y030376D01*
X037386Y030385D02*
X037746Y030385D01*
X037386Y030385D01*
X037746Y030385D01*
X037386Y030385D01*
X037386Y030393D02*
X037746Y030393D01*
X037386Y030393D01*
X037746Y030393D01*
X037386Y030393D01*
X037386Y030402D02*
X037746Y030402D01*
X037386Y030402D01*
X037746Y030402D01*
X037386Y030402D01*
X037386Y030410D02*
X037746Y030410D01*
X037386Y030410D01*
X037746Y030410D01*
X037386Y030410D01*
X037386Y030419D02*
X037746Y030419D01*
X037386Y030419D01*
X037746Y030419D01*
X037386Y030419D01*
X037386Y030427D02*
X037746Y030427D01*
X037386Y030427D01*
X037746Y030427D01*
X037386Y030427D01*
X037386Y030436D02*
X037746Y030436D01*
X037386Y030436D01*
X037746Y030436D01*
X037386Y030436D01*
X037386Y030444D02*
X037746Y030444D01*
X037386Y030444D01*
X037746Y030444D01*
X037386Y030444D01*
X037386Y030453D02*
X037746Y030453D01*
X037386Y030453D01*
X037746Y030453D01*
X037386Y030453D01*
X037386Y030461D02*
X037746Y030461D01*
X037386Y030461D01*
X037746Y030461D01*
X037386Y030461D01*
X037386Y030470D02*
X037746Y030470D01*
X037386Y030470D01*
X037746Y030470D01*
X037386Y030470D01*
X037386Y030478D02*
X037746Y030478D01*
X037386Y030478D01*
X037746Y030478D01*
X037386Y030478D01*
X037386Y030487D02*
X037746Y030487D01*
X037386Y030487D01*
X037746Y030487D01*
X037386Y030487D01*
X037386Y030495D02*
X037746Y030495D01*
X037386Y030495D01*
X037746Y030495D01*
X037386Y030495D01*
X037386Y030504D02*
X037746Y030504D01*
X037386Y030504D01*
X037746Y030504D01*
X037386Y030504D01*
X037386Y030512D02*
X037746Y030512D01*
X037386Y030512D01*
X037746Y030512D01*
X037386Y030512D01*
X037386Y030521D02*
X037746Y030521D01*
X037386Y030521D01*
X037746Y030521D01*
X037386Y030521D01*
X037386Y030529D02*
X037746Y030529D01*
X037386Y030529D01*
X037746Y030529D01*
X037386Y030529D01*
X037386Y030538D02*
X037746Y030538D01*
X037386Y030538D01*
X037746Y030538D01*
X037386Y030538D01*
X037386Y030546D02*
X037746Y030546D01*
X037386Y030546D01*
X037746Y030546D01*
X037386Y030546D01*
X037386Y030555D02*
X037746Y030555D01*
X037386Y030555D01*
X037746Y030555D01*
X037386Y030555D01*
X037386Y030563D02*
X037746Y030563D01*
X037386Y030563D01*
X037746Y030563D01*
X037386Y030563D01*
X037386Y030572D02*
X037746Y030572D01*
X037386Y030572D01*
X037746Y030572D01*
X037386Y030572D01*
X037386Y030580D02*
X037746Y030580D01*
X037386Y030580D01*
X037746Y030580D01*
X037386Y030580D01*
X037386Y030589D02*
X037746Y030589D01*
X037386Y030589D01*
X037746Y030589D01*
X037386Y030589D01*
X037386Y030597D02*
X037746Y030597D01*
X037386Y030597D01*
X037746Y030597D01*
X037386Y030597D01*
X037386Y030606D02*
X037746Y030606D01*
X037386Y030606D01*
X037746Y030606D01*
X037386Y030606D01*
X037386Y030614D02*
X037746Y030614D01*
X037386Y030614D01*
X037746Y030614D01*
X037386Y030614D01*
X037386Y030623D02*
X037746Y030623D01*
X037386Y030623D01*
X037746Y030623D01*
X037386Y030623D01*
X037386Y030631D02*
X037746Y030631D01*
X037386Y030631D01*
X037746Y030631D01*
X037386Y030631D01*
X037386Y030640D02*
X037746Y030640D01*
X037386Y030640D01*
X037746Y030640D01*
X037386Y030640D01*
X037386Y030648D02*
X037746Y030648D01*
X037386Y030648D01*
X037746Y030648D01*
X037386Y030648D01*
X037386Y030657D02*
X037746Y030657D01*
X037386Y030657D01*
X037746Y030657D01*
X037386Y030657D01*
X037386Y030665D02*
X037746Y030665D01*
X037386Y030665D01*
X037746Y030665D01*
X037386Y030665D01*
X037386Y030674D02*
X037746Y030674D01*
X037386Y030674D01*
X037746Y030674D01*
X037386Y030674D01*
X037386Y030682D02*
X037746Y030682D01*
X037386Y030682D01*
X037746Y030682D01*
X037386Y030682D01*
X037386Y030691D02*
X037746Y030691D01*
X037386Y030691D01*
X037746Y030691D01*
X037386Y030691D01*
X037386Y030699D02*
X037746Y030699D01*
X037386Y030699D01*
X037746Y030699D01*
X037386Y030699D01*
X037386Y030708D02*
X037746Y030708D01*
X037386Y030708D01*
X037746Y030708D01*
X037386Y030708D01*
X037386Y030716D02*
X037746Y030716D01*
X037386Y030716D01*
X037746Y030716D01*
X037386Y030716D01*
X037386Y030725D02*
X037746Y030725D01*
X037386Y030725D01*
X037746Y030725D01*
X037386Y030725D01*
X037386Y030733D02*
X037746Y030733D01*
X037386Y030733D01*
X037746Y030733D01*
X037386Y030733D01*
X037386Y030742D02*
X037746Y030742D01*
X037386Y030742D01*
X037746Y030742D01*
X037386Y030742D01*
X037386Y030750D02*
X037746Y030750D01*
X037386Y030750D01*
X037746Y030750D01*
X037386Y030750D01*
X037386Y030759D02*
X037746Y030759D01*
X037386Y030759D01*
X037746Y030759D01*
X037386Y030759D01*
X037386Y030767D02*
X037746Y030767D01*
X037386Y030767D01*
X037746Y030767D01*
X037386Y030767D01*
X037386Y030776D02*
X037746Y030776D01*
X037386Y030776D01*
X037746Y030776D01*
X037386Y030776D01*
X037386Y030784D02*
X037746Y030784D01*
X037386Y030784D01*
X037746Y030784D01*
X037386Y030784D01*
X037386Y030793D02*
X037746Y030793D01*
X037386Y030793D01*
X037746Y030793D01*
X037386Y030793D01*
X037386Y030801D02*
X037746Y030801D01*
X037386Y030801D01*
X037746Y030801D01*
X037386Y030801D01*
X037386Y030810D02*
X037746Y030810D01*
X037386Y030810D01*
X037746Y030810D01*
X037386Y030810D01*
X037386Y030818D02*
X037746Y030818D01*
X037386Y030818D01*
X037746Y030818D01*
X037386Y030818D01*
X037386Y030827D02*
X037746Y030827D01*
X037386Y030827D01*
X037746Y030827D01*
X037386Y030827D01*
X037386Y030835D02*
X037746Y030835D01*
X037386Y030835D01*
X037746Y030835D01*
X037386Y030835D01*
X037386Y030844D02*
X037746Y030844D01*
X037386Y030844D01*
X037746Y030844D01*
X037386Y030844D01*
X037386Y030852D02*
X037746Y030852D01*
X037386Y030852D01*
X037746Y030852D01*
X037386Y030852D01*
X037386Y030861D02*
X037746Y030861D01*
X037386Y030861D01*
X037746Y030861D01*
X037386Y030861D01*
X037386Y030869D02*
X037746Y030869D01*
X037386Y030869D01*
X037746Y030869D01*
X037386Y030869D01*
X037386Y030878D02*
X037746Y030878D01*
X037386Y030878D01*
X037746Y030878D01*
X037386Y030878D01*
X037386Y030886D02*
X037746Y030886D01*
X037386Y030886D01*
X037746Y030886D01*
X037386Y030886D01*
X037386Y030895D02*
X037746Y030895D01*
X037386Y030895D01*
X037746Y030895D01*
X037386Y030895D01*
X037386Y030903D02*
X037746Y030903D01*
X037386Y030903D01*
X037746Y030903D01*
X037386Y030903D01*
X037386Y030912D02*
X037746Y030912D01*
X037386Y030912D01*
X037746Y030912D01*
X037386Y030912D01*
X037386Y030920D02*
X037746Y030920D01*
X037386Y030920D01*
X037746Y030920D01*
X037386Y030920D01*
X037386Y030929D02*
X037746Y030929D01*
X037386Y030929D01*
X037746Y030929D01*
X037386Y030929D01*
X037386Y030937D02*
X037746Y030937D01*
X037386Y030937D01*
X037746Y030937D01*
X037386Y030937D01*
X037386Y030946D02*
X037746Y030946D01*
X037386Y030946D01*
X037746Y030946D01*
X037386Y030946D01*
X037386Y030954D02*
X037746Y030954D01*
X037386Y030954D01*
X037746Y030954D01*
X037386Y030954D01*
X037386Y030963D02*
X037746Y030963D01*
X037386Y030963D01*
X037746Y030963D01*
X037386Y030963D01*
X037386Y030971D02*
X037746Y030971D01*
X037386Y030971D01*
X037746Y030971D01*
X037386Y030971D01*
X037386Y030980D02*
X037746Y030980D01*
X037386Y030980D01*
X037746Y030980D01*
X037386Y030980D01*
X037386Y030988D02*
X037746Y030988D01*
X037386Y030988D01*
X037746Y030988D01*
X037386Y030988D01*
X037386Y030997D02*
X037746Y030997D01*
X037386Y030997D01*
X037746Y030997D01*
X037386Y030997D01*
X037386Y031005D02*
X037746Y031005D01*
X037386Y031005D01*
X037746Y031005D01*
X037386Y031005D01*
X037386Y031014D02*
X037746Y031014D01*
X037386Y031014D01*
X037746Y031014D01*
X037386Y031014D01*
X037386Y031022D02*
X037746Y031022D01*
X037386Y031022D01*
X037746Y031022D01*
X037386Y031022D01*
X037386Y031031D02*
X037746Y031031D01*
X037386Y031031D01*
X037746Y031031D01*
X037386Y031031D01*
X037386Y031039D02*
X037746Y031039D01*
X037386Y031039D01*
X037746Y031039D01*
X037386Y031039D01*
X037386Y031048D02*
X037746Y031048D01*
X037386Y031048D01*
X037746Y031048D01*
X037386Y031048D01*
X037386Y031056D02*
X037746Y031056D01*
X037386Y031056D01*
X037746Y031056D01*
X037386Y031056D01*
X037386Y031065D02*
X037746Y031065D01*
X037386Y031065D01*
X037746Y031065D01*
X037386Y031065D01*
X037386Y031073D02*
X037746Y031073D01*
X037386Y031073D01*
X037746Y031073D01*
X037386Y031073D01*
X037386Y031082D02*
X037746Y031082D01*
X037386Y031082D01*
X037746Y031082D01*
X037386Y031082D01*
X037386Y031090D02*
X037746Y031090D01*
X037386Y031090D01*
X037746Y031090D01*
X037386Y031090D01*
X037386Y031099D02*
X037746Y031099D01*
X037386Y031099D01*
X037746Y031099D01*
X037386Y031099D01*
X037386Y031107D02*
X037746Y031107D01*
X037386Y031107D01*
X037746Y031107D01*
X037386Y031107D01*
X037386Y031116D02*
X037746Y031116D01*
X037386Y031116D01*
X037746Y031116D01*
X037386Y031116D01*
X037386Y031124D02*
X037746Y031124D01*
X037386Y031124D01*
X037746Y031124D01*
X037386Y031124D01*
X036346Y030767D02*
X035986Y030767D01*
X036346Y030767D01*
X035986Y030767D01*
X036346Y030767D01*
X036346Y030759D02*
X035986Y030759D01*
X036346Y030759D01*
X035986Y030759D01*
X036346Y030759D01*
X036346Y030750D02*
X035986Y030750D01*
X036346Y030750D01*
X035986Y030750D01*
X036346Y030750D01*
X036346Y030742D02*
X035986Y030742D01*
X036346Y030742D01*
X035986Y030742D01*
X036346Y030742D01*
X036346Y030733D02*
X035986Y030733D01*
X036346Y030733D01*
X035986Y030733D01*
X036346Y030733D01*
X036346Y030725D02*
X035986Y030725D01*
X036346Y030725D01*
X035986Y030725D01*
X036346Y030725D01*
X036346Y030716D02*
X035986Y030716D01*
X036346Y030716D01*
X035986Y030716D01*
X036346Y030716D01*
X036346Y030708D02*
X035986Y030708D01*
X036346Y030708D01*
X035986Y030708D01*
X036346Y030708D01*
X036346Y030699D02*
X035986Y030699D01*
X036346Y030699D01*
X035986Y030699D01*
X036346Y030699D01*
X036346Y030691D02*
X035986Y030691D01*
X036346Y030691D01*
X035986Y030691D01*
X036346Y030691D01*
X036346Y030682D02*
X035986Y030682D01*
X036346Y030682D01*
X035986Y030682D01*
X036346Y030682D01*
X036346Y030674D02*
X035986Y030674D01*
X036346Y030674D01*
X035986Y030674D01*
X036346Y030674D01*
X036346Y030665D02*
X035986Y030665D01*
X036346Y030665D01*
X035986Y030665D01*
X036346Y030665D01*
X036346Y030657D02*
X035986Y030657D01*
X036346Y030657D01*
X035986Y030657D01*
X036346Y030657D01*
X036346Y030648D02*
X035986Y030648D01*
X036346Y030648D01*
X035986Y030648D01*
X036346Y030648D01*
X036346Y030640D02*
X035986Y030640D01*
X036346Y030640D01*
X035986Y030640D01*
X036346Y030640D01*
X036346Y030631D02*
X035986Y030631D01*
X036346Y030631D01*
X035986Y030631D01*
X036346Y030631D01*
X036346Y030623D02*
X035986Y030623D01*
X036346Y030623D01*
X035986Y030623D01*
X036346Y030623D01*
X036346Y030614D02*
X035986Y030614D01*
X036346Y030614D01*
X035986Y030614D01*
X036346Y030614D01*
X036346Y030606D02*
X035986Y030606D01*
X036346Y030606D01*
X035986Y030606D01*
X036346Y030606D01*
X036346Y030597D02*
X035986Y030597D01*
X036346Y030597D01*
X035986Y030597D01*
X036346Y030597D01*
X036346Y030589D02*
X035986Y030589D01*
X036346Y030589D01*
X035986Y030589D01*
X036346Y030589D01*
X036346Y030580D02*
X035986Y030580D01*
X036346Y030580D01*
X035986Y030580D01*
X036346Y030580D01*
X036346Y030572D02*
X035986Y030572D01*
X036346Y030572D01*
X035986Y030572D01*
X036346Y030572D01*
X036346Y030563D02*
X035986Y030563D01*
X036346Y030563D01*
X035986Y030563D01*
X036346Y030563D01*
X036346Y030555D02*
X035986Y030555D01*
X036346Y030555D01*
X035986Y030555D01*
X036346Y030555D01*
X036346Y030546D02*
X035986Y030546D01*
X036346Y030546D01*
X035986Y030546D01*
X036346Y030546D01*
X036346Y030538D02*
X035986Y030538D01*
X036346Y030538D01*
X035986Y030538D01*
X036346Y030538D01*
X036346Y030529D02*
X035986Y030529D01*
X036346Y030529D01*
X035986Y030529D01*
X036346Y030529D01*
X036346Y030521D02*
X035986Y030521D01*
X036346Y030521D01*
X035986Y030521D01*
X036346Y030521D01*
X036346Y030512D02*
X035986Y030512D01*
X036346Y030512D01*
X035986Y030512D01*
X036346Y030512D01*
X036346Y030504D02*
X035986Y030504D01*
X036346Y030504D01*
X035986Y030504D01*
X036346Y030504D01*
X036346Y030495D02*
X035986Y030495D01*
X036346Y030495D01*
X035986Y030495D01*
X036346Y030495D01*
X036346Y030487D02*
X035986Y030487D01*
X036346Y030487D01*
X035986Y030487D01*
X036346Y030487D01*
X036346Y030478D02*
X035986Y030478D01*
X036346Y030478D01*
X035986Y030478D01*
X036346Y030478D01*
X036346Y030470D02*
X035986Y030470D01*
X036346Y030470D01*
X035986Y030470D01*
X036346Y030470D01*
X036346Y030461D02*
X035986Y030461D01*
X036346Y030461D01*
X035986Y030461D01*
X036346Y030461D01*
X036346Y030453D02*
X035986Y030453D01*
X036346Y030453D01*
X035986Y030453D01*
X036346Y030453D01*
X036346Y030444D02*
X035986Y030444D01*
X036346Y030444D01*
X035986Y030444D01*
X036346Y030444D01*
X036346Y030436D02*
X035986Y030436D01*
X036346Y030436D01*
X035986Y030436D01*
X036346Y030436D01*
X036346Y030427D02*
X035986Y030427D01*
X036346Y030427D01*
X035986Y030427D01*
X036346Y030427D01*
X036346Y030419D02*
X035986Y030419D01*
X036346Y030419D01*
X035986Y030419D01*
X036346Y030419D01*
X036346Y030410D02*
X035986Y030410D01*
X036346Y030410D01*
X035986Y030410D01*
X036346Y030410D01*
X036346Y030402D02*
X035986Y030402D01*
X036346Y030402D01*
X035986Y030402D01*
X036346Y030402D01*
X036346Y030393D02*
X035986Y030393D01*
X036346Y030393D01*
X035986Y030393D01*
X036346Y030393D01*
X036346Y030385D02*
X035986Y030385D01*
X036346Y030385D01*
X035986Y030385D01*
X036346Y030385D01*
X036346Y030376D02*
X035986Y030376D01*
X036346Y030376D01*
X035986Y030376D01*
X036346Y030376D01*
X036346Y030368D02*
X035986Y030368D01*
X036346Y030368D01*
X035986Y030368D01*
X036346Y030368D01*
X036346Y030359D02*
X035986Y030359D01*
X036346Y030359D01*
X035986Y030359D01*
X036346Y030359D01*
X036346Y030351D02*
X035986Y030351D01*
X036346Y030351D01*
X035986Y030351D01*
X036346Y030351D01*
X036346Y030342D02*
X035986Y030342D01*
X036346Y030342D01*
X035986Y030342D01*
X036346Y030342D01*
X036346Y030334D02*
X035986Y030334D01*
X036346Y030334D01*
X035986Y030334D01*
X036346Y030334D01*
X036346Y030325D02*
X035986Y030325D01*
X036346Y030325D01*
X035986Y030325D01*
X036346Y030325D01*
X036346Y030317D02*
X035986Y030317D01*
X036346Y030317D01*
X035986Y030317D01*
X036346Y030317D01*
X036346Y030308D02*
X035986Y030308D01*
X036346Y030308D01*
X035986Y030308D01*
X036346Y030308D01*
X036346Y030300D02*
X035986Y030300D01*
X036346Y030300D01*
X035986Y030300D01*
X036346Y030300D01*
X036346Y030291D02*
X035986Y030291D01*
X036346Y030291D01*
X035986Y030291D01*
X036346Y030291D01*
X036346Y030283D02*
X035986Y030283D01*
X036346Y030283D01*
X035986Y030283D01*
X036346Y030283D01*
X036346Y030274D02*
X035986Y030274D01*
X036346Y030274D01*
X035986Y030274D01*
X036346Y030274D01*
X036346Y030266D02*
X035986Y030266D01*
X036346Y030266D01*
X035986Y030266D01*
X036346Y030266D01*
X036346Y030257D02*
X035986Y030257D01*
X036346Y030257D01*
X035986Y030257D01*
X036346Y030257D01*
X036346Y030249D02*
X035986Y030249D01*
X036346Y030249D01*
X035986Y030249D01*
X036346Y030249D01*
X036346Y030240D02*
X035986Y030240D01*
X036346Y030240D01*
X035986Y030240D01*
X036346Y030240D01*
X036346Y030232D02*
X035986Y030232D01*
X036346Y030232D01*
X035986Y030232D01*
X036346Y030232D01*
X036346Y030223D02*
X035986Y030223D01*
X036346Y030223D01*
X035986Y030223D01*
X036346Y030223D01*
X036346Y030215D02*
X035986Y030215D01*
X036346Y030215D01*
X035986Y030215D01*
X036346Y030215D01*
X036346Y030206D02*
X035986Y030206D01*
X036346Y030206D01*
X035986Y030206D01*
X036346Y030206D01*
X036346Y030198D02*
X035986Y030198D01*
X036346Y030198D01*
X035986Y030198D01*
X036346Y030198D01*
X036346Y030189D02*
X035986Y030189D01*
X036346Y030189D01*
X035986Y030189D01*
X036346Y030189D01*
X036346Y030181D02*
X035986Y030181D01*
X036346Y030181D01*
X035986Y030181D01*
X036346Y030181D01*
X036346Y030172D02*
X035986Y030172D01*
X036346Y030172D01*
X035986Y030172D01*
X036346Y030172D01*
X036346Y030164D02*
X035986Y030164D01*
X036346Y030164D01*
X035986Y030164D01*
X036346Y030164D01*
X036346Y030155D02*
X035986Y030155D01*
X036346Y030155D01*
X035986Y030155D01*
X036346Y030155D01*
X036346Y030147D02*
X035986Y030147D01*
X036346Y030147D01*
X035986Y030147D01*
X036346Y030147D01*
X036346Y030138D02*
X035986Y030138D01*
X036346Y030138D01*
X035986Y030138D01*
X036346Y030138D01*
X036346Y030130D02*
X035986Y030130D01*
X036346Y030130D01*
X035986Y030130D01*
X036346Y030130D01*
X036346Y030121D02*
X035986Y030121D01*
X036346Y030121D01*
X035986Y030121D01*
X036346Y030121D01*
X036346Y030113D02*
X035986Y030113D01*
X036346Y030113D01*
X035986Y030113D01*
X036346Y030113D01*
X036346Y030104D02*
X035986Y030104D01*
X036346Y030104D01*
X035986Y030104D01*
X036346Y030104D01*
X036346Y030096D02*
X035986Y030096D01*
X036346Y030096D01*
X035986Y030096D01*
X036346Y030096D01*
X036346Y030087D02*
X035986Y030087D01*
X036346Y030087D01*
X035986Y030087D01*
X036346Y030087D01*
X036346Y030079D02*
X035986Y030079D01*
X036346Y030079D01*
X035986Y030079D01*
X036346Y030079D01*
X036346Y030070D02*
X035986Y030070D01*
X036346Y030070D01*
X035986Y030070D01*
X036346Y030070D01*
X036346Y030062D02*
X035986Y030062D01*
X036346Y030062D01*
X035986Y030062D01*
X036346Y030062D01*
X036346Y030053D02*
X035986Y030053D01*
X036346Y030053D01*
X035986Y030053D01*
X036346Y030053D01*
X036346Y030045D02*
X035986Y030045D01*
X036346Y030045D01*
X035986Y030045D01*
X036346Y030045D01*
X036346Y030036D02*
X035986Y030036D01*
X036346Y030036D01*
X035986Y030036D01*
X036346Y030036D01*
X036346Y030028D02*
X035986Y030028D01*
X036346Y030028D01*
X035986Y030028D01*
X036346Y030028D01*
X036346Y030019D02*
X035986Y030019D01*
X036346Y030019D01*
X035986Y030019D01*
X036346Y030019D01*
X036346Y030011D02*
X035986Y030011D01*
X036346Y030011D01*
X035986Y030011D01*
X036346Y030011D01*
X036346Y030002D02*
X035986Y030002D01*
X036346Y030002D01*
X035986Y030002D01*
X036346Y030002D01*
X036346Y029994D02*
X035986Y029994D01*
X036346Y029994D01*
X035986Y029994D01*
X036346Y029994D01*
X036346Y029985D02*
X035986Y029985D01*
X036346Y029985D01*
X035986Y029985D01*
X036346Y029985D01*
X036346Y029977D02*
X035986Y029977D01*
X036346Y029977D01*
X035986Y029977D01*
X036346Y029977D01*
X036346Y029968D02*
X035986Y029968D01*
X036346Y029968D01*
X035986Y029968D01*
X036346Y029968D01*
X036346Y029960D02*
X035986Y029960D01*
X036346Y029960D01*
X035986Y029960D01*
X036346Y029960D01*
X036346Y029951D02*
X035986Y029951D01*
X036346Y029951D01*
X035986Y029951D01*
X036346Y029951D01*
X036346Y029943D02*
X035986Y029943D01*
X036346Y029943D01*
X035986Y029943D01*
X036346Y029943D01*
X036346Y029934D02*
X035986Y029934D01*
X036346Y029934D01*
X035986Y029934D01*
X036346Y029934D01*
X036346Y029926D02*
X035986Y029926D01*
X036346Y029926D01*
X035986Y029926D01*
X036346Y029926D01*
X036346Y029917D02*
X035986Y029917D01*
X036346Y029917D01*
X035986Y029917D01*
X036346Y029917D01*
X036346Y029909D02*
X035986Y029909D01*
X036346Y029909D01*
X035986Y029909D01*
X036346Y029909D01*
X036346Y029900D02*
X035986Y029900D01*
X036346Y029900D01*
X035986Y029900D01*
X036346Y029900D01*
X036346Y029892D02*
X035986Y029892D01*
X036346Y029892D01*
X035986Y029892D01*
X036346Y029892D01*
X036346Y029883D02*
X035986Y029883D01*
X036346Y029883D01*
X035986Y029883D01*
X036346Y029883D01*
X036346Y029875D02*
X035986Y029875D01*
X036346Y029875D01*
X035986Y029875D01*
X036346Y029875D01*
X036346Y029866D02*
X035986Y029866D01*
X036346Y029866D01*
X035986Y029866D01*
X036346Y029866D01*
X036346Y029858D02*
X035986Y029858D01*
X036346Y029858D01*
X035986Y029858D01*
X036346Y029858D01*
X035866Y029858D02*
X034941Y029858D01*
X035866Y029858D01*
X034941Y029858D01*
X035866Y029858D01*
X035866Y029854D02*
X034946Y029854D01*
X034586Y030214D01*
X034586Y030654D01*
X035496Y030654D01*
X035496Y030334D01*
X034586Y030334D01*
X035496Y030334D01*
X034586Y030334D01*
X035496Y030334D01*
X034946Y030334D01*
X035066Y030214D01*
X035506Y030214D01*
X035506Y030774D01*
X034586Y030774D01*
X034586Y031134D01*
X035866Y031134D01*
X035866Y029854D01*
X034946Y029854D01*
X034586Y030214D01*
X034586Y030654D01*
X035496Y030654D01*
X035496Y030334D01*
X034946Y030334D01*
X035066Y030214D01*
X035506Y030214D01*
X035506Y030774D01*
X034586Y030774D01*
X034586Y031134D01*
X035866Y031134D01*
X035866Y029854D01*
X034946Y029854D01*
X034586Y030214D01*
X034586Y030654D01*
X035496Y030654D01*
X035496Y030334D01*
X034946Y030334D01*
X035066Y030214D01*
X035506Y030214D01*
X035506Y030774D01*
X034586Y030774D01*
X034586Y031134D01*
X035866Y031134D01*
X035866Y029854D01*
X034946Y029854D01*
X034586Y030214D01*
X034586Y030654D01*
X035496Y030654D01*
X035496Y030334D01*
X034946Y030334D01*
X035066Y030214D01*
X035506Y030214D01*
X035506Y030774D01*
X034586Y030774D01*
X034586Y031134D01*
X035866Y031134D01*
X035866Y029854D01*
X035866Y029866D02*
X034933Y029866D01*
X035866Y029866D01*
X034933Y029866D01*
X035866Y029866D01*
X035866Y029875D02*
X034924Y029875D01*
X035866Y029875D01*
X034924Y029875D01*
X035866Y029875D01*
X035866Y029883D02*
X034916Y029883D01*
X035866Y029883D01*
X034916Y029883D01*
X035866Y029883D01*
X035866Y029892D02*
X034907Y029892D01*
X035866Y029892D01*
X034907Y029892D01*
X035866Y029892D01*
X035866Y029900D02*
X034899Y029900D01*
X035866Y029900D01*
X034899Y029900D01*
X035866Y029900D01*
X035866Y029909D02*
X034890Y029909D01*
X035866Y029909D01*
X034890Y029909D01*
X035866Y029909D01*
X035866Y029917D02*
X034882Y029917D01*
X035866Y029917D01*
X034882Y029917D01*
X035866Y029917D01*
X035866Y029926D02*
X034873Y029926D01*
X035866Y029926D01*
X034873Y029926D01*
X035866Y029926D01*
X035866Y029934D02*
X034865Y029934D01*
X035866Y029934D01*
X034865Y029934D01*
X035866Y029934D01*
X035866Y029943D02*
X034856Y029943D01*
X035866Y029943D01*
X034856Y029943D01*
X035866Y029943D01*
X035866Y029951D02*
X034848Y029951D01*
X035866Y029951D01*
X034848Y029951D01*
X035866Y029951D01*
X035866Y029960D02*
X034839Y029960D01*
X035866Y029960D01*
X034839Y029960D01*
X035866Y029960D01*
X035866Y029968D02*
X034831Y029968D01*
X035866Y029968D01*
X034831Y029968D01*
X035866Y029968D01*
X035866Y029977D02*
X034822Y029977D01*
X035866Y029977D01*
X034822Y029977D01*
X035866Y029977D01*
X035866Y029985D02*
X034814Y029985D01*
X035866Y029985D01*
X034814Y029985D01*
X035866Y029985D01*
X035866Y029994D02*
X034805Y029994D01*
X035866Y029994D01*
X034805Y029994D01*
X035866Y029994D01*
X035866Y030002D02*
X034797Y030002D01*
X035866Y030002D01*
X034797Y030002D01*
X035866Y030002D01*
X035866Y030011D02*
X034788Y030011D01*
X035866Y030011D01*
X034788Y030011D01*
X035866Y030011D01*
X035866Y030019D02*
X034780Y030019D01*
X035866Y030019D01*
X034780Y030019D01*
X035866Y030019D01*
X035866Y030028D02*
X034771Y030028D01*
X035866Y030028D01*
X034771Y030028D01*
X035866Y030028D01*
X035866Y030036D02*
X034763Y030036D01*
X035866Y030036D01*
X034763Y030036D01*
X035866Y030036D01*
X035866Y030045D02*
X034754Y030045D01*
X035866Y030045D01*
X034754Y030045D01*
X035866Y030045D01*
X035866Y030053D02*
X034746Y030053D01*
X035866Y030053D01*
X034746Y030053D01*
X035866Y030053D01*
X035866Y030062D02*
X034737Y030062D01*
X035866Y030062D01*
X034737Y030062D01*
X035866Y030062D01*
X035866Y030070D02*
X034729Y030070D01*
X035866Y030070D01*
X034729Y030070D01*
X035866Y030070D01*
X035866Y030079D02*
X034720Y030079D01*
X035866Y030079D01*
X034720Y030079D01*
X035866Y030079D01*
X035866Y030087D02*
X034712Y030087D01*
X035866Y030087D01*
X034712Y030087D01*
X035866Y030087D01*
X035866Y030096D02*
X034703Y030096D01*
X035866Y030096D01*
X034703Y030096D01*
X035866Y030096D01*
X035866Y030104D02*
X034695Y030104D01*
X035866Y030104D01*
X034695Y030104D01*
X035866Y030104D01*
X035866Y030113D02*
X034686Y030113D01*
X035866Y030113D01*
X034686Y030113D01*
X035866Y030113D01*
X035866Y030121D02*
X034678Y030121D01*
X035866Y030121D01*
X034678Y030121D01*
X035866Y030121D01*
X035866Y030130D02*
X034669Y030130D01*
X035866Y030130D01*
X034669Y030130D01*
X035866Y030130D01*
X035866Y030138D02*
X034661Y030138D01*
X035866Y030138D01*
X034661Y030138D01*
X035866Y030138D01*
X035866Y030147D02*
X034652Y030147D01*
X035866Y030147D01*
X034652Y030147D01*
X035866Y030147D01*
X035866Y030155D02*
X034644Y030155D01*
X035866Y030155D01*
X034644Y030155D01*
X035866Y030155D01*
X035866Y030164D02*
X034635Y030164D01*
X035866Y030164D01*
X034635Y030164D01*
X035866Y030164D01*
X035866Y030172D02*
X034627Y030172D01*
X035866Y030172D01*
X034627Y030172D01*
X035866Y030172D01*
X035866Y030181D02*
X034618Y030181D01*
X035866Y030181D01*
X034618Y030181D01*
X035866Y030181D01*
X035866Y030189D02*
X034610Y030189D01*
X035866Y030189D01*
X034610Y030189D01*
X035866Y030189D01*
X035866Y030198D02*
X034601Y030198D01*
X035866Y030198D01*
X034601Y030198D01*
X035866Y030198D01*
X035866Y030206D02*
X034593Y030206D01*
X035866Y030206D01*
X034593Y030206D01*
X035866Y030206D01*
X035866Y030215D02*
X035506Y030215D01*
X035866Y030215D01*
X035506Y030215D01*
X035866Y030215D01*
X035866Y030223D02*
X035506Y030223D01*
X035866Y030223D01*
X035506Y030223D01*
X035866Y030223D01*
X035866Y030232D02*
X035506Y030232D01*
X035866Y030232D01*
X035506Y030232D01*
X035866Y030232D01*
X035866Y030240D02*
X035506Y030240D01*
X035866Y030240D01*
X035506Y030240D01*
X035866Y030240D01*
X035866Y030249D02*
X035506Y030249D01*
X035866Y030249D01*
X035506Y030249D01*
X035866Y030249D01*
X035866Y030257D02*
X035506Y030257D01*
X035866Y030257D01*
X035506Y030257D01*
X035866Y030257D01*
X035866Y030266D02*
X035506Y030266D01*
X035866Y030266D01*
X035506Y030266D01*
X035866Y030266D01*
X035866Y030274D02*
X035506Y030274D01*
X035866Y030274D01*
X035506Y030274D01*
X035866Y030274D01*
X035866Y030283D02*
X035506Y030283D01*
X035866Y030283D01*
X035506Y030283D01*
X035866Y030283D01*
X035866Y030291D02*
X035506Y030291D01*
X035866Y030291D01*
X035506Y030291D01*
X035866Y030291D01*
X035866Y030300D02*
X035506Y030300D01*
X035866Y030300D01*
X035506Y030300D01*
X035866Y030300D01*
X035866Y030308D02*
X035506Y030308D01*
X035866Y030308D01*
X035506Y030308D01*
X035866Y030308D01*
X035866Y030317D02*
X035506Y030317D01*
X035866Y030317D01*
X035506Y030317D01*
X035866Y030317D01*
X035866Y030325D02*
X035506Y030325D01*
X035866Y030325D01*
X035506Y030325D01*
X035866Y030325D01*
X035866Y030334D02*
X035506Y030334D01*
X035866Y030334D01*
X035506Y030334D01*
X035866Y030334D01*
X035866Y030342D02*
X035506Y030342D01*
X035866Y030342D01*
X035506Y030342D01*
X035866Y030342D01*
X035866Y030351D02*
X035506Y030351D01*
X035866Y030351D01*
X035506Y030351D01*
X035866Y030351D01*
X035866Y030359D02*
X035506Y030359D01*
X035866Y030359D01*
X035506Y030359D01*
X035866Y030359D01*
X035866Y030368D02*
X035506Y030368D01*
X035866Y030368D01*
X035506Y030368D01*
X035866Y030368D01*
X035866Y030376D02*
X035506Y030376D01*
X035866Y030376D01*
X035506Y030376D01*
X035866Y030376D01*
X035866Y030385D02*
X035506Y030385D01*
X035866Y030385D01*
X035506Y030385D01*
X035866Y030385D01*
X035866Y030393D02*
X035506Y030393D01*
X035866Y030393D01*
X035506Y030393D01*
X035866Y030393D01*
X035866Y030402D02*
X035506Y030402D01*
X035866Y030402D01*
X035506Y030402D01*
X035866Y030402D01*
X035866Y030410D02*
X035506Y030410D01*
X035866Y030410D01*
X035506Y030410D01*
X035866Y030410D01*
X035866Y030419D02*
X035506Y030419D01*
X035866Y030419D01*
X035506Y030419D01*
X035866Y030419D01*
X035866Y030427D02*
X035506Y030427D01*
X035866Y030427D01*
X035506Y030427D01*
X035866Y030427D01*
X035866Y030436D02*
X035506Y030436D01*
X035866Y030436D01*
X035506Y030436D01*
X035866Y030436D01*
X035866Y030444D02*
X035506Y030444D01*
X035866Y030444D01*
X035506Y030444D01*
X035866Y030444D01*
X035866Y030453D02*
X035506Y030453D01*
X035866Y030453D01*
X035506Y030453D01*
X035866Y030453D01*
X035866Y030461D02*
X035506Y030461D01*
X035866Y030461D01*
X035506Y030461D01*
X035866Y030461D01*
X035866Y030470D02*
X035506Y030470D01*
X035866Y030470D01*
X035506Y030470D01*
X035866Y030470D01*
X035866Y030478D02*
X035506Y030478D01*
X035866Y030478D01*
X035506Y030478D01*
X035866Y030478D01*
X035866Y030487D02*
X035506Y030487D01*
X035866Y030487D01*
X035506Y030487D01*
X035866Y030487D01*
X035866Y030495D02*
X035506Y030495D01*
X035866Y030495D01*
X035506Y030495D01*
X035866Y030495D01*
X035866Y030504D02*
X035506Y030504D01*
X035866Y030504D01*
X035506Y030504D01*
X035866Y030504D01*
X035866Y030512D02*
X035506Y030512D01*
X035866Y030512D01*
X035506Y030512D01*
X035866Y030512D01*
X035866Y030521D02*
X035506Y030521D01*
X035866Y030521D01*
X035506Y030521D01*
X035866Y030521D01*
X035866Y030529D02*
X035506Y030529D01*
X035866Y030529D01*
X035506Y030529D01*
X035866Y030529D01*
X035866Y030538D02*
X035506Y030538D01*
X035866Y030538D01*
X035506Y030538D01*
X035866Y030538D01*
X035866Y030546D02*
X035506Y030546D01*
X035866Y030546D01*
X035506Y030546D01*
X035866Y030546D01*
X035866Y030555D02*
X035506Y030555D01*
X035866Y030555D01*
X035506Y030555D01*
X035866Y030555D01*
X035866Y030563D02*
X035506Y030563D01*
X035866Y030563D01*
X035506Y030563D01*
X035866Y030563D01*
X035866Y030572D02*
X035506Y030572D01*
X035866Y030572D01*
X035506Y030572D01*
X035866Y030572D01*
X035866Y030580D02*
X035506Y030580D01*
X035866Y030580D01*
X035506Y030580D01*
X035866Y030580D01*
X035866Y030589D02*
X035506Y030589D01*
X035866Y030589D01*
X035506Y030589D01*
X035866Y030589D01*
X035866Y030597D02*
X035506Y030597D01*
X035866Y030597D01*
X035506Y030597D01*
X035866Y030597D01*
X035866Y030606D02*
X035506Y030606D01*
X035866Y030606D01*
X035506Y030606D01*
X035866Y030606D01*
X035866Y030614D02*
X035506Y030614D01*
X035866Y030614D01*
X035506Y030614D01*
X035866Y030614D01*
X035866Y030623D02*
X035506Y030623D01*
X035866Y030623D01*
X035506Y030623D01*
X035866Y030623D01*
X035866Y030631D02*
X035506Y030631D01*
X035866Y030631D01*
X035506Y030631D01*
X035866Y030631D01*
X035866Y030640D02*
X035506Y030640D01*
X035866Y030640D01*
X035506Y030640D01*
X035866Y030640D01*
X035866Y030648D02*
X035506Y030648D01*
X035866Y030648D01*
X035506Y030648D01*
X035866Y030648D01*
X035866Y030657D02*
X035506Y030657D01*
X035866Y030657D01*
X035506Y030657D01*
X035866Y030657D01*
X035866Y030665D02*
X035506Y030665D01*
X035866Y030665D01*
X035506Y030665D01*
X035866Y030665D01*
X035866Y030674D02*
X035506Y030674D01*
X035866Y030674D01*
X035506Y030674D01*
X035866Y030674D01*
X035866Y030682D02*
X035506Y030682D01*
X035866Y030682D01*
X035506Y030682D01*
X035866Y030682D01*
X035866Y030691D02*
X035506Y030691D01*
X035866Y030691D01*
X035506Y030691D01*
X035866Y030691D01*
X035866Y030699D02*
X035506Y030699D01*
X035866Y030699D01*
X035506Y030699D01*
X035866Y030699D01*
X035866Y030708D02*
X035506Y030708D01*
X035866Y030708D01*
X035506Y030708D01*
X035866Y030708D01*
X035866Y030716D02*
X035506Y030716D01*
X035866Y030716D01*
X035506Y030716D01*
X035866Y030716D01*
X035866Y030725D02*
X035506Y030725D01*
X035866Y030725D01*
X035506Y030725D01*
X035866Y030725D01*
X035866Y030733D02*
X035506Y030733D01*
X035866Y030733D01*
X035506Y030733D01*
X035866Y030733D01*
X035866Y030742D02*
X035506Y030742D01*
X035866Y030742D01*
X035506Y030742D01*
X035866Y030742D01*
X035866Y030750D02*
X035506Y030750D01*
X035866Y030750D01*
X035506Y030750D01*
X035866Y030750D01*
X035866Y030759D02*
X035506Y030759D01*
X035866Y030759D01*
X035506Y030759D01*
X035866Y030759D01*
X035866Y030767D02*
X035506Y030767D01*
X035866Y030767D01*
X035506Y030767D01*
X035866Y030767D01*
X035866Y030776D02*
X034586Y030776D01*
X035866Y030776D01*
X034586Y030776D01*
X035866Y030776D01*
X035866Y030784D02*
X034586Y030784D01*
X035866Y030784D01*
X034586Y030784D01*
X035866Y030784D01*
X035866Y030793D02*
X034586Y030793D01*
X035866Y030793D01*
X034586Y030793D01*
X035866Y030793D01*
X035866Y030801D02*
X034586Y030801D01*
X035866Y030801D01*
X034586Y030801D01*
X035866Y030801D01*
X035866Y030810D02*
X034586Y030810D01*
X035866Y030810D01*
X034586Y030810D01*
X035866Y030810D01*
X035866Y030818D02*
X034586Y030818D01*
X035866Y030818D01*
X034586Y030818D01*
X035866Y030818D01*
X035866Y030827D02*
X034586Y030827D01*
X035866Y030827D01*
X034586Y030827D01*
X035866Y030827D01*
X035866Y030835D02*
X034586Y030835D01*
X035866Y030835D01*
X034586Y030835D01*
X035866Y030835D01*
X035866Y030844D02*
X034586Y030844D01*
X035866Y030844D01*
X034586Y030844D01*
X035866Y030844D01*
X035866Y030852D02*
X034586Y030852D01*
X035866Y030852D01*
X034586Y030852D01*
X035866Y030852D01*
X035866Y030861D02*
X034586Y030861D01*
X035866Y030861D01*
X034586Y030861D01*
X035866Y030861D01*
X035866Y030869D02*
X034586Y030869D01*
X035866Y030869D01*
X034586Y030869D01*
X035866Y030869D01*
X035866Y030878D02*
X034586Y030878D01*
X035866Y030878D01*
X034586Y030878D01*
X035866Y030878D01*
X035866Y030886D02*
X034586Y030886D01*
X035866Y030886D01*
X034586Y030886D01*
X035866Y030886D01*
X035866Y030895D02*
X034586Y030895D01*
X035866Y030895D01*
X034586Y030895D01*
X035866Y030895D01*
X035866Y030903D02*
X034586Y030903D01*
X035866Y030903D01*
X034586Y030903D01*
X035866Y030903D01*
X035866Y030912D02*
X034586Y030912D01*
X035866Y030912D01*
X034586Y030912D01*
X035866Y030912D01*
X035866Y030920D02*
X034586Y030920D01*
X035866Y030920D01*
X034586Y030920D01*
X035866Y030920D01*
X035866Y030929D02*
X034586Y030929D01*
X035866Y030929D01*
X034586Y030929D01*
X035866Y030929D01*
X035866Y030937D02*
X034586Y030937D01*
X035866Y030937D01*
X034586Y030937D01*
X035866Y030937D01*
X035866Y030946D02*
X034586Y030946D01*
X035866Y030946D01*
X034586Y030946D01*
X035866Y030946D01*
X035866Y030954D02*
X034586Y030954D01*
X035866Y030954D01*
X034586Y030954D01*
X035866Y030954D01*
X035866Y030963D02*
X034586Y030963D01*
X035866Y030963D01*
X034586Y030963D01*
X035866Y030963D01*
X035866Y030971D02*
X034586Y030971D01*
X035866Y030971D01*
X034586Y030971D01*
X035866Y030971D01*
X035866Y030980D02*
X034586Y030980D01*
X035866Y030980D01*
X034586Y030980D01*
X035866Y030980D01*
X035866Y030988D02*
X034586Y030988D01*
X035866Y030988D01*
X034586Y030988D01*
X035866Y030988D01*
X035866Y030997D02*
X034586Y030997D01*
X035866Y030997D01*
X034586Y030997D01*
X035866Y030997D01*
X035866Y031005D02*
X034586Y031005D01*
X035866Y031005D01*
X034586Y031005D01*
X035866Y031005D01*
X035866Y031014D02*
X034586Y031014D01*
X035866Y031014D01*
X034586Y031014D01*
X035866Y031014D01*
X035866Y031022D02*
X034586Y031022D01*
X035866Y031022D01*
X034586Y031022D01*
X035866Y031022D01*
X035866Y031031D02*
X034586Y031031D01*
X035866Y031031D01*
X034586Y031031D01*
X035866Y031031D01*
X035866Y031039D02*
X034586Y031039D01*
X035866Y031039D01*
X034586Y031039D01*
X035866Y031039D01*
X035866Y031048D02*
X034586Y031048D01*
X035866Y031048D01*
X034586Y031048D01*
X035866Y031048D01*
X035866Y031056D02*
X034586Y031056D01*
X035866Y031056D01*
X034586Y031056D01*
X035866Y031056D01*
X035866Y031065D02*
X034586Y031065D01*
X035866Y031065D01*
X034586Y031065D01*
X035866Y031065D01*
X035866Y031073D02*
X034586Y031073D01*
X035866Y031073D01*
X034586Y031073D01*
X035866Y031073D01*
X035866Y031082D02*
X034586Y031082D01*
X035866Y031082D01*
X034586Y031082D01*
X035866Y031082D01*
X035866Y031090D02*
X034586Y031090D01*
X035866Y031090D01*
X034586Y031090D01*
X035866Y031090D01*
X035866Y031099D02*
X034586Y031099D01*
X035866Y031099D01*
X034586Y031099D01*
X035866Y031099D01*
X035866Y031107D02*
X034586Y031107D01*
X035866Y031107D01*
X034586Y031107D01*
X035866Y031107D01*
X035866Y031116D02*
X034586Y031116D01*
X035866Y031116D01*
X034586Y031116D01*
X035866Y031116D01*
X035866Y031124D02*
X034586Y031124D01*
X035866Y031124D01*
X034586Y031124D01*
X035866Y031124D01*
X035866Y031133D02*
X034586Y031133D01*
X035866Y031133D01*
X034586Y031133D01*
X035866Y031133D01*
X035496Y030648D02*
X034586Y030648D01*
X035496Y030648D01*
X034586Y030648D01*
X035496Y030648D01*
X035496Y030640D02*
X034586Y030640D01*
X035496Y030640D01*
X034586Y030640D01*
X035496Y030640D01*
X035496Y030631D02*
X034586Y030631D01*
X035496Y030631D01*
X034586Y030631D01*
X035496Y030631D01*
X035496Y030623D02*
X034586Y030623D01*
X035496Y030623D01*
X034586Y030623D01*
X035496Y030623D01*
X035496Y030614D02*
X034586Y030614D01*
X035496Y030614D01*
X034586Y030614D01*
X035496Y030614D01*
X035496Y030606D02*
X034586Y030606D01*
X035496Y030606D01*
X034586Y030606D01*
X035496Y030606D01*
X035496Y030597D02*
X034586Y030597D01*
X035496Y030597D01*
X034586Y030597D01*
X035496Y030597D01*
X035496Y030589D02*
X034586Y030589D01*
X035496Y030589D01*
X034586Y030589D01*
X035496Y030589D01*
X035496Y030580D02*
X034586Y030580D01*
X035496Y030580D01*
X034586Y030580D01*
X035496Y030580D01*
X035496Y030572D02*
X034586Y030572D01*
X035496Y030572D01*
X034586Y030572D01*
X035496Y030572D01*
X035496Y030563D02*
X034586Y030563D01*
X035496Y030563D01*
X034586Y030563D01*
X035496Y030563D01*
X035496Y030555D02*
X034586Y030555D01*
X035496Y030555D01*
X034586Y030555D01*
X035496Y030555D01*
X035496Y030546D02*
X034586Y030546D01*
X035496Y030546D01*
X034586Y030546D01*
X035496Y030546D01*
X035496Y030538D02*
X034586Y030538D01*
X035496Y030538D01*
X034586Y030538D01*
X035496Y030538D01*
X035496Y030529D02*
X034586Y030529D01*
X035496Y030529D01*
X034586Y030529D01*
X035496Y030529D01*
X035496Y030521D02*
X034586Y030521D01*
X035496Y030521D01*
X034586Y030521D01*
X035496Y030521D01*
X035496Y030512D02*
X034586Y030512D01*
X035496Y030512D01*
X034586Y030512D01*
X035496Y030512D01*
X035496Y030504D02*
X034586Y030504D01*
X035496Y030504D01*
X034586Y030504D01*
X035496Y030504D01*
X035496Y030495D02*
X034586Y030495D01*
X035496Y030495D01*
X034586Y030495D01*
X035496Y030495D01*
X035496Y030487D02*
X034586Y030487D01*
X035496Y030487D01*
X034586Y030487D01*
X035496Y030487D01*
X035496Y030478D02*
X034586Y030478D01*
X035496Y030478D01*
X034586Y030478D01*
X035496Y030478D01*
X035496Y030470D02*
X034586Y030470D01*
X035496Y030470D01*
X034586Y030470D01*
X035496Y030470D01*
X035496Y030461D02*
X034586Y030461D01*
X035496Y030461D01*
X034586Y030461D01*
X035496Y030461D01*
X035496Y030453D02*
X034586Y030453D01*
X035496Y030453D01*
X034586Y030453D01*
X035496Y030453D01*
X035496Y030444D02*
X034586Y030444D01*
X035496Y030444D01*
X034586Y030444D01*
X035496Y030444D01*
X035496Y030436D02*
X034586Y030436D01*
X035496Y030436D01*
X034586Y030436D01*
X035496Y030436D01*
X035496Y030427D02*
X034586Y030427D01*
X035496Y030427D01*
X034586Y030427D01*
X035496Y030427D01*
X035496Y030419D02*
X034586Y030419D01*
X035496Y030419D01*
X034586Y030419D01*
X035496Y030419D01*
X035496Y030410D02*
X034586Y030410D01*
X035496Y030410D01*
X034586Y030410D01*
X035496Y030410D01*
X035496Y030402D02*
X034586Y030402D01*
X035496Y030402D01*
X034586Y030402D01*
X035496Y030402D01*
X035496Y030393D02*
X034586Y030393D01*
X035496Y030393D01*
X034586Y030393D01*
X035496Y030393D01*
X035496Y030385D02*
X034586Y030385D01*
X035496Y030385D01*
X034586Y030385D01*
X035496Y030385D01*
X035496Y030376D02*
X034586Y030376D01*
X035496Y030376D01*
X034586Y030376D01*
X035496Y030376D01*
X035496Y030368D02*
X034586Y030368D01*
X035496Y030368D01*
X034586Y030368D01*
X035496Y030368D01*
X035496Y030359D02*
X034586Y030359D01*
X035496Y030359D01*
X034586Y030359D01*
X035496Y030359D01*
X035496Y030351D02*
X034586Y030351D01*
X035496Y030351D01*
X034586Y030351D01*
X035496Y030351D01*
X035496Y030342D02*
X034586Y030342D01*
X035496Y030342D01*
X034586Y030342D01*
X035496Y030342D01*
X035064Y030215D02*
X034586Y030215D01*
X035064Y030215D01*
X034586Y030215D01*
X035064Y030215D01*
X035056Y030223D02*
X034586Y030223D01*
X035056Y030223D01*
X034586Y030223D01*
X035056Y030223D01*
X035047Y030232D02*
X034586Y030232D01*
X035047Y030232D01*
X034586Y030232D01*
X035047Y030232D01*
X035039Y030240D02*
X034586Y030240D01*
X035039Y030240D01*
X034586Y030240D01*
X035039Y030240D01*
X035030Y030249D02*
X034586Y030249D01*
X035030Y030249D01*
X034586Y030249D01*
X035030Y030249D01*
X035022Y030257D02*
X034586Y030257D01*
X035022Y030257D01*
X034586Y030257D01*
X035022Y030257D01*
X035013Y030266D02*
X034586Y030266D01*
X035013Y030266D01*
X034586Y030266D01*
X035013Y030266D01*
X035005Y030274D02*
X034586Y030274D01*
X035005Y030274D01*
X034586Y030274D01*
X035005Y030274D01*
X034996Y030283D02*
X034586Y030283D01*
X034996Y030283D01*
X034586Y030283D01*
X034996Y030283D01*
X034988Y030291D02*
X034586Y030291D01*
X034988Y030291D01*
X034586Y030291D01*
X034988Y030291D01*
X034979Y030300D02*
X034586Y030300D01*
X034979Y030300D01*
X034586Y030300D01*
X034979Y030300D01*
X034971Y030308D02*
X034586Y030308D01*
X034971Y030308D01*
X034586Y030308D01*
X034971Y030308D01*
X034962Y030317D02*
X034586Y030317D01*
X034962Y030317D01*
X034586Y030317D01*
X034962Y030317D01*
X034954Y030325D02*
X034586Y030325D01*
X034954Y030325D01*
X034586Y030325D01*
X034954Y030325D01*
X034466Y030334D02*
X033546Y030334D01*
X033666Y030214D01*
X034466Y030214D01*
X034466Y029854D01*
X033546Y029854D01*
X033186Y030214D01*
X033186Y030654D01*
X034106Y030654D01*
X034106Y030774D01*
X033186Y030774D01*
X033186Y031134D01*
X034466Y031134D01*
X034466Y030334D01*
X033186Y030334D01*
X034466Y030334D01*
X033186Y030334D01*
X034466Y030334D01*
X033546Y030334D01*
X033666Y030214D01*
X034466Y030214D01*
X034466Y029854D01*
X033546Y029854D01*
X033186Y030214D01*
X033186Y030654D01*
X034106Y030654D01*
X034106Y030774D01*
X033186Y030774D01*
X033186Y031134D01*
X034466Y031134D01*
X034466Y030334D01*
X033546Y030334D01*
X033666Y030214D01*
X034466Y030214D01*
X034466Y029854D01*
X033546Y029854D01*
X033186Y030214D01*
X033186Y030654D01*
X034106Y030654D01*
X034106Y030774D01*
X033186Y030774D01*
X033186Y031134D01*
X034466Y031134D01*
X034466Y030334D01*
X033546Y030334D01*
X033666Y030214D01*
X034466Y030214D01*
X034466Y029854D01*
X033546Y029854D01*
X033186Y030214D01*
X033186Y030654D01*
X034106Y030654D01*
X034106Y030774D01*
X033186Y030774D01*
X033186Y031134D01*
X034466Y031134D01*
X034466Y030334D01*
X034466Y030342D02*
X033186Y030342D01*
X034466Y030342D01*
X033186Y030342D01*
X034466Y030342D01*
X034466Y030351D02*
X033186Y030351D01*
X034466Y030351D01*
X033186Y030351D01*
X034466Y030351D01*
X034466Y030359D02*
X033186Y030359D01*
X034466Y030359D01*
X033186Y030359D01*
X034466Y030359D01*
X034466Y030368D02*
X033186Y030368D01*
X034466Y030368D01*
X033186Y030368D01*
X034466Y030368D01*
X034466Y030376D02*
X033186Y030376D01*
X034466Y030376D01*
X033186Y030376D01*
X034466Y030376D01*
X034466Y030385D02*
X033186Y030385D01*
X034466Y030385D01*
X033186Y030385D01*
X034466Y030385D01*
X034466Y030393D02*
X033186Y030393D01*
X034466Y030393D01*
X033186Y030393D01*
X034466Y030393D01*
X034466Y030402D02*
X033186Y030402D01*
X034466Y030402D01*
X033186Y030402D01*
X034466Y030402D01*
X034466Y030410D02*
X033186Y030410D01*
X034466Y030410D01*
X033186Y030410D01*
X034466Y030410D01*
X034466Y030419D02*
X033186Y030419D01*
X034466Y030419D01*
X033186Y030419D01*
X034466Y030419D01*
X034466Y030427D02*
X033186Y030427D01*
X034466Y030427D01*
X033186Y030427D01*
X034466Y030427D01*
X034466Y030436D02*
X033186Y030436D01*
X034466Y030436D01*
X033186Y030436D01*
X034466Y030436D01*
X034466Y030444D02*
X033186Y030444D01*
X034466Y030444D01*
X033186Y030444D01*
X034466Y030444D01*
X034466Y030453D02*
X033186Y030453D01*
X034466Y030453D01*
X033186Y030453D01*
X034466Y030453D01*
X034466Y030461D02*
X033186Y030461D01*
X034466Y030461D01*
X033186Y030461D01*
X034466Y030461D01*
X034466Y030470D02*
X033186Y030470D01*
X034466Y030470D01*
X033186Y030470D01*
X034466Y030470D01*
X034466Y030478D02*
X033186Y030478D01*
X034466Y030478D01*
X033186Y030478D01*
X034466Y030478D01*
X034466Y030487D02*
X033186Y030487D01*
X034466Y030487D01*
X033186Y030487D01*
X034466Y030487D01*
X034466Y030495D02*
X033186Y030495D01*
X034466Y030495D01*
X033186Y030495D01*
X034466Y030495D01*
X034466Y030504D02*
X033186Y030504D01*
X034466Y030504D01*
X033186Y030504D01*
X034466Y030504D01*
X034466Y030512D02*
X033186Y030512D01*
X034466Y030512D01*
X033186Y030512D01*
X034466Y030512D01*
X034466Y030521D02*
X033186Y030521D01*
X034466Y030521D01*
X033186Y030521D01*
X034466Y030521D01*
X034466Y030529D02*
X033186Y030529D01*
X034466Y030529D01*
X033186Y030529D01*
X034466Y030529D01*
X034466Y030538D02*
X033186Y030538D01*
X034466Y030538D01*
X033186Y030538D01*
X034466Y030538D01*
X034466Y030546D02*
X033186Y030546D01*
X034466Y030546D01*
X033186Y030546D01*
X034466Y030546D01*
X034466Y030555D02*
X033186Y030555D01*
X034466Y030555D01*
X033186Y030555D01*
X034466Y030555D01*
X034466Y030563D02*
X033186Y030563D01*
X034466Y030563D01*
X033186Y030563D01*
X034466Y030563D01*
X034466Y030572D02*
X033186Y030572D01*
X034466Y030572D01*
X033186Y030572D01*
X034466Y030572D01*
X034466Y030580D02*
X033186Y030580D01*
X034466Y030580D01*
X033186Y030580D01*
X034466Y030580D01*
X034466Y030589D02*
X033186Y030589D01*
X034466Y030589D01*
X033186Y030589D01*
X034466Y030589D01*
X034466Y030597D02*
X033186Y030597D01*
X034466Y030597D01*
X033186Y030597D01*
X034466Y030597D01*
X034466Y030606D02*
X033186Y030606D01*
X034466Y030606D01*
X033186Y030606D01*
X034466Y030606D01*
X034466Y030614D02*
X033186Y030614D01*
X034466Y030614D01*
X033186Y030614D01*
X034466Y030614D01*
X034466Y030623D02*
X033186Y030623D01*
X034466Y030623D01*
X033186Y030623D01*
X034466Y030623D01*
X034466Y030631D02*
X033186Y030631D01*
X034466Y030631D01*
X033186Y030631D01*
X034466Y030631D01*
X034466Y030640D02*
X033186Y030640D01*
X034466Y030640D01*
X033186Y030640D01*
X034466Y030640D01*
X034466Y030648D02*
X033186Y030648D01*
X034466Y030648D01*
X033186Y030648D01*
X034466Y030648D01*
X034466Y030657D02*
X034106Y030657D01*
X034466Y030657D01*
X034106Y030657D01*
X034466Y030657D01*
X034466Y030665D02*
X034106Y030665D01*
X034466Y030665D01*
X034106Y030665D01*
X034466Y030665D01*
X034466Y030674D02*
X034106Y030674D01*
X034466Y030674D01*
X034106Y030674D01*
X034466Y030674D01*
X034466Y030682D02*
X034106Y030682D01*
X034466Y030682D01*
X034106Y030682D01*
X034466Y030682D01*
X034466Y030691D02*
X034106Y030691D01*
X034466Y030691D01*
X034106Y030691D01*
X034466Y030691D01*
X034466Y030699D02*
X034106Y030699D01*
X034466Y030699D01*
X034106Y030699D01*
X034466Y030699D01*
X034466Y030708D02*
X034106Y030708D01*
X034466Y030708D01*
X034106Y030708D01*
X034466Y030708D01*
X034466Y030716D02*
X034106Y030716D01*
X034466Y030716D01*
X034106Y030716D01*
X034466Y030716D01*
X034466Y030725D02*
X034106Y030725D01*
X034466Y030725D01*
X034106Y030725D01*
X034466Y030725D01*
X034466Y030733D02*
X034106Y030733D01*
X034466Y030733D01*
X034106Y030733D01*
X034466Y030733D01*
X034466Y030742D02*
X034106Y030742D01*
X034466Y030742D01*
X034106Y030742D01*
X034466Y030742D01*
X034466Y030750D02*
X034106Y030750D01*
X034466Y030750D01*
X034106Y030750D01*
X034466Y030750D01*
X034466Y030759D02*
X034106Y030759D01*
X034466Y030759D01*
X034106Y030759D01*
X034466Y030759D01*
X034466Y030767D02*
X034106Y030767D01*
X034466Y030767D01*
X034106Y030767D01*
X034466Y030767D01*
X034466Y030776D02*
X033186Y030776D01*
X034466Y030776D01*
X033186Y030776D01*
X034466Y030776D01*
X034466Y030784D02*
X033186Y030784D01*
X034466Y030784D01*
X033186Y030784D01*
X034466Y030784D01*
X034466Y030793D02*
X033186Y030793D01*
X034466Y030793D01*
X033186Y030793D01*
X034466Y030793D01*
X034466Y030801D02*
X033186Y030801D01*
X034466Y030801D01*
X033186Y030801D01*
X034466Y030801D01*
X034466Y030810D02*
X033186Y030810D01*
X034466Y030810D01*
X033186Y030810D01*
X034466Y030810D01*
X034466Y030818D02*
X033186Y030818D01*
X034466Y030818D01*
X033186Y030818D01*
X034466Y030818D01*
X034466Y030827D02*
X033186Y030827D01*
X034466Y030827D01*
X033186Y030827D01*
X034466Y030827D01*
X034466Y030835D02*
X033186Y030835D01*
X034466Y030835D01*
X033186Y030835D01*
X034466Y030835D01*
X034466Y030844D02*
X033186Y030844D01*
X034466Y030844D01*
X033186Y030844D01*
X034466Y030844D01*
X034466Y030852D02*
X033186Y030852D01*
X034466Y030852D01*
X033186Y030852D01*
X034466Y030852D01*
X034466Y030861D02*
X033186Y030861D01*
X034466Y030861D01*
X033186Y030861D01*
X034466Y030861D01*
X034466Y030869D02*
X033186Y030869D01*
X034466Y030869D01*
X033186Y030869D01*
X034466Y030869D01*
X034466Y030878D02*
X033186Y030878D01*
X034466Y030878D01*
X033186Y030878D01*
X034466Y030878D01*
X034466Y030886D02*
X033186Y030886D01*
X034466Y030886D01*
X033186Y030886D01*
X034466Y030886D01*
X034466Y030895D02*
X033186Y030895D01*
X034466Y030895D01*
X033186Y030895D01*
X034466Y030895D01*
X034466Y030903D02*
X033186Y030903D01*
X034466Y030903D01*
X033186Y030903D01*
X034466Y030903D01*
X034466Y030912D02*
X033186Y030912D01*
X034466Y030912D01*
X033186Y030912D01*
X034466Y030912D01*
X034466Y030920D02*
X033186Y030920D01*
X034466Y030920D01*
X033186Y030920D01*
X034466Y030920D01*
X034466Y030929D02*
X033186Y030929D01*
X034466Y030929D01*
X033186Y030929D01*
X034466Y030929D01*
X034466Y030937D02*
X033186Y030937D01*
X034466Y030937D01*
X033186Y030937D01*
X034466Y030937D01*
X034466Y030946D02*
X033186Y030946D01*
X034466Y030946D01*
X033186Y030946D01*
X034466Y030946D01*
X034466Y030954D02*
X033186Y030954D01*
X034466Y030954D01*
X033186Y030954D01*
X034466Y030954D01*
X034466Y030963D02*
X033186Y030963D01*
X034466Y030963D01*
X033186Y030963D01*
X034466Y030963D01*
X034466Y030971D02*
X033186Y030971D01*
X034466Y030971D01*
X033186Y030971D01*
X034466Y030971D01*
X034466Y030980D02*
X033186Y030980D01*
X034466Y030980D01*
X033186Y030980D01*
X034466Y030980D01*
X034466Y030988D02*
X033186Y030988D01*
X034466Y030988D01*
X033186Y030988D01*
X034466Y030988D01*
X034466Y030997D02*
X033186Y030997D01*
X034466Y030997D01*
X033186Y030997D01*
X034466Y030997D01*
X034466Y031005D02*
X033186Y031005D01*
X034466Y031005D01*
X033186Y031005D01*
X034466Y031005D01*
X034466Y031014D02*
X033186Y031014D01*
X034466Y031014D01*
X033186Y031014D01*
X034466Y031014D01*
X034466Y031022D02*
X033186Y031022D01*
X034466Y031022D01*
X033186Y031022D01*
X034466Y031022D01*
X034466Y031031D02*
X033186Y031031D01*
X034466Y031031D01*
X033186Y031031D01*
X034466Y031031D01*
X034466Y031039D02*
X033186Y031039D01*
X034466Y031039D01*
X033186Y031039D01*
X034466Y031039D01*
X034466Y031048D02*
X033186Y031048D01*
X034466Y031048D01*
X033186Y031048D01*
X034466Y031048D01*
X034466Y031056D02*
X033186Y031056D01*
X034466Y031056D01*
X033186Y031056D01*
X034466Y031056D01*
X034466Y031065D02*
X033186Y031065D01*
X034466Y031065D01*
X033186Y031065D01*
X034466Y031065D01*
X034466Y031073D02*
X033186Y031073D01*
X034466Y031073D01*
X033186Y031073D01*
X034466Y031073D01*
X034466Y031082D02*
X033186Y031082D01*
X034466Y031082D01*
X033186Y031082D01*
X034466Y031082D01*
X034466Y031090D02*
X033186Y031090D01*
X034466Y031090D01*
X033186Y031090D01*
X034466Y031090D01*
X034466Y031099D02*
X033186Y031099D01*
X034466Y031099D01*
X033186Y031099D01*
X034466Y031099D01*
X034466Y031107D02*
X033186Y031107D01*
X034466Y031107D01*
X033186Y031107D01*
X034466Y031107D01*
X034466Y031116D02*
X033186Y031116D01*
X034466Y031116D01*
X033186Y031116D01*
X034466Y031116D01*
X034466Y031124D02*
X033186Y031124D01*
X034466Y031124D01*
X033186Y031124D01*
X034466Y031124D01*
X034466Y031133D02*
X033186Y031133D01*
X034466Y031133D01*
X033186Y031133D01*
X034466Y031133D01*
X034466Y030206D02*
X033193Y030206D01*
X034466Y030206D01*
X033193Y030206D01*
X034466Y030206D01*
X034466Y030198D02*
X033201Y030198D01*
X034466Y030198D01*
X033201Y030198D01*
X034466Y030198D01*
X034466Y030189D02*
X033210Y030189D01*
X034466Y030189D01*
X033210Y030189D01*
X034466Y030189D01*
X034466Y030181D02*
X033218Y030181D01*
X034466Y030181D01*
X033218Y030181D01*
X034466Y030181D01*
X034466Y030172D02*
X033227Y030172D01*
X034466Y030172D01*
X033227Y030172D01*
X034466Y030172D01*
X034466Y030164D02*
X033235Y030164D01*
X034466Y030164D01*
X033235Y030164D01*
X034466Y030164D01*
X034466Y030155D02*
X033244Y030155D01*
X034466Y030155D01*
X033244Y030155D01*
X034466Y030155D01*
X034466Y030147D02*
X033252Y030147D01*
X034466Y030147D01*
X033252Y030147D01*
X034466Y030147D01*
X034466Y030138D02*
X033261Y030138D01*
X034466Y030138D01*
X033261Y030138D01*
X034466Y030138D01*
X034466Y030130D02*
X033269Y030130D01*
X034466Y030130D01*
X033269Y030130D01*
X034466Y030130D01*
X034466Y030121D02*
X033278Y030121D01*
X034466Y030121D01*
X033278Y030121D01*
X034466Y030121D01*
X034466Y030113D02*
X033286Y030113D01*
X034466Y030113D01*
X033286Y030113D01*
X034466Y030113D01*
X034466Y030104D02*
X033295Y030104D01*
X034466Y030104D01*
X033295Y030104D01*
X034466Y030104D01*
X034466Y030096D02*
X033303Y030096D01*
X034466Y030096D01*
X033303Y030096D01*
X034466Y030096D01*
X034466Y030087D02*
X033312Y030087D01*
X034466Y030087D01*
X033312Y030087D01*
X034466Y030087D01*
X034466Y030079D02*
X033320Y030079D01*
X034466Y030079D01*
X033320Y030079D01*
X034466Y030079D01*
X034466Y030070D02*
X033329Y030070D01*
X034466Y030070D01*
X033329Y030070D01*
X034466Y030070D01*
X034466Y030062D02*
X033337Y030062D01*
X034466Y030062D01*
X033337Y030062D01*
X034466Y030062D01*
X034466Y030053D02*
X033346Y030053D01*
X034466Y030053D01*
X033346Y030053D01*
X034466Y030053D01*
X034466Y030045D02*
X033354Y030045D01*
X034466Y030045D01*
X033354Y030045D01*
X034466Y030045D01*
X034466Y030036D02*
X033363Y030036D01*
X034466Y030036D01*
X033363Y030036D01*
X034466Y030036D01*
X034466Y030028D02*
X033371Y030028D01*
X034466Y030028D01*
X033371Y030028D01*
X034466Y030028D01*
X034466Y030019D02*
X033380Y030019D01*
X034466Y030019D01*
X033380Y030019D01*
X034466Y030019D01*
X034466Y030011D02*
X033388Y030011D01*
X034466Y030011D01*
X033388Y030011D01*
X034466Y030011D01*
X034466Y030002D02*
X033397Y030002D01*
X034466Y030002D01*
X033397Y030002D01*
X034466Y030002D01*
X034466Y029994D02*
X033405Y029994D01*
X034466Y029994D01*
X033405Y029994D01*
X034466Y029994D01*
X034466Y029985D02*
X033414Y029985D01*
X034466Y029985D01*
X033414Y029985D01*
X034466Y029985D01*
X034466Y029977D02*
X033422Y029977D01*
X034466Y029977D01*
X033422Y029977D01*
X034466Y029977D01*
X034466Y029968D02*
X033431Y029968D01*
X034466Y029968D01*
X033431Y029968D01*
X034466Y029968D01*
X034466Y029960D02*
X033439Y029960D01*
X034466Y029960D01*
X033439Y029960D01*
X034466Y029960D01*
X034466Y029951D02*
X033448Y029951D01*
X034466Y029951D01*
X033448Y029951D01*
X034466Y029951D01*
X034466Y029943D02*
X033456Y029943D01*
X034466Y029943D01*
X033456Y029943D01*
X034466Y029943D01*
X034466Y029934D02*
X033465Y029934D01*
X034466Y029934D01*
X033465Y029934D01*
X034466Y029934D01*
X034466Y029926D02*
X033473Y029926D01*
X034466Y029926D01*
X033473Y029926D01*
X034466Y029926D01*
X034466Y029917D02*
X033482Y029917D01*
X034466Y029917D01*
X033482Y029917D01*
X034466Y029917D01*
X034466Y029909D02*
X033490Y029909D01*
X034466Y029909D01*
X033490Y029909D01*
X034466Y029909D01*
X034466Y029900D02*
X033499Y029900D01*
X034466Y029900D01*
X033499Y029900D01*
X034466Y029900D01*
X034466Y029892D02*
X033507Y029892D01*
X034466Y029892D01*
X033507Y029892D01*
X034466Y029892D01*
X034466Y029883D02*
X033516Y029883D01*
X034466Y029883D01*
X033516Y029883D01*
X034466Y029883D01*
X034466Y029875D02*
X033524Y029875D01*
X034466Y029875D01*
X033524Y029875D01*
X034466Y029875D01*
X034466Y029866D02*
X033533Y029866D01*
X034466Y029866D01*
X033533Y029866D01*
X034466Y029866D01*
X034466Y029858D02*
X033541Y029858D01*
X034466Y029858D01*
X033541Y029858D01*
X034466Y029858D01*
X033664Y030215D02*
X033186Y030215D01*
X033664Y030215D01*
X033186Y030215D01*
X033664Y030215D01*
X033656Y030223D02*
X033186Y030223D01*
X033656Y030223D01*
X033186Y030223D01*
X033656Y030223D01*
X033647Y030232D02*
X033186Y030232D01*
X033647Y030232D01*
X033186Y030232D01*
X033647Y030232D01*
X033639Y030240D02*
X033186Y030240D01*
X033639Y030240D01*
X033186Y030240D01*
X033639Y030240D01*
X033630Y030249D02*
X033186Y030249D01*
X033630Y030249D01*
X033186Y030249D01*
X033630Y030249D01*
X033622Y030257D02*
X033186Y030257D01*
X033622Y030257D01*
X033186Y030257D01*
X033622Y030257D01*
X033613Y030266D02*
X033186Y030266D01*
X033613Y030266D01*
X033186Y030266D01*
X033613Y030266D01*
X033605Y030274D02*
X033186Y030274D01*
X033605Y030274D01*
X033186Y030274D01*
X033605Y030274D01*
X033596Y030283D02*
X033186Y030283D01*
X033596Y030283D01*
X033186Y030283D01*
X033596Y030283D01*
X033588Y030291D02*
X033186Y030291D01*
X033588Y030291D01*
X033186Y030291D01*
X033588Y030291D01*
X033579Y030300D02*
X033186Y030300D01*
X033579Y030300D01*
X033186Y030300D01*
X033579Y030300D01*
X033571Y030308D02*
X033186Y030308D01*
X033571Y030308D01*
X033186Y030308D01*
X033571Y030308D01*
X033562Y030317D02*
X033186Y030317D01*
X033562Y030317D01*
X033186Y030317D01*
X033562Y030317D01*
X033554Y030325D02*
X033186Y030325D01*
X033554Y030325D01*
X033186Y030325D01*
X033554Y030325D01*
X033066Y030325D02*
X032698Y030325D01*
X033066Y030325D01*
X032698Y030325D01*
X033066Y030325D01*
X033066Y030317D02*
X032689Y030317D01*
X033066Y030317D01*
X032689Y030317D01*
X033066Y030317D01*
X033066Y030308D02*
X032681Y030308D01*
X033066Y030308D01*
X032681Y030308D01*
X033066Y030308D01*
X033066Y030300D02*
X032672Y030300D01*
X033066Y030300D01*
X032672Y030300D01*
X033066Y030300D01*
X033066Y030291D02*
X032664Y030291D01*
X033066Y030291D01*
X032664Y030291D01*
X033066Y030291D01*
X033066Y030283D02*
X032655Y030283D01*
X033066Y030283D01*
X032655Y030283D01*
X033066Y030283D01*
X033066Y030274D02*
X032647Y030274D01*
X033066Y030274D01*
X032647Y030274D01*
X033066Y030274D01*
X033066Y030266D02*
X032638Y030266D01*
X033066Y030266D01*
X032638Y030266D01*
X033066Y030266D01*
X033066Y030257D02*
X032630Y030257D01*
X033066Y030257D01*
X032630Y030257D01*
X033066Y030257D01*
X033066Y030249D02*
X032621Y030249D01*
X033066Y030249D01*
X032621Y030249D01*
X033066Y030249D01*
X033066Y030240D02*
X032613Y030240D01*
X033066Y030240D01*
X032613Y030240D01*
X033066Y030240D01*
X033066Y030232D02*
X032604Y030232D01*
X033066Y030232D01*
X032604Y030232D01*
X033066Y030232D01*
X033066Y030223D02*
X032596Y030223D01*
X033066Y030223D01*
X032596Y030223D01*
X033066Y030223D01*
X033066Y030215D02*
X032587Y030215D01*
X033066Y030215D01*
X032587Y030215D01*
X033066Y030215D01*
X033066Y030214D02*
X033066Y031134D01*
X032706Y031134D01*
X032706Y030334D01*
X033066Y030334D01*
X032706Y030334D01*
X033066Y030334D01*
X032706Y030334D01*
X032586Y030214D01*
X032146Y030214D01*
X032146Y030774D01*
X032696Y030774D01*
X032696Y031134D01*
X031786Y031134D01*
X031786Y029854D01*
X032706Y029854D01*
X033066Y030214D01*
X033066Y031134D01*
X032706Y031134D01*
X032706Y030334D01*
X032586Y030214D01*
X032146Y030214D01*
X032146Y030774D01*
X032696Y030774D01*
X032696Y031134D01*
X031786Y031134D01*
X031786Y029854D01*
X032706Y029854D01*
X033066Y030214D01*
X033066Y031134D01*
X032706Y031134D01*
X032706Y030334D01*
X032586Y030214D01*
X032146Y030214D01*
X032146Y030774D01*
X032696Y030774D01*
X032696Y031134D01*
X031786Y031134D01*
X031786Y029854D01*
X032706Y029854D01*
X033066Y030214D01*
X033066Y031134D01*
X032706Y031134D01*
X032706Y030334D01*
X032586Y030214D01*
X032146Y030214D01*
X032146Y030774D01*
X032696Y030774D01*
X032696Y031134D01*
X031786Y031134D01*
X031786Y029854D01*
X032706Y029854D01*
X033066Y030214D01*
X033059Y030206D02*
X031786Y030206D01*
X033059Y030206D01*
X031786Y030206D01*
X033059Y030206D01*
X033050Y030198D02*
X031786Y030198D01*
X033050Y030198D01*
X031786Y030198D01*
X033050Y030198D01*
X033042Y030189D02*
X031786Y030189D01*
X033042Y030189D01*
X031786Y030189D01*
X033042Y030189D01*
X033033Y030181D02*
X031786Y030181D01*
X033033Y030181D01*
X031786Y030181D01*
X033033Y030181D01*
X033025Y030172D02*
X031786Y030172D01*
X033025Y030172D01*
X031786Y030172D01*
X033025Y030172D01*
X033016Y030164D02*
X031786Y030164D01*
X033016Y030164D01*
X031786Y030164D01*
X033016Y030164D01*
X033008Y030155D02*
X031786Y030155D01*
X033008Y030155D01*
X031786Y030155D01*
X033008Y030155D01*
X032999Y030147D02*
X031786Y030147D01*
X032999Y030147D01*
X031786Y030147D01*
X032999Y030147D01*
X032991Y030138D02*
X031786Y030138D01*
X032991Y030138D01*
X031786Y030138D01*
X032991Y030138D01*
X032982Y030130D02*
X031786Y030130D01*
X032982Y030130D01*
X031786Y030130D01*
X032982Y030130D01*
X032974Y030121D02*
X031786Y030121D01*
X032974Y030121D01*
X031786Y030121D01*
X032974Y030121D01*
X032965Y030113D02*
X031786Y030113D01*
X032965Y030113D01*
X031786Y030113D01*
X032965Y030113D01*
X032957Y030104D02*
X031786Y030104D01*
X032957Y030104D01*
X031786Y030104D01*
X032957Y030104D01*
X032948Y030096D02*
X031786Y030096D01*
X032948Y030096D01*
X031786Y030096D01*
X032948Y030096D01*
X032940Y030087D02*
X031786Y030087D01*
X032940Y030087D01*
X031786Y030087D01*
X032940Y030087D01*
X032931Y030079D02*
X031786Y030079D01*
X032931Y030079D01*
X031786Y030079D01*
X032931Y030079D01*
X032923Y030070D02*
X031786Y030070D01*
X032923Y030070D01*
X031786Y030070D01*
X032923Y030070D01*
X032914Y030062D02*
X031786Y030062D01*
X032914Y030062D01*
X031786Y030062D01*
X032914Y030062D01*
X032906Y030053D02*
X031786Y030053D01*
X032906Y030053D01*
X031786Y030053D01*
X032906Y030053D01*
X032897Y030045D02*
X031786Y030045D01*
X032897Y030045D01*
X031786Y030045D01*
X032897Y030045D01*
X032889Y030036D02*
X031786Y030036D01*
X032889Y030036D01*
X031786Y030036D01*
X032889Y030036D01*
X032880Y030028D02*
X031786Y030028D01*
X032880Y030028D01*
X031786Y030028D01*
X032880Y030028D01*
X032872Y030019D02*
X031786Y030019D01*
X032872Y030019D01*
X031786Y030019D01*
X032872Y030019D01*
X032863Y030011D02*
X031786Y030011D01*
X032863Y030011D01*
X031786Y030011D01*
X032863Y030011D01*
X032855Y030002D02*
X031786Y030002D01*
X032855Y030002D01*
X031786Y030002D01*
X032855Y030002D01*
X032846Y029994D02*
X031786Y029994D01*
X032846Y029994D01*
X031786Y029994D01*
X032846Y029994D01*
X032838Y029985D02*
X031786Y029985D01*
X032838Y029985D01*
X031786Y029985D01*
X032838Y029985D01*
X032829Y029977D02*
X031786Y029977D01*
X032829Y029977D01*
X031786Y029977D01*
X032829Y029977D01*
X032821Y029968D02*
X031786Y029968D01*
X032821Y029968D01*
X031786Y029968D01*
X032821Y029968D01*
X032812Y029960D02*
X031786Y029960D01*
X032812Y029960D01*
X031786Y029960D01*
X032812Y029960D01*
X032804Y029951D02*
X031786Y029951D01*
X032804Y029951D01*
X031786Y029951D01*
X032804Y029951D01*
X032795Y029943D02*
X031786Y029943D01*
X032795Y029943D01*
X031786Y029943D01*
X032795Y029943D01*
X032787Y029934D02*
X031786Y029934D01*
X032787Y029934D01*
X031786Y029934D01*
X032787Y029934D01*
X032778Y029926D02*
X031786Y029926D01*
X032778Y029926D01*
X031786Y029926D01*
X032778Y029926D01*
X032770Y029917D02*
X031786Y029917D01*
X032770Y029917D01*
X031786Y029917D01*
X032770Y029917D01*
X032761Y029909D02*
X031786Y029909D01*
X032761Y029909D01*
X031786Y029909D01*
X032761Y029909D01*
X032753Y029900D02*
X031786Y029900D01*
X032753Y029900D01*
X031786Y029900D01*
X032753Y029900D01*
X032744Y029892D02*
X031786Y029892D01*
X032744Y029892D01*
X031786Y029892D01*
X032744Y029892D01*
X032736Y029883D02*
X031786Y029883D01*
X032736Y029883D01*
X031786Y029883D01*
X032736Y029883D01*
X032727Y029875D02*
X031786Y029875D01*
X032727Y029875D01*
X031786Y029875D01*
X032727Y029875D01*
X032719Y029866D02*
X031786Y029866D01*
X032719Y029866D01*
X031786Y029866D01*
X032719Y029866D01*
X032710Y029858D02*
X031786Y029858D01*
X032710Y029858D01*
X031786Y029858D01*
X032710Y029858D01*
X032706Y030342D02*
X033066Y030342D01*
X032706Y030342D01*
X033066Y030342D01*
X032706Y030342D01*
X032706Y030351D02*
X033066Y030351D01*
X032706Y030351D01*
X033066Y030351D01*
X032706Y030351D01*
X032706Y030359D02*
X033066Y030359D01*
X032706Y030359D01*
X033066Y030359D01*
X032706Y030359D01*
X032706Y030368D02*
X033066Y030368D01*
X032706Y030368D01*
X033066Y030368D01*
X032706Y030368D01*
X032706Y030376D02*
X033066Y030376D01*
X032706Y030376D01*
X033066Y030376D01*
X032706Y030376D01*
X032706Y030385D02*
X033066Y030385D01*
X032706Y030385D01*
X033066Y030385D01*
X032706Y030385D01*
X032706Y030393D02*
X033066Y030393D01*
X032706Y030393D01*
X033066Y030393D01*
X032706Y030393D01*
X032706Y030402D02*
X033066Y030402D01*
X032706Y030402D01*
X033066Y030402D01*
X032706Y030402D01*
X032706Y030410D02*
X033066Y030410D01*
X032706Y030410D01*
X033066Y030410D01*
X032706Y030410D01*
X032706Y030419D02*
X033066Y030419D01*
X032706Y030419D01*
X033066Y030419D01*
X032706Y030419D01*
X032706Y030427D02*
X033066Y030427D01*
X032706Y030427D01*
X033066Y030427D01*
X032706Y030427D01*
X032706Y030436D02*
X033066Y030436D01*
X032706Y030436D01*
X033066Y030436D01*
X032706Y030436D01*
X032706Y030444D02*
X033066Y030444D01*
X032706Y030444D01*
X033066Y030444D01*
X032706Y030444D01*
X032706Y030453D02*
X033066Y030453D01*
X032706Y030453D01*
X033066Y030453D01*
X032706Y030453D01*
X032706Y030461D02*
X033066Y030461D01*
X032706Y030461D01*
X033066Y030461D01*
X032706Y030461D01*
X032706Y030470D02*
X033066Y030470D01*
X032706Y030470D01*
X033066Y030470D01*
X032706Y030470D01*
X032706Y030478D02*
X033066Y030478D01*
X032706Y030478D01*
X033066Y030478D01*
X032706Y030478D01*
X032706Y030487D02*
X033066Y030487D01*
X032706Y030487D01*
X033066Y030487D01*
X032706Y030487D01*
X032706Y030495D02*
X033066Y030495D01*
X032706Y030495D01*
X033066Y030495D01*
X032706Y030495D01*
X032706Y030504D02*
X033066Y030504D01*
X032706Y030504D01*
X033066Y030504D01*
X032706Y030504D01*
X032706Y030512D02*
X033066Y030512D01*
X032706Y030512D01*
X033066Y030512D01*
X032706Y030512D01*
X032706Y030521D02*
X033066Y030521D01*
X032706Y030521D01*
X033066Y030521D01*
X032706Y030521D01*
X032706Y030529D02*
X033066Y030529D01*
X032706Y030529D01*
X033066Y030529D01*
X032706Y030529D01*
X032706Y030538D02*
X033066Y030538D01*
X032706Y030538D01*
X033066Y030538D01*
X032706Y030538D01*
X032706Y030546D02*
X033066Y030546D01*
X032706Y030546D01*
X033066Y030546D01*
X032706Y030546D01*
X032706Y030555D02*
X033066Y030555D01*
X032706Y030555D01*
X033066Y030555D01*
X032706Y030555D01*
X032706Y030563D02*
X033066Y030563D01*
X032706Y030563D01*
X033066Y030563D01*
X032706Y030563D01*
X032706Y030572D02*
X033066Y030572D01*
X032706Y030572D01*
X033066Y030572D01*
X032706Y030572D01*
X032706Y030580D02*
X033066Y030580D01*
X032706Y030580D01*
X033066Y030580D01*
X032706Y030580D01*
X032706Y030589D02*
X033066Y030589D01*
X032706Y030589D01*
X033066Y030589D01*
X032706Y030589D01*
X032706Y030597D02*
X033066Y030597D01*
X032706Y030597D01*
X033066Y030597D01*
X032706Y030597D01*
X032706Y030606D02*
X033066Y030606D01*
X032706Y030606D01*
X033066Y030606D01*
X032706Y030606D01*
X032706Y030614D02*
X033066Y030614D01*
X032706Y030614D01*
X033066Y030614D01*
X032706Y030614D01*
X032706Y030623D02*
X033066Y030623D01*
X032706Y030623D01*
X033066Y030623D01*
X032706Y030623D01*
X032706Y030631D02*
X033066Y030631D01*
X032706Y030631D01*
X033066Y030631D01*
X032706Y030631D01*
X032706Y030640D02*
X033066Y030640D01*
X032706Y030640D01*
X033066Y030640D01*
X032706Y030640D01*
X032706Y030648D02*
X033066Y030648D01*
X032706Y030648D01*
X033066Y030648D01*
X032706Y030648D01*
X032706Y030657D02*
X033066Y030657D01*
X032706Y030657D01*
X033066Y030657D01*
X032706Y030657D01*
X032706Y030665D02*
X033066Y030665D01*
X032706Y030665D01*
X033066Y030665D01*
X032706Y030665D01*
X032706Y030674D02*
X033066Y030674D01*
X032706Y030674D01*
X033066Y030674D01*
X032706Y030674D01*
X032706Y030682D02*
X033066Y030682D01*
X032706Y030682D01*
X033066Y030682D01*
X032706Y030682D01*
X032706Y030691D02*
X033066Y030691D01*
X032706Y030691D01*
X033066Y030691D01*
X032706Y030691D01*
X032706Y030699D02*
X033066Y030699D01*
X032706Y030699D01*
X033066Y030699D01*
X032706Y030699D01*
X032706Y030708D02*
X033066Y030708D01*
X032706Y030708D01*
X033066Y030708D01*
X032706Y030708D01*
X032706Y030716D02*
X033066Y030716D01*
X032706Y030716D01*
X033066Y030716D01*
X032706Y030716D01*
X032706Y030725D02*
X033066Y030725D01*
X032706Y030725D01*
X033066Y030725D01*
X032706Y030725D01*
X032706Y030733D02*
X033066Y030733D01*
X032706Y030733D01*
X033066Y030733D01*
X032706Y030733D01*
X032706Y030742D02*
X033066Y030742D01*
X032706Y030742D01*
X033066Y030742D01*
X032706Y030742D01*
X032706Y030750D02*
X033066Y030750D01*
X032706Y030750D01*
X033066Y030750D01*
X032706Y030750D01*
X032706Y030759D02*
X033066Y030759D01*
X032706Y030759D01*
X033066Y030759D01*
X032706Y030759D01*
X032706Y030767D02*
X033066Y030767D01*
X032706Y030767D01*
X033066Y030767D01*
X032706Y030767D01*
X032706Y030776D02*
X033066Y030776D01*
X032706Y030776D01*
X033066Y030776D01*
X032706Y030776D01*
X032706Y030784D02*
X033066Y030784D01*
X032706Y030784D01*
X033066Y030784D01*
X032706Y030784D01*
X032706Y030793D02*
X033066Y030793D01*
X032706Y030793D01*
X033066Y030793D01*
X032706Y030793D01*
X032706Y030801D02*
X033066Y030801D01*
X032706Y030801D01*
X033066Y030801D01*
X032706Y030801D01*
X032706Y030810D02*
X033066Y030810D01*
X032706Y030810D01*
X033066Y030810D01*
X032706Y030810D01*
X032706Y030818D02*
X033066Y030818D01*
X032706Y030818D01*
X033066Y030818D01*
X032706Y030818D01*
X032706Y030827D02*
X033066Y030827D01*
X032706Y030827D01*
X033066Y030827D01*
X032706Y030827D01*
X032706Y030835D02*
X033066Y030835D01*
X032706Y030835D01*
X033066Y030835D01*
X032706Y030835D01*
X032706Y030844D02*
X033066Y030844D01*
X032706Y030844D01*
X033066Y030844D01*
X032706Y030844D01*
X032706Y030852D02*
X033066Y030852D01*
X032706Y030852D01*
X033066Y030852D01*
X032706Y030852D01*
X032706Y030861D02*
X033066Y030861D01*
X032706Y030861D01*
X033066Y030861D01*
X032706Y030861D01*
X032706Y030869D02*
X033066Y030869D01*
X032706Y030869D01*
X033066Y030869D01*
X032706Y030869D01*
X032706Y030878D02*
X033066Y030878D01*
X032706Y030878D01*
X033066Y030878D01*
X032706Y030878D01*
X032706Y030886D02*
X033066Y030886D01*
X032706Y030886D01*
X033066Y030886D01*
X032706Y030886D01*
X032706Y030895D02*
X033066Y030895D01*
X032706Y030895D01*
X033066Y030895D01*
X032706Y030895D01*
X032706Y030903D02*
X033066Y030903D01*
X032706Y030903D01*
X033066Y030903D01*
X032706Y030903D01*
X032706Y030912D02*
X033066Y030912D01*
X032706Y030912D01*
X033066Y030912D01*
X032706Y030912D01*
X032706Y030920D02*
X033066Y030920D01*
X032706Y030920D01*
X033066Y030920D01*
X032706Y030920D01*
X032706Y030929D02*
X033066Y030929D01*
X032706Y030929D01*
X033066Y030929D01*
X032706Y030929D01*
X032706Y030937D02*
X033066Y030937D01*
X032706Y030937D01*
X033066Y030937D01*
X032706Y030937D01*
X032706Y030946D02*
X033066Y030946D01*
X032706Y030946D01*
X033066Y030946D01*
X032706Y030946D01*
X032706Y030954D02*
X033066Y030954D01*
X032706Y030954D01*
X033066Y030954D01*
X032706Y030954D01*
X032706Y030963D02*
X033066Y030963D01*
X032706Y030963D01*
X033066Y030963D01*
X032706Y030963D01*
X032706Y030971D02*
X033066Y030971D01*
X032706Y030971D01*
X033066Y030971D01*
X032706Y030971D01*
X032706Y030980D02*
X033066Y030980D01*
X032706Y030980D01*
X033066Y030980D01*
X032706Y030980D01*
X032706Y030988D02*
X033066Y030988D01*
X032706Y030988D01*
X033066Y030988D01*
X032706Y030988D01*
X032706Y030997D02*
X033066Y030997D01*
X032706Y030997D01*
X033066Y030997D01*
X032706Y030997D01*
X032706Y031005D02*
X033066Y031005D01*
X032706Y031005D01*
X033066Y031005D01*
X032706Y031005D01*
X032706Y031014D02*
X033066Y031014D01*
X032706Y031014D01*
X033066Y031014D01*
X032706Y031014D01*
X032706Y031022D02*
X033066Y031022D01*
X032706Y031022D01*
X033066Y031022D01*
X032706Y031022D01*
X032706Y031031D02*
X033066Y031031D01*
X032706Y031031D01*
X033066Y031031D01*
X032706Y031031D01*
X032706Y031039D02*
X033066Y031039D01*
X032706Y031039D01*
X033066Y031039D01*
X032706Y031039D01*
X032706Y031048D02*
X033066Y031048D01*
X032706Y031048D01*
X033066Y031048D01*
X032706Y031048D01*
X032706Y031056D02*
X033066Y031056D01*
X032706Y031056D01*
X033066Y031056D01*
X032706Y031056D01*
X032706Y031065D02*
X033066Y031065D01*
X032706Y031065D01*
X033066Y031065D01*
X032706Y031065D01*
X032706Y031073D02*
X033066Y031073D01*
X032706Y031073D01*
X033066Y031073D01*
X032706Y031073D01*
X032706Y031082D02*
X033066Y031082D01*
X032706Y031082D01*
X033066Y031082D01*
X032706Y031082D01*
X032706Y031090D02*
X033066Y031090D01*
X032706Y031090D01*
X033066Y031090D01*
X032706Y031090D01*
X032706Y031099D02*
X033066Y031099D01*
X032706Y031099D01*
X033066Y031099D01*
X032706Y031099D01*
X032706Y031107D02*
X033066Y031107D01*
X032706Y031107D01*
X033066Y031107D01*
X032706Y031107D01*
X032706Y031116D02*
X033066Y031116D01*
X032706Y031116D01*
X033066Y031116D01*
X032706Y031116D01*
X032706Y031124D02*
X033066Y031124D01*
X032706Y031124D01*
X033066Y031124D01*
X032706Y031124D01*
X032706Y031133D02*
X033066Y031133D01*
X032706Y031133D01*
X033066Y031133D01*
X032706Y031133D01*
X032696Y031133D02*
X031786Y031133D01*
X032696Y031133D01*
X031786Y031133D01*
X032696Y031133D01*
X032696Y031124D02*
X031786Y031124D01*
X032696Y031124D01*
X031786Y031124D01*
X032696Y031124D01*
X032696Y031116D02*
X031786Y031116D01*
X032696Y031116D01*
X031786Y031116D01*
X032696Y031116D01*
X032696Y031107D02*
X031786Y031107D01*
X032696Y031107D01*
X031786Y031107D01*
X032696Y031107D01*
X032696Y031099D02*
X031786Y031099D01*
X032696Y031099D01*
X031786Y031099D01*
X032696Y031099D01*
X032696Y031090D02*
X031786Y031090D01*
X032696Y031090D01*
X031786Y031090D01*
X032696Y031090D01*
X032696Y031082D02*
X031786Y031082D01*
X032696Y031082D01*
X031786Y031082D01*
X032696Y031082D01*
X032696Y031073D02*
X031786Y031073D01*
X032696Y031073D01*
X031786Y031073D01*
X032696Y031073D01*
X032696Y031065D02*
X031786Y031065D01*
X032696Y031065D01*
X031786Y031065D01*
X032696Y031065D01*
X032696Y031056D02*
X031786Y031056D01*
X032696Y031056D01*
X031786Y031056D01*
X032696Y031056D01*
X032696Y031048D02*
X031786Y031048D01*
X032696Y031048D01*
X031786Y031048D01*
X032696Y031048D01*
X032696Y031039D02*
X031786Y031039D01*
X032696Y031039D01*
X031786Y031039D01*
X032696Y031039D01*
X032696Y031031D02*
X031786Y031031D01*
X032696Y031031D01*
X031786Y031031D01*
X032696Y031031D01*
X032696Y031022D02*
X031786Y031022D01*
X032696Y031022D01*
X031786Y031022D01*
X032696Y031022D01*
X032696Y031014D02*
X031786Y031014D01*
X032696Y031014D01*
X031786Y031014D01*
X032696Y031014D01*
X032696Y031005D02*
X031786Y031005D01*
X032696Y031005D01*
X031786Y031005D01*
X032696Y031005D01*
X032696Y030997D02*
X031786Y030997D01*
X032696Y030997D01*
X031786Y030997D01*
X032696Y030997D01*
X032696Y030988D02*
X031786Y030988D01*
X032696Y030988D01*
X031786Y030988D01*
X032696Y030988D01*
X032696Y030980D02*
X031786Y030980D01*
X032696Y030980D01*
X031786Y030980D01*
X032696Y030980D01*
X032696Y030971D02*
X031786Y030971D01*
X032696Y030971D01*
X031786Y030971D01*
X032696Y030971D01*
X032696Y030963D02*
X031786Y030963D01*
X032696Y030963D01*
X031786Y030963D01*
X032696Y030963D01*
X032696Y030954D02*
X031786Y030954D01*
X032696Y030954D01*
X031786Y030954D01*
X032696Y030954D01*
X032696Y030946D02*
X031786Y030946D01*
X032696Y030946D01*
X031786Y030946D01*
X032696Y030946D01*
X032696Y030937D02*
X031786Y030937D01*
X032696Y030937D01*
X031786Y030937D01*
X032696Y030937D01*
X032696Y030929D02*
X031786Y030929D01*
X032696Y030929D01*
X031786Y030929D01*
X032696Y030929D01*
X032696Y030920D02*
X031786Y030920D01*
X032696Y030920D01*
X031786Y030920D01*
X032696Y030920D01*
X032696Y030912D02*
X031786Y030912D01*
X032696Y030912D01*
X031786Y030912D01*
X032696Y030912D01*
X032696Y030903D02*
X031786Y030903D01*
X032696Y030903D01*
X031786Y030903D01*
X032696Y030903D01*
X032696Y030895D02*
X031786Y030895D01*
X032696Y030895D01*
X031786Y030895D01*
X032696Y030895D01*
X032696Y030886D02*
X031786Y030886D01*
X032696Y030886D01*
X031786Y030886D01*
X032696Y030886D01*
X032696Y030878D02*
X031786Y030878D01*
X032696Y030878D01*
X031786Y030878D01*
X032696Y030878D01*
X032696Y030869D02*
X031786Y030869D01*
X032696Y030869D01*
X031786Y030869D01*
X032696Y030869D01*
X032696Y030861D02*
X031786Y030861D01*
X032696Y030861D01*
X031786Y030861D01*
X032696Y030861D01*
X032696Y030852D02*
X031786Y030852D01*
X032696Y030852D01*
X031786Y030852D01*
X032696Y030852D01*
X032696Y030844D02*
X031786Y030844D01*
X032696Y030844D01*
X031786Y030844D01*
X032696Y030844D01*
X032696Y030835D02*
X031786Y030835D01*
X032696Y030835D01*
X031786Y030835D01*
X032696Y030835D01*
X032696Y030827D02*
X031786Y030827D01*
X032696Y030827D01*
X031786Y030827D01*
X032696Y030827D01*
X032696Y030818D02*
X031786Y030818D01*
X032696Y030818D01*
X031786Y030818D01*
X032696Y030818D01*
X032696Y030810D02*
X031786Y030810D01*
X032696Y030810D01*
X031786Y030810D01*
X032696Y030810D01*
X032696Y030801D02*
X031786Y030801D01*
X032696Y030801D01*
X031786Y030801D01*
X032696Y030801D01*
X032696Y030793D02*
X031786Y030793D01*
X032696Y030793D01*
X031786Y030793D01*
X032696Y030793D01*
X032696Y030784D02*
X031786Y030784D01*
X032696Y030784D01*
X031786Y030784D01*
X032696Y030784D01*
X032696Y030776D02*
X031786Y030776D01*
X032696Y030776D01*
X031786Y030776D01*
X032696Y030776D01*
X032146Y030767D02*
X031786Y030767D01*
X032146Y030767D01*
X031786Y030767D01*
X032146Y030767D01*
X032146Y030759D02*
X031786Y030759D01*
X032146Y030759D01*
X031786Y030759D01*
X032146Y030759D01*
X032146Y030750D02*
X031786Y030750D01*
X032146Y030750D01*
X031786Y030750D01*
X032146Y030750D01*
X032146Y030742D02*
X031786Y030742D01*
X032146Y030742D01*
X031786Y030742D01*
X032146Y030742D01*
X032146Y030733D02*
X031786Y030733D01*
X032146Y030733D01*
X031786Y030733D01*
X032146Y030733D01*
X032146Y030725D02*
X031786Y030725D01*
X032146Y030725D01*
X031786Y030725D01*
X032146Y030725D01*
X032146Y030716D02*
X031786Y030716D01*
X032146Y030716D01*
X031786Y030716D01*
X032146Y030716D01*
X032146Y030708D02*
X031786Y030708D01*
X032146Y030708D01*
X031786Y030708D01*
X032146Y030708D01*
X032146Y030699D02*
X031786Y030699D01*
X032146Y030699D01*
X031786Y030699D01*
X032146Y030699D01*
X032146Y030691D02*
X031786Y030691D01*
X032146Y030691D01*
X031786Y030691D01*
X032146Y030691D01*
X032146Y030682D02*
X031786Y030682D01*
X032146Y030682D01*
X031786Y030682D01*
X032146Y030682D01*
X032146Y030674D02*
X031786Y030674D01*
X032146Y030674D01*
X031786Y030674D01*
X032146Y030674D01*
X032146Y030665D02*
X031786Y030665D01*
X032146Y030665D01*
X031786Y030665D01*
X032146Y030665D01*
X032146Y030657D02*
X031786Y030657D01*
X032146Y030657D01*
X031786Y030657D01*
X032146Y030657D01*
X032146Y030648D02*
X031786Y030648D01*
X032146Y030648D01*
X031786Y030648D01*
X032146Y030648D01*
X032146Y030640D02*
X031786Y030640D01*
X032146Y030640D01*
X031786Y030640D01*
X032146Y030640D01*
X032146Y030631D02*
X031786Y030631D01*
X032146Y030631D01*
X031786Y030631D01*
X032146Y030631D01*
X032146Y030623D02*
X031786Y030623D01*
X032146Y030623D01*
X031786Y030623D01*
X032146Y030623D01*
X032146Y030614D02*
X031786Y030614D01*
X032146Y030614D01*
X031786Y030614D01*
X032146Y030614D01*
X032146Y030606D02*
X031786Y030606D01*
X032146Y030606D01*
X031786Y030606D01*
X032146Y030606D01*
X032146Y030597D02*
X031786Y030597D01*
X032146Y030597D01*
X031786Y030597D01*
X032146Y030597D01*
X032146Y030589D02*
X031786Y030589D01*
X032146Y030589D01*
X031786Y030589D01*
X032146Y030589D01*
X032146Y030580D02*
X031786Y030580D01*
X032146Y030580D01*
X031786Y030580D01*
X032146Y030580D01*
X032146Y030572D02*
X031786Y030572D01*
X032146Y030572D01*
X031786Y030572D01*
X032146Y030572D01*
X032146Y030563D02*
X031786Y030563D01*
X032146Y030563D01*
X031786Y030563D01*
X032146Y030563D01*
X032146Y030555D02*
X031786Y030555D01*
X032146Y030555D01*
X031786Y030555D01*
X032146Y030555D01*
X032146Y030546D02*
X031786Y030546D01*
X032146Y030546D01*
X031786Y030546D01*
X032146Y030546D01*
X032146Y030538D02*
X031786Y030538D01*
X032146Y030538D01*
X031786Y030538D01*
X032146Y030538D01*
X032146Y030529D02*
X031786Y030529D01*
X032146Y030529D01*
X031786Y030529D01*
X032146Y030529D01*
X032146Y030521D02*
X031786Y030521D01*
X032146Y030521D01*
X031786Y030521D01*
X032146Y030521D01*
X032146Y030512D02*
X031786Y030512D01*
X032146Y030512D01*
X031786Y030512D01*
X032146Y030512D01*
X032146Y030504D02*
X031786Y030504D01*
X032146Y030504D01*
X031786Y030504D01*
X032146Y030504D01*
X032146Y030495D02*
X031786Y030495D01*
X032146Y030495D01*
X031786Y030495D01*
X032146Y030495D01*
X032146Y030487D02*
X031786Y030487D01*
X032146Y030487D01*
X031786Y030487D01*
X032146Y030487D01*
X032146Y030478D02*
X031786Y030478D01*
X032146Y030478D01*
X031786Y030478D01*
X032146Y030478D01*
X032146Y030470D02*
X031786Y030470D01*
X032146Y030470D01*
X031786Y030470D01*
X032146Y030470D01*
X032146Y030461D02*
X031786Y030461D01*
X032146Y030461D01*
X031786Y030461D01*
X032146Y030461D01*
X032146Y030453D02*
X031786Y030453D01*
X032146Y030453D01*
X031786Y030453D01*
X032146Y030453D01*
X032146Y030444D02*
X031786Y030444D01*
X032146Y030444D01*
X031786Y030444D01*
X032146Y030444D01*
X032146Y030436D02*
X031786Y030436D01*
X032146Y030436D01*
X031786Y030436D01*
X032146Y030436D01*
X032146Y030427D02*
X031786Y030427D01*
X032146Y030427D01*
X031786Y030427D01*
X032146Y030427D01*
X032146Y030419D02*
X031786Y030419D01*
X032146Y030419D01*
X031786Y030419D01*
X032146Y030419D01*
X032146Y030410D02*
X031786Y030410D01*
X032146Y030410D01*
X031786Y030410D01*
X032146Y030410D01*
X032146Y030402D02*
X031786Y030402D01*
X032146Y030402D01*
X031786Y030402D01*
X032146Y030402D01*
X032146Y030393D02*
X031786Y030393D01*
X032146Y030393D01*
X031786Y030393D01*
X032146Y030393D01*
X032146Y030385D02*
X031786Y030385D01*
X032146Y030385D01*
X031786Y030385D01*
X032146Y030385D01*
X032146Y030376D02*
X031786Y030376D01*
X032146Y030376D01*
X031786Y030376D01*
X032146Y030376D01*
X032146Y030368D02*
X031786Y030368D01*
X032146Y030368D01*
X031786Y030368D01*
X032146Y030368D01*
X032146Y030359D02*
X031786Y030359D01*
X032146Y030359D01*
X031786Y030359D01*
X032146Y030359D01*
X032146Y030351D02*
X031786Y030351D01*
X032146Y030351D01*
X031786Y030351D01*
X032146Y030351D01*
X032146Y030342D02*
X031786Y030342D01*
X032146Y030342D01*
X031786Y030342D01*
X032146Y030342D01*
X032146Y030334D02*
X031786Y030334D01*
X032146Y030334D01*
X031786Y030334D01*
X032146Y030334D01*
X032146Y030325D02*
X031786Y030325D01*
X032146Y030325D01*
X031786Y030325D01*
X032146Y030325D01*
X032146Y030317D02*
X031786Y030317D01*
X032146Y030317D01*
X031786Y030317D01*
X032146Y030317D01*
X032146Y030308D02*
X031786Y030308D01*
X032146Y030308D01*
X031786Y030308D01*
X032146Y030308D01*
X032146Y030300D02*
X031786Y030300D01*
X032146Y030300D01*
X031786Y030300D01*
X032146Y030300D01*
X032146Y030291D02*
X031786Y030291D01*
X032146Y030291D01*
X031786Y030291D01*
X032146Y030291D01*
X032146Y030283D02*
X031786Y030283D01*
X032146Y030283D01*
X031786Y030283D01*
X032146Y030283D01*
X032146Y030274D02*
X031786Y030274D01*
X032146Y030274D01*
X031786Y030274D01*
X032146Y030274D01*
X032146Y030266D02*
X031786Y030266D01*
X032146Y030266D01*
X031786Y030266D01*
X032146Y030266D01*
X032146Y030257D02*
X031786Y030257D01*
X032146Y030257D01*
X031786Y030257D01*
X032146Y030257D01*
X032146Y030249D02*
X031786Y030249D01*
X032146Y030249D01*
X031786Y030249D01*
X032146Y030249D01*
X032146Y030240D02*
X031786Y030240D01*
X032146Y030240D01*
X031786Y030240D01*
X032146Y030240D01*
X032146Y030232D02*
X031786Y030232D01*
X032146Y030232D01*
X031786Y030232D01*
X032146Y030232D01*
X032146Y030223D02*
X031786Y030223D01*
X032146Y030223D01*
X031786Y030223D01*
X032146Y030223D01*
X032146Y030215D02*
X031786Y030215D01*
X032146Y030215D01*
X031786Y030215D01*
X032146Y030215D01*
X031666Y030215D02*
X031306Y030215D01*
X031666Y030215D01*
X031306Y030215D01*
X031666Y030215D01*
X031666Y030223D02*
X031306Y030223D01*
X031666Y030223D01*
X031306Y030223D01*
X031666Y030223D01*
X031666Y030232D02*
X031306Y030232D01*
X031666Y030232D01*
X031306Y030232D01*
X031666Y030232D01*
X031666Y030240D02*
X031306Y030240D01*
X031666Y030240D01*
X031306Y030240D01*
X031666Y030240D01*
X031666Y030249D02*
X031306Y030249D01*
X031666Y030249D01*
X031306Y030249D01*
X031666Y030249D01*
X031666Y030257D02*
X031306Y030257D01*
X031666Y030257D01*
X031306Y030257D01*
X031666Y030257D01*
X031666Y030266D02*
X031306Y030266D01*
X031666Y030266D01*
X031306Y030266D01*
X031666Y030266D01*
X031666Y030274D02*
X031306Y030274D01*
X031666Y030274D01*
X031306Y030274D01*
X031666Y030274D01*
X031666Y030283D02*
X031306Y030283D01*
X031666Y030283D01*
X031306Y030283D01*
X031666Y030283D01*
X031666Y030291D02*
X031306Y030291D01*
X031666Y030291D01*
X031306Y030291D01*
X031666Y030291D01*
X031666Y030300D02*
X031306Y030300D01*
X031666Y030300D01*
X031306Y030300D01*
X031666Y030300D01*
X031666Y030308D02*
X031306Y030308D01*
X031666Y030308D01*
X031306Y030308D01*
X031666Y030308D01*
X031666Y030317D02*
X031306Y030317D01*
X031666Y030317D01*
X031306Y030317D01*
X031666Y030317D01*
X031666Y030325D02*
X031306Y030325D01*
X031666Y030325D01*
X031306Y030325D01*
X031666Y030325D01*
X031666Y030334D02*
X030386Y030334D01*
X031666Y030334D01*
X030386Y030334D01*
X031666Y030334D01*
X031666Y030342D02*
X030386Y030342D01*
X031666Y030342D01*
X030386Y030342D01*
X031666Y030342D01*
X031666Y030351D02*
X030386Y030351D01*
X031666Y030351D01*
X030386Y030351D01*
X031666Y030351D01*
X031666Y030359D02*
X030386Y030359D01*
X031666Y030359D01*
X030386Y030359D01*
X031666Y030359D01*
X031666Y030368D02*
X030386Y030368D01*
X031666Y030368D01*
X030386Y030368D01*
X031666Y030368D01*
X031666Y030376D02*
X030386Y030376D01*
X031666Y030376D01*
X030386Y030376D01*
X031666Y030376D01*
X031666Y030385D02*
X030386Y030385D01*
X031666Y030385D01*
X030386Y030385D01*
X031666Y030385D01*
X031666Y030393D02*
X030386Y030393D01*
X031666Y030393D01*
X030386Y030393D01*
X031666Y030393D01*
X031666Y030402D02*
X030386Y030402D01*
X031666Y030402D01*
X030386Y030402D01*
X031666Y030402D01*
X031666Y030410D02*
X030386Y030410D01*
X031666Y030410D01*
X030386Y030410D01*
X031666Y030410D01*
X031666Y030419D02*
X030386Y030419D01*
X031666Y030419D01*
X030386Y030419D01*
X031666Y030419D01*
X031666Y030427D02*
X030386Y030427D01*
X031666Y030427D01*
X030386Y030427D01*
X031666Y030427D01*
X031666Y030436D02*
X030386Y030436D01*
X031666Y030436D01*
X030386Y030436D01*
X031666Y030436D01*
X031666Y030444D02*
X030386Y030444D01*
X031666Y030444D01*
X030386Y030444D01*
X031666Y030444D01*
X031666Y030453D02*
X030386Y030453D01*
X031666Y030453D01*
X030386Y030453D01*
X031666Y030453D01*
X031666Y030461D02*
X030386Y030461D01*
X031666Y030461D01*
X030386Y030461D01*
X031666Y030461D01*
X031666Y030470D02*
X030386Y030470D01*
X031666Y030470D01*
X030386Y030470D01*
X031666Y030470D01*
X031666Y030478D02*
X030386Y030478D01*
X031666Y030478D01*
X030386Y030478D01*
X031666Y030478D01*
X031666Y030487D02*
X030386Y030487D01*
X031666Y030487D01*
X030386Y030487D01*
X031666Y030487D01*
X031666Y030495D02*
X030386Y030495D01*
X031666Y030495D01*
X030386Y030495D01*
X031666Y030495D01*
X031666Y030504D02*
X030386Y030504D01*
X031666Y030504D01*
X030386Y030504D01*
X031666Y030504D01*
X031666Y030512D02*
X030386Y030512D01*
X031666Y030512D01*
X030386Y030512D01*
X031666Y030512D01*
X031666Y030521D02*
X030386Y030521D01*
X031666Y030521D01*
X030386Y030521D01*
X031666Y030521D01*
X031666Y030529D02*
X030386Y030529D01*
X031666Y030529D01*
X030386Y030529D01*
X031666Y030529D01*
X031666Y030538D02*
X030386Y030538D01*
X031666Y030538D01*
X030386Y030538D01*
X031666Y030538D01*
X031666Y030546D02*
X030386Y030546D01*
X031666Y030546D01*
X030386Y030546D01*
X031666Y030546D01*
X031666Y030555D02*
X030386Y030555D01*
X031666Y030555D01*
X030386Y030555D01*
X031666Y030555D01*
X031666Y030563D02*
X030386Y030563D01*
X031666Y030563D01*
X030386Y030563D01*
X031666Y030563D01*
X031666Y030572D02*
X030386Y030572D01*
X031666Y030572D01*
X030386Y030572D01*
X031666Y030572D01*
X031666Y030580D02*
X030386Y030580D01*
X031666Y030580D01*
X030386Y030580D01*
X031666Y030580D01*
X031666Y030589D02*
X030386Y030589D01*
X031666Y030589D01*
X030386Y030589D01*
X031666Y030589D01*
X031666Y030597D02*
X030386Y030597D01*
X031666Y030597D01*
X030386Y030597D01*
X031666Y030597D01*
X031666Y030606D02*
X030386Y030606D01*
X031666Y030606D01*
X030386Y030606D01*
X031666Y030606D01*
X031666Y030614D02*
X030386Y030614D01*
X031666Y030614D01*
X030386Y030614D01*
X031666Y030614D01*
X031666Y030623D02*
X030386Y030623D01*
X031666Y030623D01*
X030386Y030623D01*
X031666Y030623D01*
X031666Y030631D02*
X030386Y030631D01*
X031666Y030631D01*
X030386Y030631D01*
X031666Y030631D01*
X031666Y030640D02*
X030386Y030640D01*
X031666Y030640D01*
X030386Y030640D01*
X031666Y030640D01*
X031666Y030648D02*
X030386Y030648D01*
X031666Y030648D01*
X030386Y030648D01*
X031666Y030648D01*
X031666Y030654D02*
X031666Y029854D01*
X030386Y029854D01*
X030386Y030214D01*
X031306Y030214D01*
X031306Y030334D01*
X030386Y030334D01*
X030386Y030774D01*
X030746Y031134D01*
X031666Y031134D01*
X031666Y030774D01*
X030866Y030774D01*
X030746Y030654D01*
X031666Y030654D01*
X031666Y029854D01*
X030386Y029854D01*
X030386Y030214D01*
X031306Y030214D01*
X031306Y030334D01*
X030386Y030334D01*
X030386Y030774D01*
X030746Y031134D01*
X031666Y031134D01*
X031666Y030774D01*
X030866Y030774D01*
X030746Y030654D01*
X031666Y030654D01*
X031666Y029854D01*
X030386Y029854D01*
X030386Y030214D01*
X031306Y030214D01*
X031306Y030334D01*
X030386Y030334D01*
X030386Y030774D01*
X030746Y031134D01*
X031666Y031134D01*
X031666Y030774D01*
X030866Y030774D01*
X030746Y030654D01*
X031666Y030654D01*
X031666Y029854D01*
X030386Y029854D01*
X030386Y030214D01*
X031306Y030214D01*
X031306Y030334D01*
X030386Y030334D01*
X030386Y030774D01*
X030746Y031134D01*
X031666Y031134D01*
X031666Y030774D01*
X030866Y030774D01*
X030746Y030654D01*
X031666Y030654D01*
X031666Y030776D02*
X030388Y030776D01*
X031666Y030776D01*
X030388Y030776D01*
X031666Y030776D01*
X031666Y030784D02*
X030397Y030784D01*
X031666Y030784D01*
X030397Y030784D01*
X031666Y030784D01*
X031666Y030793D02*
X030405Y030793D01*
X031666Y030793D01*
X030405Y030793D01*
X031666Y030793D01*
X031666Y030801D02*
X030414Y030801D01*
X031666Y030801D01*
X030414Y030801D01*
X031666Y030801D01*
X031666Y030810D02*
X030422Y030810D01*
X031666Y030810D01*
X030422Y030810D01*
X031666Y030810D01*
X031666Y030818D02*
X030431Y030818D01*
X031666Y030818D01*
X030431Y030818D01*
X031666Y030818D01*
X031666Y030827D02*
X030439Y030827D01*
X031666Y030827D01*
X030439Y030827D01*
X031666Y030827D01*
X031666Y030835D02*
X030448Y030835D01*
X031666Y030835D01*
X030448Y030835D01*
X031666Y030835D01*
X031666Y030844D02*
X030456Y030844D01*
X031666Y030844D01*
X030456Y030844D01*
X031666Y030844D01*
X031666Y030852D02*
X030465Y030852D01*
X031666Y030852D01*
X030465Y030852D01*
X031666Y030852D01*
X031666Y030861D02*
X030473Y030861D01*
X031666Y030861D01*
X030473Y030861D01*
X031666Y030861D01*
X031666Y030869D02*
X030482Y030869D01*
X031666Y030869D01*
X030482Y030869D01*
X031666Y030869D01*
X031666Y030878D02*
X030490Y030878D01*
X031666Y030878D01*
X030490Y030878D01*
X031666Y030878D01*
X031666Y030886D02*
X030499Y030886D01*
X031666Y030886D01*
X030499Y030886D01*
X031666Y030886D01*
X031666Y030895D02*
X030507Y030895D01*
X031666Y030895D01*
X030507Y030895D01*
X031666Y030895D01*
X031666Y030903D02*
X030516Y030903D01*
X031666Y030903D01*
X030516Y030903D01*
X031666Y030903D01*
X031666Y030912D02*
X030524Y030912D01*
X031666Y030912D01*
X030524Y030912D01*
X031666Y030912D01*
X031666Y030920D02*
X030533Y030920D01*
X031666Y030920D01*
X030533Y030920D01*
X031666Y030920D01*
X031666Y030929D02*
X030541Y030929D01*
X031666Y030929D01*
X030541Y030929D01*
X031666Y030929D01*
X031666Y030937D02*
X030550Y030937D01*
X031666Y030937D01*
X030550Y030937D01*
X031666Y030937D01*
X031666Y030946D02*
X030558Y030946D01*
X031666Y030946D01*
X030558Y030946D01*
X031666Y030946D01*
X031666Y030954D02*
X030567Y030954D01*
X031666Y030954D01*
X030567Y030954D01*
X031666Y030954D01*
X031666Y030963D02*
X030575Y030963D01*
X031666Y030963D01*
X030575Y030963D01*
X031666Y030963D01*
X031666Y030971D02*
X030584Y030971D01*
X031666Y030971D01*
X030584Y030971D01*
X031666Y030971D01*
X031666Y030980D02*
X030592Y030980D01*
X031666Y030980D01*
X030592Y030980D01*
X031666Y030980D01*
X031666Y030988D02*
X030601Y030988D01*
X031666Y030988D01*
X030601Y030988D01*
X031666Y030988D01*
X031666Y030997D02*
X030609Y030997D01*
X031666Y030997D01*
X030609Y030997D01*
X031666Y030997D01*
X031666Y031005D02*
X030618Y031005D01*
X031666Y031005D01*
X030618Y031005D01*
X031666Y031005D01*
X031666Y031014D02*
X030626Y031014D01*
X031666Y031014D01*
X030626Y031014D01*
X031666Y031014D01*
X031666Y031022D02*
X030635Y031022D01*
X031666Y031022D01*
X030635Y031022D01*
X031666Y031022D01*
X031666Y031031D02*
X030643Y031031D01*
X031666Y031031D01*
X030643Y031031D01*
X031666Y031031D01*
X031666Y031039D02*
X030652Y031039D01*
X031666Y031039D01*
X030652Y031039D01*
X031666Y031039D01*
X031666Y031048D02*
X030660Y031048D01*
X031666Y031048D01*
X030660Y031048D01*
X031666Y031048D01*
X031666Y031056D02*
X030669Y031056D01*
X031666Y031056D01*
X030669Y031056D01*
X031666Y031056D01*
X031666Y031065D02*
X030677Y031065D01*
X031666Y031065D01*
X030677Y031065D01*
X031666Y031065D01*
X031666Y031073D02*
X030686Y031073D01*
X031666Y031073D01*
X030686Y031073D01*
X031666Y031073D01*
X031666Y031082D02*
X030694Y031082D01*
X031666Y031082D01*
X030694Y031082D01*
X031666Y031082D01*
X031666Y031090D02*
X030703Y031090D01*
X031666Y031090D01*
X030703Y031090D01*
X031666Y031090D01*
X031666Y031099D02*
X030711Y031099D01*
X031666Y031099D01*
X030711Y031099D01*
X031666Y031099D01*
X031666Y031107D02*
X030720Y031107D01*
X031666Y031107D01*
X030720Y031107D01*
X031666Y031107D01*
X031666Y031116D02*
X030728Y031116D01*
X031666Y031116D01*
X030728Y031116D01*
X031666Y031116D01*
X031666Y031124D02*
X030737Y031124D01*
X031666Y031124D01*
X030737Y031124D01*
X031666Y031124D01*
X031666Y031133D02*
X030745Y031133D01*
X031666Y031133D01*
X030745Y031133D01*
X031666Y031133D01*
X030860Y030767D02*
X030386Y030767D01*
X030860Y030767D01*
X030386Y030767D01*
X030860Y030767D01*
X030851Y030759D02*
X030386Y030759D01*
X030851Y030759D01*
X030386Y030759D01*
X030851Y030759D01*
X030843Y030750D02*
X030386Y030750D01*
X030843Y030750D01*
X030386Y030750D01*
X030843Y030750D01*
X030834Y030742D02*
X030386Y030742D01*
X030834Y030742D01*
X030386Y030742D01*
X030834Y030742D01*
X030826Y030733D02*
X030386Y030733D01*
X030826Y030733D01*
X030386Y030733D01*
X030826Y030733D01*
X030817Y030725D02*
X030386Y030725D01*
X030817Y030725D01*
X030386Y030725D01*
X030817Y030725D01*
X030809Y030716D02*
X030386Y030716D01*
X030809Y030716D01*
X030386Y030716D01*
X030809Y030716D01*
X030800Y030708D02*
X030386Y030708D01*
X030800Y030708D01*
X030386Y030708D01*
X030800Y030708D01*
X030792Y030699D02*
X030386Y030699D01*
X030792Y030699D01*
X030386Y030699D01*
X030792Y030699D01*
X030783Y030691D02*
X030386Y030691D01*
X030783Y030691D01*
X030386Y030691D01*
X030783Y030691D01*
X030775Y030682D02*
X030386Y030682D01*
X030775Y030682D01*
X030386Y030682D01*
X030775Y030682D01*
X030766Y030674D02*
X030386Y030674D01*
X030766Y030674D01*
X030386Y030674D01*
X030766Y030674D01*
X030758Y030665D02*
X030386Y030665D01*
X030758Y030665D01*
X030386Y030665D01*
X030758Y030665D01*
X030749Y030657D02*
X030386Y030657D01*
X030749Y030657D01*
X030386Y030657D01*
X030749Y030657D01*
X030386Y030206D02*
X031666Y030206D01*
X030386Y030206D01*
X031666Y030206D01*
X030386Y030206D01*
X030386Y030198D02*
X031666Y030198D01*
X030386Y030198D01*
X031666Y030198D01*
X030386Y030198D01*
X030386Y030189D02*
X031666Y030189D01*
X030386Y030189D01*
X031666Y030189D01*
X030386Y030189D01*
X030386Y030181D02*
X031666Y030181D01*
X030386Y030181D01*
X031666Y030181D01*
X030386Y030181D01*
X030386Y030172D02*
X031666Y030172D01*
X030386Y030172D01*
X031666Y030172D01*
X030386Y030172D01*
X030386Y030164D02*
X031666Y030164D01*
X030386Y030164D01*
X031666Y030164D01*
X030386Y030164D01*
X030386Y030155D02*
X031666Y030155D01*
X030386Y030155D01*
X031666Y030155D01*
X030386Y030155D01*
X030386Y030147D02*
X031666Y030147D01*
X030386Y030147D01*
X031666Y030147D01*
X030386Y030147D01*
X030386Y030138D02*
X031666Y030138D01*
X030386Y030138D01*
X031666Y030138D01*
X030386Y030138D01*
X030386Y030130D02*
X031666Y030130D01*
X030386Y030130D01*
X031666Y030130D01*
X030386Y030130D01*
X030386Y030121D02*
X031666Y030121D01*
X030386Y030121D01*
X031666Y030121D01*
X030386Y030121D01*
X030386Y030113D02*
X031666Y030113D01*
X030386Y030113D01*
X031666Y030113D01*
X030386Y030113D01*
X030386Y030104D02*
X031666Y030104D01*
X030386Y030104D01*
X031666Y030104D01*
X030386Y030104D01*
X030386Y030096D02*
X031666Y030096D01*
X030386Y030096D01*
X031666Y030096D01*
X030386Y030096D01*
X030386Y030087D02*
X031666Y030087D01*
X030386Y030087D01*
X031666Y030087D01*
X030386Y030087D01*
X030386Y030079D02*
X031666Y030079D01*
X030386Y030079D01*
X031666Y030079D01*
X030386Y030079D01*
X030386Y030070D02*
X031666Y030070D01*
X030386Y030070D01*
X031666Y030070D01*
X030386Y030070D01*
X030386Y030062D02*
X031666Y030062D01*
X030386Y030062D01*
X031666Y030062D01*
X030386Y030062D01*
X030386Y030053D02*
X031666Y030053D01*
X030386Y030053D01*
X031666Y030053D01*
X030386Y030053D01*
X030386Y030045D02*
X031666Y030045D01*
X030386Y030045D01*
X031666Y030045D01*
X030386Y030045D01*
X030386Y030036D02*
X031666Y030036D01*
X030386Y030036D01*
X031666Y030036D01*
X030386Y030036D01*
X030386Y030028D02*
X031666Y030028D01*
X030386Y030028D01*
X031666Y030028D01*
X030386Y030028D01*
X030386Y030019D02*
X031666Y030019D01*
X030386Y030019D01*
X031666Y030019D01*
X030386Y030019D01*
X030386Y030011D02*
X031666Y030011D01*
X030386Y030011D01*
X031666Y030011D01*
X030386Y030011D01*
X030386Y030002D02*
X031666Y030002D01*
X030386Y030002D01*
X031666Y030002D01*
X030386Y030002D01*
X030386Y029994D02*
X031666Y029994D01*
X030386Y029994D01*
X031666Y029994D01*
X030386Y029994D01*
X030386Y029985D02*
X031666Y029985D01*
X030386Y029985D01*
X031666Y029985D01*
X030386Y029985D01*
X030386Y029977D02*
X031666Y029977D01*
X030386Y029977D01*
X031666Y029977D01*
X030386Y029977D01*
X030386Y029968D02*
X031666Y029968D01*
X030386Y029968D01*
X031666Y029968D01*
X030386Y029968D01*
X030386Y029960D02*
X031666Y029960D01*
X030386Y029960D01*
X031666Y029960D01*
X030386Y029960D01*
X030386Y029951D02*
X031666Y029951D01*
X030386Y029951D01*
X031666Y029951D01*
X030386Y029951D01*
X030386Y029943D02*
X031666Y029943D01*
X030386Y029943D01*
X031666Y029943D01*
X030386Y029943D01*
X030386Y029934D02*
X031666Y029934D01*
X030386Y029934D01*
X031666Y029934D01*
X030386Y029934D01*
X030386Y029926D02*
X031666Y029926D01*
X030386Y029926D01*
X031666Y029926D01*
X030386Y029926D01*
X030386Y029917D02*
X031666Y029917D01*
X030386Y029917D01*
X031666Y029917D01*
X030386Y029917D01*
X030386Y029909D02*
X031666Y029909D01*
X030386Y029909D01*
X031666Y029909D01*
X030386Y029909D01*
X030386Y029900D02*
X031666Y029900D01*
X030386Y029900D01*
X031666Y029900D01*
X030386Y029900D01*
X030386Y029892D02*
X031666Y029892D01*
X030386Y029892D01*
X031666Y029892D01*
X030386Y029892D01*
X030386Y029883D02*
X031666Y029883D01*
X030386Y029883D01*
X031666Y029883D01*
X030386Y029883D01*
X030386Y029875D02*
X031666Y029875D01*
X030386Y029875D01*
X031666Y029875D01*
X030386Y029875D01*
X030386Y029866D02*
X031666Y029866D01*
X030386Y029866D01*
X031666Y029866D01*
X030386Y029866D01*
X030386Y029858D02*
X031666Y029858D01*
X030386Y029858D01*
X031666Y029858D01*
X030386Y029858D01*
X039031Y029968D02*
X039696Y029968D01*
X039031Y029968D01*
X039696Y029968D01*
X039031Y029968D01*
X039039Y029960D02*
X039696Y029960D01*
X039039Y029960D01*
X039696Y029960D01*
X039039Y029960D01*
X039048Y029951D02*
X039696Y029951D01*
X039048Y029951D01*
X039696Y029951D01*
X039048Y029951D01*
X039056Y029943D02*
X039696Y029943D01*
X039056Y029943D01*
X039696Y029943D01*
X039056Y029943D01*
X039065Y029934D02*
X039696Y029934D01*
X039065Y029934D01*
X039696Y029934D01*
X039065Y029934D01*
X039073Y029926D02*
X039696Y029926D01*
X039073Y029926D01*
X039696Y029926D01*
X039073Y029926D01*
X039082Y029917D02*
X039696Y029917D01*
X039082Y029917D01*
X039696Y029917D01*
X039082Y029917D01*
X039090Y029909D02*
X039696Y029909D01*
X039090Y029909D01*
X039696Y029909D01*
X039090Y029909D01*
X039099Y029900D02*
X039696Y029900D01*
X039099Y029900D01*
X039696Y029900D01*
X039099Y029900D01*
X039107Y029892D02*
X039696Y029892D01*
X039107Y029892D01*
X039696Y029892D01*
X039107Y029892D01*
X039116Y029883D02*
X039696Y029883D01*
X039116Y029883D01*
X039696Y029883D01*
X039116Y029883D01*
X039124Y029875D02*
X039696Y029875D01*
X039124Y029875D01*
X039696Y029875D01*
X039124Y029875D01*
X039133Y029866D02*
X039696Y029866D01*
X039133Y029866D01*
X039696Y029866D01*
X039133Y029866D01*
X039141Y029858D02*
X039696Y029858D01*
X039141Y029858D01*
X039696Y029858D01*
X039141Y029858D01*
X039868Y029611D02*
X040066Y029611D01*
X039868Y029611D01*
X040066Y029611D01*
X039868Y029611D01*
X039876Y029603D02*
X040066Y029603D01*
X039876Y029603D01*
X040066Y029603D01*
X039876Y029603D01*
X039885Y029594D02*
X040066Y029594D01*
X039885Y029594D01*
X040066Y029594D01*
X039885Y029594D01*
X039893Y029586D02*
X040066Y029586D01*
X039893Y029586D01*
X040066Y029586D01*
X039893Y029586D01*
X039902Y029577D02*
X040066Y029577D01*
X039902Y029577D01*
X040066Y029577D01*
X039902Y029577D01*
X039910Y029569D02*
X040066Y029569D01*
X039910Y029569D01*
X040066Y029569D01*
X039910Y029569D01*
X039919Y029560D02*
X040066Y029560D01*
X039919Y029560D01*
X040066Y029560D01*
X039919Y029560D01*
X039927Y029552D02*
X040066Y029552D01*
X039927Y029552D01*
X040066Y029552D01*
X039927Y029552D01*
X039936Y029543D02*
X040066Y029543D01*
X039936Y029543D01*
X040066Y029543D01*
X039936Y029543D01*
X039944Y029535D02*
X040066Y029535D01*
X039944Y029535D01*
X040066Y029535D01*
X039944Y029535D01*
X039953Y029526D02*
X040066Y029526D01*
X039953Y029526D01*
X040066Y029526D01*
X039953Y029526D01*
X039961Y029518D02*
X040066Y029518D01*
X039961Y029518D01*
X040066Y029518D01*
X039961Y029518D01*
X039970Y029509D02*
X040066Y029509D01*
X039970Y029509D01*
X040066Y029509D01*
X039970Y029509D01*
X039978Y029501D02*
X040066Y029501D01*
X039978Y029501D01*
X040066Y029501D01*
X039978Y029501D01*
X039987Y029492D02*
X040066Y029492D01*
X039987Y029492D01*
X040066Y029492D01*
X039987Y029492D01*
X039995Y029484D02*
X040066Y029484D01*
X039995Y029484D01*
X040066Y029484D01*
X039995Y029484D01*
X040004Y029475D02*
X040066Y029475D01*
X040004Y029475D01*
X040066Y029475D01*
X040004Y029475D01*
X040012Y029467D02*
X040066Y029467D01*
X040012Y029467D01*
X040066Y029467D01*
X040012Y029467D01*
X040021Y029458D02*
X040066Y029458D01*
X040021Y029458D01*
X040066Y029458D01*
X040021Y029458D01*
X040029Y029450D02*
X040066Y029450D01*
X040029Y029450D01*
X040066Y029450D01*
X040029Y029450D01*
X040038Y029441D02*
X040066Y029441D01*
X040038Y029441D01*
X040066Y029441D01*
X040038Y029441D01*
X040046Y029433D02*
X040066Y029433D01*
X040046Y029433D01*
X040066Y029433D01*
X040046Y029433D01*
X040055Y029424D02*
X040066Y029424D01*
X040055Y029424D01*
X040066Y029424D01*
X040055Y029424D01*
X040063Y029416D02*
X040066Y029416D01*
X040063Y029416D01*
X040066Y029416D01*
X040063Y029416D01*
M02*
