G75*
%MOIN*%
%OFA0B0*%
%FSLAX24Y24*%
%IPPOS*%
%LPD*%
%AMOC8*
5,1,8,0,0,1.08239X$1,22.5*
%
%ADD10C,0.0000*%
D10*
X006206Y003416D02*
X042426Y003416D01*
X041796Y004990D02*
X041798Y005040D01*
X041804Y005090D01*
X041814Y005139D01*
X041828Y005187D01*
X041845Y005234D01*
X041866Y005279D01*
X041891Y005323D01*
X041919Y005364D01*
X041951Y005403D01*
X041985Y005440D01*
X042022Y005474D01*
X042062Y005504D01*
X042104Y005531D01*
X042148Y005555D01*
X042194Y005576D01*
X042241Y005592D01*
X042289Y005605D01*
X042339Y005614D01*
X042388Y005619D01*
X042439Y005620D01*
X042489Y005617D01*
X042538Y005610D01*
X042587Y005599D01*
X042635Y005584D01*
X042681Y005566D01*
X042726Y005544D01*
X042769Y005518D01*
X042810Y005489D01*
X042849Y005457D01*
X042885Y005422D01*
X042917Y005384D01*
X042947Y005344D01*
X042974Y005301D01*
X042997Y005257D01*
X043016Y005211D01*
X043032Y005163D01*
X043044Y005114D01*
X043052Y005065D01*
X043056Y005015D01*
X043056Y004965D01*
X043052Y004915D01*
X043044Y004866D01*
X043032Y004817D01*
X043016Y004769D01*
X042997Y004723D01*
X042974Y004679D01*
X042947Y004636D01*
X042917Y004596D01*
X042885Y004558D01*
X042849Y004523D01*
X042810Y004491D01*
X042769Y004462D01*
X042726Y004436D01*
X042681Y004414D01*
X042635Y004396D01*
X042587Y004381D01*
X042538Y004370D01*
X042489Y004363D01*
X042439Y004360D01*
X042388Y004361D01*
X042339Y004366D01*
X042289Y004375D01*
X042241Y004388D01*
X042194Y004404D01*
X042148Y004425D01*
X042104Y004449D01*
X042062Y004476D01*
X042022Y004506D01*
X041985Y004540D01*
X041951Y004577D01*
X041919Y004616D01*
X041891Y004657D01*
X041866Y004701D01*
X041845Y004746D01*
X041828Y004793D01*
X041814Y004841D01*
X041804Y004890D01*
X041798Y004940D01*
X041796Y004990D01*
X042426Y003415D02*
X042503Y003417D01*
X042580Y003423D01*
X042657Y003432D01*
X042733Y003445D01*
X042809Y003462D01*
X042883Y003483D01*
X042957Y003507D01*
X043029Y003535D01*
X043099Y003566D01*
X043168Y003601D01*
X043236Y003639D01*
X043301Y003680D01*
X043364Y003725D01*
X043425Y003773D01*
X043484Y003823D01*
X043540Y003876D01*
X043593Y003932D01*
X043643Y003991D01*
X043691Y004052D01*
X043736Y004115D01*
X043777Y004180D01*
X043815Y004248D01*
X043850Y004317D01*
X043881Y004387D01*
X043909Y004459D01*
X043933Y004533D01*
X043954Y004607D01*
X043971Y004683D01*
X043984Y004759D01*
X043993Y004836D01*
X043999Y004913D01*
X044001Y004990D01*
X044001Y033337D01*
X041796Y033337D02*
X041798Y033387D01*
X041804Y033437D01*
X041814Y033486D01*
X041828Y033534D01*
X041845Y033581D01*
X041866Y033626D01*
X041891Y033670D01*
X041919Y033711D01*
X041951Y033750D01*
X041985Y033787D01*
X042022Y033821D01*
X042062Y033851D01*
X042104Y033878D01*
X042148Y033902D01*
X042194Y033923D01*
X042241Y033939D01*
X042289Y033952D01*
X042339Y033961D01*
X042388Y033966D01*
X042439Y033967D01*
X042489Y033964D01*
X042538Y033957D01*
X042587Y033946D01*
X042635Y033931D01*
X042681Y033913D01*
X042726Y033891D01*
X042769Y033865D01*
X042810Y033836D01*
X042849Y033804D01*
X042885Y033769D01*
X042917Y033731D01*
X042947Y033691D01*
X042974Y033648D01*
X042997Y033604D01*
X043016Y033558D01*
X043032Y033510D01*
X043044Y033461D01*
X043052Y033412D01*
X043056Y033362D01*
X043056Y033312D01*
X043052Y033262D01*
X043044Y033213D01*
X043032Y033164D01*
X043016Y033116D01*
X042997Y033070D01*
X042974Y033026D01*
X042947Y032983D01*
X042917Y032943D01*
X042885Y032905D01*
X042849Y032870D01*
X042810Y032838D01*
X042769Y032809D01*
X042726Y032783D01*
X042681Y032761D01*
X042635Y032743D01*
X042587Y032728D01*
X042538Y032717D01*
X042489Y032710D01*
X042439Y032707D01*
X042388Y032708D01*
X042339Y032713D01*
X042289Y032722D01*
X042241Y032735D01*
X042194Y032751D01*
X042148Y032772D01*
X042104Y032796D01*
X042062Y032823D01*
X042022Y032853D01*
X041985Y032887D01*
X041951Y032924D01*
X041919Y032963D01*
X041891Y033004D01*
X041866Y033048D01*
X041845Y033093D01*
X041828Y033140D01*
X041814Y033188D01*
X041804Y033237D01*
X041798Y033287D01*
X041796Y033337D01*
X042426Y034912D02*
X042503Y034910D01*
X042580Y034904D01*
X042657Y034895D01*
X042733Y034882D01*
X042809Y034865D01*
X042883Y034844D01*
X042957Y034820D01*
X043029Y034792D01*
X043099Y034761D01*
X043168Y034726D01*
X043236Y034688D01*
X043301Y034647D01*
X043364Y034602D01*
X043425Y034554D01*
X043484Y034504D01*
X043540Y034451D01*
X043593Y034395D01*
X043643Y034336D01*
X043691Y034275D01*
X043736Y034212D01*
X043777Y034147D01*
X043815Y034079D01*
X043850Y034010D01*
X043881Y033940D01*
X043909Y033868D01*
X043933Y033794D01*
X043954Y033720D01*
X043971Y033644D01*
X043984Y033568D01*
X043993Y033491D01*
X043999Y033414D01*
X044001Y033337D01*
X042426Y034912D02*
X006206Y034912D01*
X005576Y033337D02*
X005578Y033387D01*
X005584Y033437D01*
X005594Y033486D01*
X005608Y033534D01*
X005625Y033581D01*
X005646Y033626D01*
X005671Y033670D01*
X005699Y033711D01*
X005731Y033750D01*
X005765Y033787D01*
X005802Y033821D01*
X005842Y033851D01*
X005884Y033878D01*
X005928Y033902D01*
X005974Y033923D01*
X006021Y033939D01*
X006069Y033952D01*
X006119Y033961D01*
X006168Y033966D01*
X006219Y033967D01*
X006269Y033964D01*
X006318Y033957D01*
X006367Y033946D01*
X006415Y033931D01*
X006461Y033913D01*
X006506Y033891D01*
X006549Y033865D01*
X006590Y033836D01*
X006629Y033804D01*
X006665Y033769D01*
X006697Y033731D01*
X006727Y033691D01*
X006754Y033648D01*
X006777Y033604D01*
X006796Y033558D01*
X006812Y033510D01*
X006824Y033461D01*
X006832Y033412D01*
X006836Y033362D01*
X006836Y033312D01*
X006832Y033262D01*
X006824Y033213D01*
X006812Y033164D01*
X006796Y033116D01*
X006777Y033070D01*
X006754Y033026D01*
X006727Y032983D01*
X006697Y032943D01*
X006665Y032905D01*
X006629Y032870D01*
X006590Y032838D01*
X006549Y032809D01*
X006506Y032783D01*
X006461Y032761D01*
X006415Y032743D01*
X006367Y032728D01*
X006318Y032717D01*
X006269Y032710D01*
X006219Y032707D01*
X006168Y032708D01*
X006119Y032713D01*
X006069Y032722D01*
X006021Y032735D01*
X005974Y032751D01*
X005928Y032772D01*
X005884Y032796D01*
X005842Y032823D01*
X005802Y032853D01*
X005765Y032887D01*
X005731Y032924D01*
X005699Y032963D01*
X005671Y033004D01*
X005646Y033048D01*
X005625Y033093D01*
X005608Y033140D01*
X005594Y033188D01*
X005584Y033237D01*
X005578Y033287D01*
X005576Y033337D01*
X004631Y033337D02*
X004633Y033414D01*
X004639Y033491D01*
X004648Y033568D01*
X004661Y033644D01*
X004678Y033720D01*
X004699Y033794D01*
X004723Y033868D01*
X004751Y033940D01*
X004782Y034010D01*
X004817Y034079D01*
X004855Y034147D01*
X004896Y034212D01*
X004941Y034275D01*
X004989Y034336D01*
X005039Y034395D01*
X005092Y034451D01*
X005148Y034504D01*
X005207Y034554D01*
X005268Y034602D01*
X005331Y034647D01*
X005396Y034688D01*
X005464Y034726D01*
X005533Y034761D01*
X005603Y034792D01*
X005675Y034820D01*
X005749Y034844D01*
X005823Y034865D01*
X005899Y034882D01*
X005975Y034895D01*
X006052Y034904D01*
X006129Y034910D01*
X006206Y034912D01*
X004631Y033337D02*
X004631Y004990D01*
X005576Y004990D02*
X005578Y005040D01*
X005584Y005090D01*
X005594Y005139D01*
X005608Y005187D01*
X005625Y005234D01*
X005646Y005279D01*
X005671Y005323D01*
X005699Y005364D01*
X005731Y005403D01*
X005765Y005440D01*
X005802Y005474D01*
X005842Y005504D01*
X005884Y005531D01*
X005928Y005555D01*
X005974Y005576D01*
X006021Y005592D01*
X006069Y005605D01*
X006119Y005614D01*
X006168Y005619D01*
X006219Y005620D01*
X006269Y005617D01*
X006318Y005610D01*
X006367Y005599D01*
X006415Y005584D01*
X006461Y005566D01*
X006506Y005544D01*
X006549Y005518D01*
X006590Y005489D01*
X006629Y005457D01*
X006665Y005422D01*
X006697Y005384D01*
X006727Y005344D01*
X006754Y005301D01*
X006777Y005257D01*
X006796Y005211D01*
X006812Y005163D01*
X006824Y005114D01*
X006832Y005065D01*
X006836Y005015D01*
X006836Y004965D01*
X006832Y004915D01*
X006824Y004866D01*
X006812Y004817D01*
X006796Y004769D01*
X006777Y004723D01*
X006754Y004679D01*
X006727Y004636D01*
X006697Y004596D01*
X006665Y004558D01*
X006629Y004523D01*
X006590Y004491D01*
X006549Y004462D01*
X006506Y004436D01*
X006461Y004414D01*
X006415Y004396D01*
X006367Y004381D01*
X006318Y004370D01*
X006269Y004363D01*
X006219Y004360D01*
X006168Y004361D01*
X006119Y004366D01*
X006069Y004375D01*
X006021Y004388D01*
X005974Y004404D01*
X005928Y004425D01*
X005884Y004449D01*
X005842Y004476D01*
X005802Y004506D01*
X005765Y004540D01*
X005731Y004577D01*
X005699Y004616D01*
X005671Y004657D01*
X005646Y004701D01*
X005625Y004746D01*
X005608Y004793D01*
X005594Y004841D01*
X005584Y004890D01*
X005578Y004940D01*
X005576Y004990D01*
X004631Y004990D02*
X004633Y004913D01*
X004639Y004836D01*
X004648Y004759D01*
X004661Y004683D01*
X004678Y004607D01*
X004699Y004533D01*
X004723Y004459D01*
X004751Y004387D01*
X004782Y004317D01*
X004817Y004248D01*
X004855Y004180D01*
X004896Y004115D01*
X004941Y004052D01*
X004989Y003991D01*
X005039Y003932D01*
X005092Y003876D01*
X005148Y003823D01*
X005207Y003773D01*
X005268Y003725D01*
X005331Y003680D01*
X005396Y003639D01*
X005464Y003601D01*
X005533Y003566D01*
X005603Y003535D01*
X005675Y003507D01*
X005749Y003483D01*
X005823Y003462D01*
X005899Y003445D01*
X005975Y003432D01*
X006052Y003423D01*
X006129Y003417D01*
X006206Y003415D01*
M02*
