%
M48
M72
T01C0.0236
T02C0.0315
T03C0.0320
T04C0.0400
T05C0.1260
%
T01
X10316Y7164
X10066Y7664
X9816Y8164
X11316Y6914
X11816Y6414
X12816Y6164
X13566Y5414
X12066Y4414
X7816Y8914
X7566Y9414
X7816Y9914
X7566Y10414
X7816Y10914
X7566Y11414
X7816Y11914
X7566Y12414
X7816Y12914
X8316Y14164
X8316Y14914
X10566Y17414
X13066Y19414
X16316Y19164
X16066Y22164
X17066Y22414
X18066Y22664
X19066Y22914
X20066Y22914
X20816Y22664
X22566Y23664
X25066Y22164
X26066Y23164
X26566Y23914
X27316Y23414
X28066Y23914
X28816Y23414
X30566Y20164
X33066Y20164
X35816Y22914
X36816Y24664
X38066Y24914
X39066Y25414
X38566Y26414
X39816Y26914
X38816Y27414
X26966Y19664
X24816Y17914
X25316Y15664
X24566Y14414
X22566Y13164
X21816Y14164
X22066Y15164
X19566Y12914
X18566Y11664
X19316Y11164
X18316Y10414
X17316Y9414
X18316Y8914
X20316Y7664
X20566Y8164
X20066Y7164
X22566Y7664
X22816Y7164
X23066Y6664
X25066Y6914
X26066Y6914
X27316Y7414
X28066Y8164
X28566Y8664
X29066Y8164
X29566Y8664
X30566Y9414
X29066Y10664
X29566Y11414
X29566Y12414
X30566Y13664
X30566Y14914
X30066Y15164
X29566Y14914
X29066Y15164
X31566Y15414
X34066Y13414
X34566Y13264
X35066Y12664
X35066Y11914
X36066Y11814
X36066Y12664
X37066Y9164
X38066Y9164
X39316Y8414
X41816Y8414
X36816Y7914
X36316Y8414
X36816Y6914
X28066Y10664
X27316Y8664
X26816Y8914
X26316Y8664
X25816Y8914
X21066Y12164
X13816Y12414
X12066Y12414
X12816Y14664
X23066Y27914
X20066Y31414
X19066Y31164
X18066Y30914
X17066Y30664
X16066Y30414
X15066Y30164
X14066Y29914
X11316Y29164
X10816Y29414
X10316Y29664
X9816Y29914
X9316Y30164
X8816Y30414
X8316Y30664
X8316Y31664
X8816Y32164
X21316Y31664
X22566Y31914
T02
X41066Y23414
X42066Y23414
X42066Y24414
X42066Y25414
X41066Y25414
X41066Y24414
X41066Y26414
X42066Y26414
X42066Y27414
X42066Y28414
X41066Y28414
X41066Y27414
X41066Y29414
X42066Y29414
T03
X38066Y9914
X37066Y9914
X37066Y10914
X38066Y10914
X38066Y11914
X39066Y11914
X39066Y10914
X39066Y12914
X38066Y12914
X38066Y13914
X38066Y14914
X39066Y14914
X39066Y13914
X39066Y15914
X38066Y15914
X37066Y15914
X37066Y16914
X38066Y16914
X36066Y16914
X35066Y16914
X34066Y16914
X33066Y16914
X33066Y15914
X34066Y15914
X35066Y15914
X36066Y15914
X33066Y14914
X32066Y14914
X32066Y13914
X33066Y13914
X33066Y12914
X32066Y12914
X32066Y11914
X33066Y11914
X33066Y10914
X34066Y10914
X35066Y10914
X36066Y10914
X36066Y9914
X35066Y9914
X34066Y9914
X33066Y9914
X32066Y10914
X32066Y15914
X34566Y23664
X37566Y23664
X37566Y26664
X34566Y26664
X21566Y24414
X20566Y24414
X19566Y24414
X18566Y24414
X17566Y24414
X16566Y24414
X15566Y24414
X14566Y24414
X13566Y24414
X12566Y24414
X11566Y24414
X10566Y24414
X9566Y24414
X8566Y24414
X8566Y21414
X9566Y21414
X10566Y21414
X11566Y21414
X12566Y21414
X13566Y21414
X14566Y21414
X15566Y21414
X16566Y21414
X17566Y21414
X18566Y21414
X19566Y21414
X20566Y21414
X21566Y21414
X16566Y16914
X15566Y16914
X14566Y16914
X13566Y16914
X12566Y16914
X11566Y16914
X11566Y15914
X12566Y15914
X13566Y15914
X14566Y15914
X15566Y15914
X16566Y15914
X17566Y15914
X17566Y14914
X17566Y13914
X16566Y13914
X16566Y14914
X16566Y12914
X17566Y12914
X17566Y11914
X17566Y10914
X16566Y10914
X16566Y11914
X15566Y10914
X14566Y10914
X13566Y10914
X12566Y10914
X11566Y10914
X11566Y11914
X10566Y11914
X10566Y10914
X11566Y9914
X12566Y9914
X13566Y9914
X14566Y9914
X15566Y9914
X16566Y9914
X11566Y12914
X10566Y12914
X10566Y13914
X10566Y14914
X11566Y14914
X11566Y13914
X10566Y15914
T04
X14566Y4414
X15566Y4414
X16566Y4414
X16566Y5414
X15566Y5414
X14566Y5414
X17566Y5414
X18566Y5414
X19566Y5414
X20566Y5414
X21566Y5414
X22566Y5414
X23566Y5414
X24566Y5414
X25566Y5414
X26566Y5414
X27566Y5414
X28566Y5414
X29566Y5414
X30566Y5414
X31566Y5414
X32566Y5414
X33566Y5414
X33566Y4414
X32566Y4414
X31566Y4414
X30566Y4414
X29566Y4414
X28566Y4414
X27566Y4414
X26566Y4414
X25566Y4414
X24566Y4414
X23566Y4414
X22566Y4414
X21566Y4414
X20566Y4414
X19566Y4414
X18566Y4414
X17566Y4414
X43066Y8914
X43066Y9914
X43066Y10914
X43066Y11914
X43066Y12914
X43066Y13914
X43066Y14914
X43066Y15914
X43066Y16914
X43066Y17914
X43066Y18914
X43066Y19914
X29316Y26914
X29316Y27914
X29316Y28914
X29316Y30914
X29316Y31914
X29316Y32914
X23566Y32914
X22566Y32914
X21566Y32914
X20566Y32914
X19566Y32914
X18566Y32914
X17566Y32914
X16566Y32914
X15566Y32914
X14566Y32914
X13566Y32914
X12566Y32914
X11566Y32914
X10566Y32914
X10566Y26914
X11566Y26914
X12566Y26914
X13566Y26914
X14566Y26914
X15566Y26914
X16566Y26914
X17566Y26914
X18566Y26914
X19566Y26914
X20566Y26914
X21566Y26914
X22566Y26914
X23566Y26914
X38566Y32414
X38566Y33414
X40316Y33414
X40316Y32414
T05
X6206Y4990
X6206Y33337
X42426Y33337
X42426Y4990
M30
